<?xml version="1.0" encoding="utf-8"?>
<!-- Generator: Adobe Illustrator 16.0.4, SVG Export Plug-In . SVG Version: 6.00 Build 0)  -->
<!DOCTYPE svg PUBLIC "-//W3C//DTD SVG 1.1//EN" "http://www.w3.org/Graphics/SVG/1.1/DTD/svg11.dtd">
<svg version="1.1" id="Layer_1" xmlns="http://www.w3.org/2000/svg" xmlns:xlink="http://www.w3.org/1999/xlink" x="0px" y="0px"
	 width="280.201px" height="182.09px" viewBox="0 0 280.201 182.09" enable-background="new 0 0 280.201 182.09"
	 xml:space="preserve">
<path fill="#010102" d="M266.956,67.933c0,8.839-1.615,16.882-4.804,24.12c-3.196,7.244-7.375,13.44-12.533,18.595
	c-5.16,5.156-11.119,9.086-17.874,11.784c-6.758,2.703-13.818,4.05-21.188,4.05c-11.789,0-22.784-3.62-32.975-10.862
	c-10.195-7.24-21.802-18.228-34.824-32.958c-4.916,5.652-9.891,11.111-14.922,16.388c-5.037,5.281-10.379,9.942-16.027,13.992
	c-5.654,4.049-11.67,7.307-18.055,9.758c-6.39,2.455-13.39,3.682-21.002,3.682c-7.369,0-14.432-1.474-21.185-4.418
	c-6.76-2.949-12.655-6.998-17.687-12.152c-5.037-5.156-9.027-11.231-11.974-18.228c-2.949-6.996-4.421-14.545-4.421-22.646
	c0-8.343,1.472-16.076,4.421-23.2c2.947-7.116,7-13.312,12.158-18.595c5.16-5.275,11.238-9.391,18.238-12.335
	c7.002-2.947,14.677-4.419,23.029-4.419c6.875,0,13.386,1.231,19.528,3.682c6.138,2.458,12.033,5.706,17.687,9.759
	c5.647,4.049,11.052,8.715,16.212,13.992c5.158,5.282,10.19,10.862,15.106,16.754c4.666-5.396,9.457-10.735,14.376-16.017
	c4.909-5.276,10.131-10,15.657-14.178c5.525-4.172,11.479-7.548,17.868-10.125c6.385-2.578,13.507-3.867,21.371-3.867
	c8.105,0,15.41,1.414,21.923,4.234c6.504,2.826,12.158,6.693,16.948,11.599c4.791,4.914,8.488,10.927,11.064,18.044
	c2.581,7.124,3.885,14.856,3.885,23.199V67.933 M75.699,108.957c5.895,0,11.48-1.179,16.765-3.758
	c5.278-2.577,10.253-5.773,14.921-9.702c4.664-3.925,9.085-8.133,13.265-12.676c4.174-4.54,8.227-8.883,12.16-13.061
	c-4.18-5.156-8.354-10.241-12.528-15.274c-4.179-5.028-8.659-9.572-13.448-13.623c-4.789-4.05-9.95-7.298-15.475-9.755
	c-5.527-2.45-11.607-3.682-18.24-3.682c-5.894,0-11.18,1.105-15.843,3.315c-4.667,2.209-8.538,5.283-11.606,9.207
	c-3.074,3.931-5.469,8.41-7.184,13.44c-1.723,5.034-2.581,10.373-2.581,16.017c0.243,11.048,3.927,20.329,11.055,28.063
	c7.121,7.731,16.579,11.489,28.37,11.489H75.699z M210.923,27.373c-6.39,0-12.342,1.501-17.868,4.447
	c-5.527,2.946-10.685,6.583-15.474,10.875c-4.791,4.299-9.273,8.788-13.449,13.448c-4.178,4.667-7.861,8.599-11.054,11.787
	c12.28,13.75,22.66,24.063,31.134,30.931c8.475,6.877,17.742,10.313,27.817,10.313c5.896,0,11.053-1.162,15.476-3.498
	c4.42-2.331,8.227-5.395,11.422-9.205c3.188-3.803,5.585-8.101,7.185-12.888c1.596-4.786,2.394-9.632,2.394-14.545
	c0-13.258-3.441-23.53-10.314-30.774c-6.881-7.239-15.843-10.891-26.898-10.891H210.923z"/>
<path fill="#FFFFFF" d="M266.364,67.933h-2.5c-0.001,8.595-1.282,16.272-4.296,23.112l-0.018,0.041l0.019-0.043
	c-3.098,7.018-6.957,12.931-11.865,17.837c-4.938,4.932-10.519,8.656-16.96,11.229l-0.026,0.012l0.024-0.011
	c-6.469,2.587-13.157,3.87-20.223,3.872c-11.273-0.009-21.68-3.427-31.508-10.4l-0.001-0.001
	c-9.955-7.065-21.449-17.934-34.389-32.575l-1.889-2.136l-1.871,2.152c-4.891,5.623-9.836,11.054-14.841,16.303h0.001
	c-4.937,5.174-10.157,9.73-15.673,13.685l0.001-0.001c-5.488,3.93-11.311,7.083-17.495,9.458c-6.077,2.334-12.76,3.514-20.104,3.515
	c-7.037-0.002-13.738-1.399-20.186-4.209c-6.478-2.828-12.089-6.683-16.897-11.607h-0.001c-4.81-4.926-8.622-10.722-11.458-17.451
	c-2.813-6.678-4.223-13.877-4.225-21.676c0.001-8.05,1.416-15.44,4.231-22.243c2.835-6.842,6.705-12.753,11.637-17.806l-0.002,0.002
	c4.929-5.037,10.712-8.955,17.421-11.779c6.673-2.807,13.999-4.222,22.059-4.223c6.577,0.001,12.756,1.173,18.602,3.504
	l-0.003-0.001c5.944,2.38,11.66,5.528,17.16,9.47c5.521,3.959,10.816,8.529,15.88,13.708l-0.001-0.001
	c5.111,5.233,10.1,10.765,14.975,16.609l1.886,2.26l1.925-2.227c4.646-5.373,9.416-10.689,14.314-15.948l0.001-0.001
	c4.814-5.174,9.926-9.798,15.335-13.887l-0.002,0.001c5.355-4.042,11.111-7.306,17.297-9.801l0.001-0.001
	c6.053-2.443,12.843-3.684,20.436-3.685c7.816,0.001,14.765,1.36,20.93,4.028l-0.003-0.001c6.225,2.706,11.593,6.381,16.156,11.052
	l-0.002-0.001c4.486,4.604,7.715,10.267,10.208,17.15h0.001c2.452,6.772,3.438,14.203,3.438,22.348v0.368h5v-0.368
	c0-8.541-1.03-16.574-3.739-24.051l0.001,0.001c-2.658-7.35-6.233-13.714-11.328-18.938l-0.003-0.001
	c-5.018-5.142-10.958-9.2-17.74-12.146l-0.004-0.002l0.002,0.001c-6.861-2.971-14.522-4.441-22.917-4.44
	c-8.136-0.001-15.591,1.336-22.308,4.049l0.001-0.001c-6.593,2.659-12.743,6.147-18.438,10.449l-0.002,0.001
	c-5.646,4.268-10.976,9.09-15.979,14.469l-0.032,0.034l0.032-0.035c-4.938,5.304-9.751,10.666-14.437,16.086l1.891,1.635l1.92-1.601
	c-4.957-5.94-10.033-11.569-15.238-16.899l-0.001-0.001c-5.254-5.374-10.77-10.137-16.542-14.276
	c-5.809-4.165-11.884-7.514-18.215-10.049l-0.002-0.001c-6.44-2.571-13.282-3.861-20.455-3.86
	c-8.645-0.002-16.668,1.529-23.998,4.615c-7.291,3.064-13.665,7.377-19.056,12.891l-0.01,0.009l0.008-0.008
	c-5.385,5.513-9.619,11.995-12.679,19.386l-0.028,0.068l0.028-0.068c-3.082,7.444-4.612,15.52-4.611,24.156
	c-0.001,8.403,1.532,16.301,4.617,23.618c3.058,7.262,7.227,13.617,12.489,19.003l0.02,0.02l-0.02-0.021
	c5.256,5.387,11.436,9.628,18.476,12.698c7.058,3.08,14.482,4.628,22.185,4.626c7.879,0.001,15.196-1.271,21.897-3.848
	c6.587-2.528,12.793-5.891,18.613-10.059l0.002-0.002c5.78-4.144,11.237-8.91,16.377-14.297v-0.001
	c5.058-5.304,10.055-10.792,14.996-16.472l-1.887-1.641l-1.873,1.656c13.104,14.819,24.806,25.927,35.24,33.34l-0.001-0.002
	c10.553,7.512,22.099,11.334,34.404,11.326c7.674,0.002,15.034-1.407,22.08-4.229h-0.002c7.068-2.819,13.26-6.956,18.641-12.335
	c5.409-5.405,9.61-11.884,12.905-19.355l0.001-0.001c3.364-7.635,4.72-16.045,4.72-25.128H266.364 M75.699,109.548v2.5
	c6.316,0.002,12.294-1.588,17.861-4.307c5.489-2.679,10.632-6.141,15.435-10.183c4.754-4.001,9.25-8.357,13.495-12.971l0.001-0.001
	c4.17-4.536,8.217-8.909,12.139-13.075l1.498-1.591l-1.376-1.698c-4.185-5.161-8.364-10.271-12.546-15.314l-0.001-0.002
	c-4.267-5.133-8.849-9.791-13.757-13.942c-4.961-4.197-10.327-7.581-16.074-10.135l-0.006-0.003l0.004,0.002
	c-5.865-2.602-12.312-3.902-19.253-3.9c-6.204-0.001-11.879,1.167-16.914,3.555h0.002c-4.996,2.36-9.202,5.694-12.507,9.926
	l0.001-0.001c-3.255,4.16-5.784,8.9-7.582,14.173l-0.004,0.013l0.005-0.015c-1.816,5.306-2.715,10.929-2.715,16.826v0.027
	l0.001,0.028c0.126,5.785,1.158,11.239,3.114,16.273c1.955,5.033,4.834,9.638,8.602,13.725l-0.001-0.001
	c3.785,4.112,8.242,7.285,13.307,9.404c5.065,2.121,10.722,3.188,16.902,3.187h0.369v-5H75.33
	c-5.61-0.001-10.578-0.961-14.971-2.799c-4.391-1.841-8.224-4.56-11.56-8.179l-0.011-0.012l0.01,0.011
	c-3.36-3.647-5.887-7.697-7.617-12.147c-1.729-4.45-2.66-9.309-2.776-14.571l-2.5,0.054h2.5c0.001-5.391,0.818-10.446,2.446-15.208
	l0.001-0.002c1.633-4.786,3.894-9.006,6.787-12.706l0.001-0.001c2.831-3.617,6.366-6.429,10.706-8.486l0.001-0.001
	c4.291-2.032,9.187-3.071,14.772-3.073c6.324,0.002,12.037,1.171,17.226,3.471l0.006,0.002l-0.008-0.003
	c5.305,2.359,10.259,5.478,14.876,9.383c4.671,3.951,9.048,8.398,13.14,13.321l-0.001-0.001c4.166,5.024,8.334,10.12,12.51,15.271
	l1.942-1.575l-1.82-1.714c-3.943,4.188-8.003,8.576-12.18,13.119c-4.115,4.473-8.461,8.681-13.034,12.53
	c-4.534,3.816-9.34,7.042-14.409,9.516c-5.002,2.438-10.193,3.798-15.668,3.8V109.548z M210.923,27.964v-2.5
	c-6.697-0.004-13.105,1.275-19.045,4.446l0.001-0.001c-5.681,3.027-11.015,6.634-15.967,11.073l-0.001,0.001
	c-4.847,4.348-9.396,8.827-13.641,13.566h-0.001c-4.152,4.638-7.806,8.501-10.958,11.648l-1.672,1.671l1.573,1.764
	c12.337,13.811,22.782,24.182,31.425,31.19l-0.001-0.001c4.426,3.592,9.102,6.315,14.016,8.134c4.912,1.82,10.056,2.73,15.377,2.729
	c6.222,0.002,11.812-1.239,16.644-3.793l-0.002,0.001c4.697-2.475,8.773-5.758,12.172-9.813c3.39-4.04,5.945-8.631,7.64-13.703
	l0.001-0.002c1.677-5.027,2.523-10.151,2.521-15.336c0-6.843-0.887-12.929-2.713-18.299c-1.822-5.369-4.598-10.015-8.289-13.9
	l-0.001-0.001c-3.679-3.875-7.972-6.749-12.788-8.621c-4.818-1.874-10.144-2.753-15.922-2.753h-0.369v5h0.369
	c5.277,0.001,9.961,0.8,14.108,2.413c4.147,1.617,7.776,4.04,10.978,7.406l-0.001-0.002c3.183,3.357,5.565,7.322,7.182,12.068
	c1.614,4.743,2.448,10.275,2.446,16.689c0,4.642-0.752,9.212-2.266,13.755l0.001-0.002c-1.506,4.502-3.742,8.511-6.729,12.075
	c-2.993,3.567-6.53,6.417-10.673,8.604l-0.035,0.019l0.033-0.018c-4.014,2.118-8.736,3.211-14.308,3.214
	c-4.754-0.001-9.282-0.805-13.641-2.418c-4.358-1.614-8.553-4.042-12.602-7.327l-0.001-0.001
	c-8.305-6.729-18.62-16.946-30.844-30.637l-1.864,1.665l1.767,1.769c3.232-3.227,6.945-7.155,11.149-11.851l-0.001,0.001
	c4.105-4.582,8.522-8.933,13.257-13.181l-0.001,0.001c4.626-4.146,9.607-7.519,14.981-10.383h0.001
	c5.114-2.723,10.61-3.854,16.691-3.858V27.964z"/>
<text transform="matrix(1.0006 0 0 1 68.4131 103.813)" fill="#F4333B" font-family="'Helvetica'" font-size="8">Kan</text>
<text transform="matrix(1.0006 0 0 1 200.3096 103.27)" fill="#4965AD" font-family="'Helvetica'" font-size="8">Spec</text>
<text transform="matrix(1.0006 0 0 1 34.2578 8.002)" fill="#070606" font-family="'Helvetica'" font-size="10.084"> </text>
<g>
	<text transform="matrix(1.0006 0 0 1 219.8574 8.1841)" fill="#070606" font-family="'Helvetica'" font-size="8">4</text>
	<text transform="matrix(1.0006 0 0 1 215.4053 8.1841)" fill="#070606" font-family="'Helvetica'" font-size="8">L</text>
	<text transform="matrix(1.0006 0 0 1 213.1816 8.1841)" fill="#070606" font-family="'Helvetica'" font-size="8"> </text>
	<text transform="matrix(1.0006 0 0 1 210.958 8.1841)" fill="#070606" font-family="'Helvetica'" font-size="8">,</text>
	<text transform="matrix(1.0006 0 0 1 206.5059 8.1841)" fill="#070606" font-family="'Helvetica'" font-size="8">2</text>
	<text transform="matrix(1.0006 0 0 1 202.0537 8.1841)" fill="#070606" font-family="'Helvetica'" font-size="8">L</text>
	<text transform="matrix(1.0006 0 0 1 78.5435 8.1841)" fill="#070606" font-family="'Helvetica'" font-size="8">3</text>
	<text transform="matrix(1.0006 0 0 1 74.0913 8.1841)" fill="#070606" font-family="'Helvetica'" font-size="8">L</text>
	<text transform="matrix(1.0006 0 0 1 71.8677 8.1841)" fill="#070606" font-family="'Helvetica'" font-size="8"> </text>
	<text transform="matrix(1.0006 0 0 1 69.6436 8.1841)" fill="#070606" font-family="'Helvetica'" font-size="8">,</text>
	<text transform="matrix(1.0006 0 0 1 65.1914 8.1841)" fill="#070606" font-family="'Helvetica'" font-size="8">1</text>
	<text transform="matrix(1.0006 0 0 1 60.7397 8.1841)" fill="#070606" font-family="'Helvetica'" font-size="8">L</text>
</g>
<text transform="matrix(1.0006 0 0 1 180.7354 44.2524)" fill="#4965AD" font-family="'Helvetica'" font-size="8">pEven receivers</text>
<text transform="matrix(1.0006 0 0 1 48.3955 44.2529)" fill="#F4333B" font-family="'Helvetica'" font-size="8">pOdd receivers</text>
<g>
	<defs>
		<rect id="SVGID_1_" x="-5.221" y="-6.903" width="406.697" height="375.799"/>
	</defs>
	<clipPath id="SVGID_2_">
		<use xlink:href="#SVGID_1_"  overflow="visible"/>
	</clipPath>
	<path clip-path="url(#SVGID_2_)" fill="#010102" stroke="#010102" stroke-width="2.9699" stroke-miterlimit="10" d="
		M56.326,119.414c0.671,0.001,1.358,0.12,2.096,0.385c1.287,0.46,2.732,1.396,4.147,2.824c2.126,2.132,4.137,5.338,5.556,9.13
		c1.427,3.787,2.279,8.149,2.277,12.579h8c-0.013-8.239-2.342-16.057-6.109-22.089c-1.893-3.014-4.157-5.595-6.817-7.511
		c-1.33-0.955-2.765-1.741-4.301-2.292c-1.533-0.551-3.172-0.866-4.849-0.865V119.414"/>
	<path clip-path="url(#SVGID_2_)" fill="#FFFFFF" d="M186.146,107.814l0.759,3.513l-3.547,0.275
		c-0.276,0.021-0.482,0.261-0.46,0.537c0.021,0.275,0.261,0.481,0.537,0.46l4.119-0.319c0.144-0.011,0.275-0.084,0.361-0.199
		c0.087-0.116,0.119-0.263,0.088-0.404l-0.881-4.074c-0.058-0.27-0.323-0.441-0.594-0.383
		C186.26,107.278,186.087,107.544,186.146,107.814"/>
	<path clip-path="url(#SVGID_2_)" fill="#FFFFFF" d="M187.828,111.39l-7.415-5.461c-0.222-0.164-0.535-0.116-0.698,0.106
		c-0.164,0.222-0.116,0.535,0.105,0.699l7.415,5.461c0.223,0.163,0.536,0.116,0.699-0.105
		C188.099,111.867,188.052,111.554,187.828,111.39"/>
	<path clip-path="url(#SVGID_2_)" fill="#FFFFFF" d="M245.66,98.147l3.634-0.675l-0.011,3.653c-0.001,0.276,0.222,0.5,0.498,0.501
		s0.501-0.222,0.502-0.498l0.013-4.256c0-0.149-0.065-0.291-0.18-0.386c-0.114-0.095-0.266-0.135-0.412-0.107l-4.226,0.785
		c-0.272,0.05-0.451,0.311-0.401,0.583C245.128,98.018,245.39,98.197,245.66,98.147"/>
	<path clip-path="url(#SVGID_2_)" fill="#FFFFFF" d="M249.423,96.533l-6.174,7.482c-0.176,0.213-0.146,0.528,0.067,0.704
		c0.213,0.176,0.528,0.146,0.704-0.067l6.173-7.482c0.176-0.213,0.146-0.528-0.068-0.704
		C249.912,96.29,249.598,96.32,249.423,96.533"/>
	<path clip-path="url(#SVGID_2_)" fill="#FFFFFF" d="M165.638,46.517l-3.6,0.011l0.469-3.524c0.036-0.273-0.155-0.525-0.43-0.561
		c-0.272-0.037-0.524,0.156-0.561,0.429l-0.545,4.092c-0.02,0.144,0.023,0.288,0.119,0.396c0.096,0.109,0.232,0.171,0.378,0.17
		l4.172-0.013c0.275-0.001,0.499-0.226,0.498-0.502C166.138,46.739,165.913,46.516,165.638,46.517"/>
	<path clip-path="url(#SVGID_2_)" fill="#FFFFFF" d="M161.785,47.419l6.886-6.114c0.207-0.183,0.227-0.499,0.042-0.706
		c-0.183-0.206-0.499-0.225-0.704-0.042l-6.888,6.115c-0.207,0.183-0.225,0.499-0.042,0.705
		C161.263,47.584,161.578,47.603,161.785,47.419"/>
	<path clip-path="url(#SVGID_2_)" fill="#FFFFFF" d="M230.083,25.211l-0.873-3.488l3.538-0.39c0.274-0.03,0.473-0.277,0.442-0.552
		c-0.03-0.274-0.277-0.472-0.552-0.442l-4.107,0.453c-0.144,0.016-0.272,0.092-0.355,0.211s-0.11,0.267-0.074,0.407l1.012,4.044
		c0.067,0.267,0.339,0.43,0.607,0.363C229.988,25.75,230.15,25.479,230.083,25.211"/>
	<path clip-path="url(#SVGID_2_)" fill="#FFFFFF" d="M228.285,21.689l7.589,5.217c0.228,0.156,0.538,0.098,0.695-0.129
		c0.156-0.228,0.099-0.539-0.129-0.695l-7.589-5.217c-0.228-0.157-0.539-0.099-0.695,0.128
		C228,21.221,228.058,21.533,228.285,21.689"/>
	<path clip-path="url(#SVGID_2_)" fill="#FFFFFF" d="M103.91,110.415l-3.588-0.273l0.748-3.478c0.058-0.27-0.114-0.536-0.384-0.594
		c-0.27-0.058-0.536,0.114-0.594,0.384l-0.868,4.038c-0.031,0.141,0.001,0.288,0.088,0.404c0.087,0.116,0.218,0.188,0.363,0.199
		l4.159,0.317c0.275,0.021,0.515-0.186,0.536-0.461C104.391,110.676,104.186,110.436,103.91,110.415"/>
	<path clip-path="url(#SVGID_2_)" fill="#FFFFFF" d="M100,111.009l7.349-5.55c0.221-0.166,0.264-0.48,0.098-0.7
		c-0.166-0.221-0.48-0.264-0.7-0.098l-7.349,5.55c-0.221,0.167-0.264,0.48-0.098,0.701C99.465,111.132,99.779,111.176,100,111.009"
		/>
	<path clip-path="url(#SVGID_2_)" fill="#FFFFFF" d="M68.835,129.147l0.976-3.463l3.263,1.419c0.253,0.109,0.548-0.006,0.658-0.261
		c0.11-0.253-0.006-0.547-0.26-0.656l-3.787-1.647c-0.133-0.058-0.283-0.055-0.414,0.007c-0.131,0.062-0.227,0.178-0.267,0.316
		l-1.131,4.014c-0.075,0.266,0.08,0.542,0.346,0.617C68.484,129.567,68.761,129.413,68.835,129.147"/>
	<path clip-path="url(#SVGID_2_)" fill="#FFFFFF" d="M69.024,125.197l3.994,8.296c0.12,0.249,0.419,0.354,0.667,0.233
		c0.249-0.12,0.354-0.419,0.234-0.667l-3.994-8.295c-0.12-0.249-0.419-0.354-0.668-0.234
		C69.009,124.65,68.904,124.949,69.024,125.197"/>
	<path clip-path="url(#SVGID_2_)" fill="#FFFFFF" d="M29.795,92.422l1.069-3.433l3.224,1.506c0.25,0.116,0.548,0.008,0.665-0.242
		c0.116-0.25,0.008-0.548-0.242-0.665l-3.743-1.748c-0.131-0.061-0.281-0.062-0.414-0.004c-0.132,0.059-0.232,0.171-0.275,0.309
		l-1.239,3.98c-0.082,0.263,0.065,0.544,0.329,0.626C29.433,92.833,29.713,92.686,29.795,92.422"/>
	<path clip-path="url(#SVGID_2_)" fill="#FFFFFF" d="M30.091,88.479l3.768,8.402c0.113,0.252,0.409,0.365,0.661,0.252
		c0.252-0.113,0.364-0.409,0.251-0.661l-3.768-8.402c-0.113-0.252-0.409-0.364-0.661-0.252
		C30.09,87.932,29.979,88.227,30.091,88.479"/>
	<path clip-path="url(#SVGID_2_)" fill="#FFFFFF" d="M52.434,21.302l3.491,0.871l-1.322,3.301c-0.102,0.257,0.022,0.548,0.279,0.65
		c0.256,0.103,0.547-0.022,0.65-0.278l1.534-3.833c0.054-0.135,0.047-0.285-0.019-0.414s-0.184-0.222-0.324-0.257l-4.047-1.01
		c-0.268-0.067-0.539,0.097-0.606,0.364C52.003,20.964,52.167,21.236,52.434,21.302"/>
	<path clip-path="url(#SVGID_2_)" fill="#FFFFFF" d="M56.389,21.372l-8.178,4.237c-0.245,0.127-0.341,0.429-0.214,0.674
		c0.127,0.245,0.429,0.341,0.674,0.214l8.178-4.238c0.245-0.126,0.341-0.428,0.214-0.674C56.937,21.34,56.634,21.245,56.389,21.372"
		/>
</g>
<text transform="matrix(1.0006 0 0 1 31.1299 164.0547)" fill="#151011" font-family="'Helvetica'" font-size="6.9991">L0 parts</text>
<path fill="#FFFFFF" d="M97.169,164.492c0,4.46-3.617,8.073-8.078,8.073c-4.462,0-8.08-3.613-8.08-8.073
	c0-4.458,3.618-8.073,8.08-8.073C93.552,156.419,97.169,160.034,97.169,164.492"/>
<path fill="#070606" d="M97.169,164.492h-0.5c0,2.093-0.847,3.984-2.22,5.356c-1.373,1.37-3.264,2.218-5.358,2.218
	c-2.095,0-3.986-0.848-5.36-2.218c-1.372-1.372-2.22-3.264-2.22-5.356s0.848-3.982,2.22-5.355c1.374-1.371,3.265-2.218,5.36-2.218
	c2.094,0,3.985,0.847,5.358,2.218c1.373,1.373,2.22,3.263,2.22,5.355h1c0-4.735-3.841-8.573-8.578-8.573
	c-4.738,0-8.58,3.838-8.58,8.573c0,4.736,3.842,8.573,8.58,8.573c4.737,0,8.578-3.837,8.578-8.573H97.169"/>
<path fill="#070606" d="M87.319,156.382v0.5h4.002c0.132,0,0.26-0.053,0.354-0.147c0.093-0.093,0.146-0.221,0.146-0.353v-0.574
	c0.004-0.82-0.314-1.497-0.796-1.936c-0.48-0.442-1.099-0.655-1.705-0.656c-0.606,0.001-1.225,0.214-1.706,0.656
	c-0.481,0.438-0.799,1.115-0.795,1.936v0.574c0,0.132,0.053,0.26,0.146,0.353c0.094,0.095,0.222,0.147,0.354,0.147V156.382h0.5
	v-0.574c0.004-0.575,0.198-0.943,0.473-1.201c0.276-0.256,0.657-0.391,1.028-0.391c0.37,0,0.752,0.135,1.028,0.391
	c0.274,0.258,0.469,0.626,0.473,1.201v0.074h-3.502V156.382h0.5H87.319"/>
<path fill="#FFFFFF" d="M116.782,164.492c0,4.46-3.617,8.073-8.078,8.073c-4.463,0-8.08-3.613-8.08-8.073
	c0-4.458,3.617-8.073,8.08-8.073C113.166,156.419,116.782,160.034,116.782,164.492"/>
<path fill="#070606" d="M116.782,164.492h-0.5c0,2.093-0.848,3.984-2.22,5.356c-1.373,1.37-3.264,2.218-5.358,2.218
	c-2.095,0-3.987-0.848-5.36-2.218c-1.373-1.372-2.22-3.264-2.22-5.356s0.847-3.982,2.22-5.355c1.373-1.371,3.265-2.218,5.36-2.218
	c2.094,0,3.985,0.847,5.358,2.218c1.372,1.373,2.22,3.263,2.22,5.355h1c0-4.735-3.841-8.573-8.578-8.573
	c-4.739,0-8.58,3.838-8.58,8.573c0,4.736,3.841,8.573,8.58,8.573c4.737,0,8.578-3.837,8.578-8.573H116.782"/>
<polyline fill="#CDC9C1" points="104.327,159.382 109.839,159.382 114.537,157.383 109.839,155.382 104.327,155.382 
	104.327,159.382 "/>
<path fill="#070606" d="M104.327,159.382v0.5h5.512l0.196-0.04l4.698-1.999c0.184-0.079,0.304-0.259,0.304-0.46
	s-0.12-0.382-0.304-0.46l-4.698-2.001l-0.196-0.04h-5.512c-0.131,0-0.26,0.054-0.353,0.146c-0.093,0.094-0.147,0.223-0.147,0.354v4
	c0,0.132,0.054,0.26,0.147,0.353c0.093,0.095,0.222,0.147,0.353,0.147V159.382h0.5v-3.5h4.91l3.523,1.501l-3.523,1.499h-5.41
	V159.382h0.5H104.327"/>
<path fill="#FFFFFF" d="M195.235,164.493c0,4.459-3.616,8.072-8.077,8.072c-4.462,0-8.079-3.613-8.079-8.072
	s3.617-8.074,8.079-8.074C191.619,156.419,195.235,160.034,195.235,164.493"/>
<path fill="#070606" d="M195.235,164.493h-0.5c0,2.093-0.847,3.983-2.219,5.355c-1.373,1.37-3.265,2.218-5.358,2.218
	c-2.095,0-3.986-0.848-5.359-2.218c-1.372-1.372-2.22-3.263-2.22-5.355s0.848-3.983,2.22-5.355c1.373-1.372,3.265-2.219,5.359-2.219
	c2.094,0,3.985,0.847,5.358,2.219c1.372,1.372,2.219,3.262,2.219,5.355h1c0-4.736-3.84-8.574-8.577-8.574
	c-4.738,0-8.579,3.838-8.579,8.574c0,4.735,3.841,8.572,8.579,8.572c4.737,0,8.577-3.837,8.577-8.572H195.235"/>
<path fill="#070606" d="M187.871,155.882v-4.999c0-0.275-0.224-0.5-0.5-0.5c-0.275,0-0.5,0.225-0.5,0.5v4.999
	c0,0.277,0.225,0.5,0.5,0.5C187.647,156.382,187.871,156.159,187.871,155.882"/>
<path fill="#070606" d="M184.369,151.383h6.002c0.276,0,0.5-0.224,0.5-0.5c0-0.275-0.224-0.5-0.5-0.5h-6.002
	c-0.275,0-0.5,0.225-0.5,0.5C183.869,151.159,184.094,151.383,184.369,151.383"/>
<path fill="#FFFFFF" d="M156.05,164.492c0,4.459-3.619,8.073-8.083,8.073s-8.081-3.614-8.081-8.073c0-4.457,3.617-8.073,8.081-8.073
	S156.05,160.035,156.05,164.492"/>
<path fill="#070606" d="M156.05,164.492h-0.5c0,2.093-0.848,3.983-2.221,5.356c-1.374,1.37-3.267,2.218-5.362,2.218
	s-3.987-0.848-5.36-2.218c-1.373-1.373-2.221-3.264-2.221-5.356c0-2.092,0.848-3.982,2.221-5.354s3.265-2.219,5.36-2.219
	s3.988,0.847,5.362,2.219c1.373,1.372,2.221,3.263,2.221,5.354h1c0-4.734-3.844-8.573-8.583-8.573s-8.581,3.839-8.581,8.573
	c0,4.735,3.841,8.573,8.581,8.573s8.583-3.837,8.583-8.573H156.05"/>
<polyline fill="#534B4A" points="143.346,159.382 149.067,159.382 153.766,157.381 149.067,155.382 143.346,155.382 
	143.346,159.382 "/>
<path fill="#070606" d="M143.346,159.382v0.5h5.722l0.196-0.04l4.697-2.001c0.186-0.078,0.305-0.259,0.305-0.46
	c0-0.2-0.119-0.381-0.305-0.46l-4.697-1.999l-0.196-0.04h-5.722c-0.132,0-0.261,0.054-0.354,0.146
	c-0.093,0.094-0.146,0.223-0.146,0.354v4c0,0.132,0.054,0.26,0.146,0.353c0.093,0.095,0.222,0.147,0.354,0.147V159.382h0.5v-3.5
	h5.119l3.523,1.5l-3.523,1.5h-5.619V159.382h0.5H143.346"/>
<path fill="#FFFFFF" d="M136.395,164.492c0,4.459-3.617,8.073-8.079,8.073s-8.079-3.614-8.079-8.073
	c0-4.457,3.617-8.073,8.079-8.073S136.395,160.035,136.395,164.492"/>
<path fill="#070606" d="M136.395,164.492h-0.5c-0.001,2.093-0.848,3.983-2.22,5.356c-1.373,1.37-3.264,2.218-5.359,2.218
	c-2.095,0-3.986-0.848-5.359-2.218c-1.373-1.373-2.22-3.264-2.22-5.356c0-2.092,0.847-3.982,2.22-5.354
	c1.373-1.372,3.264-2.219,5.359-2.219c2.095,0,3.986,0.847,5.359,2.219c1.372,1.372,2.219,3.263,2.22,5.354h1
	c-0.001-4.734-3.841-8.573-8.579-8.573c-4.738,0-8.579,3.839-8.579,8.573c0,4.735,3.841,8.573,8.579,8.573
	c4.738,0,8.578-3.838,8.579-8.573H136.395"/>
<polyline fill="#FFFFFF" points="123.336,159.382 129.451,159.382 134.149,157.381 129.451,155.382 123.336,155.382 
	123.336,159.382 "/>
<path fill="#070606" d="M123.336,159.382v0.5h6.115l0.196-0.04l4.698-2.001c0.184-0.078,0.304-0.259,0.304-0.46
	c0-0.2-0.12-0.381-0.305-0.46l-4.697-1.999l-0.196-0.04h-6.115c-0.132,0-0.26,0.054-0.353,0.146
	c-0.094,0.094-0.147,0.223-0.147,0.354v4c0,0.132,0.053,0.26,0.147,0.353c0.093,0.095,0.221,0.147,0.353,0.147V159.382h0.5v-3.5
	h5.513l3.523,1.5l-3.523,1.5h-6.013V159.382h0.5H123.336"/>
<path fill="#FFFFFF" d="M77.65,164.771c0,4.304-3.492,7.791-7.797,7.791c-4.305,0-7.797-3.487-7.797-7.791
	c0-4.302,3.492-7.791,7.797-7.791C74.158,156.979,77.65,160.469,77.65,164.771"/>
<path fill="#070606" d="M77.65,164.771h-0.5c-0.001,2.016-0.816,3.835-2.138,5.155c-1.322,1.321-3.143,2.137-5.159,2.137
	c-2.016,0-3.837-0.815-5.159-2.137c-1.322-1.32-2.137-3.14-2.138-5.155c0.001-2.015,0.816-3.834,2.138-5.155
	c1.322-1.319,3.143-2.136,5.159-2.136c2.016,0,3.837,0.816,5.159,2.136c1.322,1.321,2.137,3.141,2.138,5.155h1
	c-0.001-4.579-3.716-8.291-8.297-8.291c-4.582,0-8.296,3.712-8.297,8.291c0.001,4.581,3.716,8.291,8.297,8.291
	c4.581,0,8.296-3.71,8.297-8.291H77.65"/>
<path fill="#070606" d="M73.538,150.305l1.157,1.02l-1.153,0.994c-0.209,0.181-0.232,0.496-0.052,0.705
	c0.181,0.209,0.496,0.232,0.705,0.053l1.587-1.369c0.109-0.094,0.172-0.23,0.173-0.376c0.001-0.144-0.06-0.282-0.169-0.377
	l-1.586-1.399c-0.207-0.183-0.523-0.163-0.706,0.045C73.312,149.807,73.331,150.122,73.538,150.305"/>
<path fill="#070606" d="M70.812,156.882v-4.999h4.002c0.276,0,0.5-0.224,0.5-0.5c0-0.275-0.224-0.5-0.5-0.5h-4.502
	c-0.131,0-0.26,0.054-0.353,0.146c-0.093,0.093-0.147,0.222-0.147,0.354v5.499c0,0.275,0.224,0.5,0.5,0.5
	C70.587,157.382,70.812,157.157,70.812,156.882"/>
<path fill="#FFFFFF" d="M175.983,164.447c0,4.484-3.637,8.118-8.123,8.118c-4.487,0-8.124-3.634-8.124-8.118
	c0-4.483,3.637-8.118,8.124-8.118C172.347,156.329,175.983,159.964,175.983,164.447"/>
<path fill="#070606" d="M175.983,164.447h-0.5c0,2.106-0.853,4.007-2.233,5.388c-1.381,1.379-3.283,2.231-5.39,2.231
	c-2.107,0-4.01-0.853-5.391-2.231c-1.382-1.381-2.233-3.281-2.233-5.388c0-2.105,0.852-4.007,2.233-5.387
	c1.381-1.38,3.283-2.231,5.391-2.231c2.106,0,4.009,0.852,5.39,2.231s2.233,3.281,2.233,5.387h1c0-4.761-3.861-8.618-8.623-8.618
	c-4.763,0-8.624,3.857-8.624,8.618s3.861,8.618,8.624,8.618c4.762,0,8.623-3.857,8.623-8.618H175.983"/>
<polyline fill="#100D0E" points="163.361,159.382 168.688,159.382 173.41,157.382 168.688,155.382 163.361,155.382 163.361,159.382 
	"/>
<path fill="#070606" d="M163.361,159.382v0.5h5.327l0.195-0.04l4.722-2c0.185-0.078,0.305-0.259,0.305-0.46s-0.12-0.382-0.305-0.461
	l-4.722-1.999l-0.195-0.04h-5.327c-0.132,0-0.26,0.054-0.354,0.146c-0.093,0.094-0.146,0.223-0.146,0.354v4
	c0,0.132,0.053,0.26,0.146,0.353c0.095,0.095,0.223,0.147,0.354,0.147V159.382h0.5v-3.5h4.726l3.54,1.5l-3.54,1.5h-5.226V159.382
	h0.5H163.361"/>
<path fill="#F4333B" d="M73.645,61.083h-0.5c-0.001,2.32-0.94,4.416-2.462,5.938c-1.522,1.521-3.62,2.46-5.943,2.46
	c-2.323,0-4.422-0.939-5.945-2.46c-1.522-1.522-2.462-3.618-2.462-5.938c0-2.322,0.94-4.419,2.462-5.941
	c1.523-1.52,3.622-2.459,5.945-2.46c2.323,0.001,4.42,0.94,5.943,2.46c1.522,1.522,2.461,3.619,2.462,5.941h1
	c-0.001-5.193-4.211-9.4-9.405-9.401c-5.195,0.001-9.406,4.208-9.407,9.401c0.001,5.19,4.212,9.398,9.407,9.398
	c5.194,0,9.404-4.208,9.405-9.398H73.645"/>
<text transform="matrix(1.0006 0 0 1 62.79 62.4038)" fill="#151011" font-family="'Helvetica'" font-size="7">1</text>
<path fill="#FC7143" d="M96.329,61.083h-0.5c0,2.32-0.94,4.416-2.462,5.938c-1.523,1.521-3.621,2.46-5.943,2.46
	c-2.324,0-4.422-0.939-5.944-2.46c-1.522-1.522-2.461-3.618-2.462-5.938c0.001-2.322,0.94-4.419,2.462-5.941
	c1.522-1.52,3.62-2.459,5.944-2.46c2.322,0.001,4.42,0.94,5.943,2.46c1.522,1.522,2.462,3.619,2.462,5.941h1
	c-0.001-5.193-4.211-9.4-9.405-9.401c-5.195,0.001-9.405,4.208-9.406,9.401c0.001,5.19,4.211,9.398,9.406,9.398
	c5.194,0,9.404-4.208,9.405-9.398H96.329"/>
<text transform="matrix(1.0006 0 0 1 85.4746 62.4038)" fill="#151011" font-family="'Helvetica'" font-size="7">2</text>
<path fill="#FDB938" d="M73.645,83.674h-0.5c-0.001,2.321-0.94,4.418-2.462,5.939c-1.523,1.521-3.62,2.461-5.943,2.461
	c-2.323,0-4.422-0.94-5.945-2.461c-1.522-1.521-2.462-3.618-2.462-5.939c0-2.321,0.94-4.417,2.462-5.939
	c1.523-1.521,3.622-2.46,5.945-2.46c2.323,0,4.42,0.939,5.943,2.46c1.522,1.522,2.461,3.618,2.462,5.939h1
	c-0.001-5.191-4.211-9.399-9.405-9.399c-5.195,0-9.406,4.208-9.407,9.399c0.001,5.191,4.212,9.4,9.407,9.4
	c5.194,0,9.404-4.209,9.405-9.4H73.645"/>
<text transform="matrix(1.0006 0 0 1 62.79 84.9961)" fill="#151011" font-family="'Helvetica'" font-size="7">3</text>
<path fill="#FCE364" d="M96.329,83.674h-0.5c0,2.321-0.94,4.418-2.462,5.939c-1.523,1.521-3.621,2.461-5.943,2.461
	c-2.324,0-4.422-0.94-5.944-2.461s-2.461-3.618-2.462-5.939c0.001-2.321,0.94-4.417,2.462-5.939c1.522-1.521,3.62-2.46,5.944-2.46
	c2.322,0,4.42,0.939,5.943,2.46c1.522,1.522,2.462,3.618,2.462,5.939h1c-0.001-5.191-4.211-9.399-9.405-9.399
	c-5.195,0-9.405,4.208-9.406,9.399c0.001,5.191,4.21,9.4,9.406,9.4c5.194,0,9.404-4.209,9.405-9.4H96.329"/>
<text transform="matrix(1.0006 0 0 1 85.4746 84.9961)" fill="#151011" font-family="'Helvetica'" font-size="7">4</text>
<path fill="#0F1A5D" d="M205.198,60.596h-0.5c0,2.321-0.939,4.418-2.461,5.94c-1.523,1.52-3.621,2.459-5.943,2.459
	s-4.422-0.939-5.943-2.459c-1.521-1.522-2.461-3.619-2.462-5.94c0.001-2.321,0.939-4.417,2.462-5.938
	c1.521-1.521,3.621-2.46,5.943-2.46s4.42,0.939,5.943,2.46c1.521,1.521,2.461,3.617,2.461,5.938h1c0-5.192-4.21-9.398-9.404-9.398
	c-5.193,0-9.404,4.206-9.405,9.398c0.001,5.193,4.212,9.399,9.405,9.399c5.194,0,9.404-4.206,9.404-9.399H205.198"/>
<text transform="matrix(1.0006 0 0 1 194.3486 61.918)" fill="#151011" font-family="'Helvetica'" font-size="7">1</text>
<path fill="#314992" d="M227.865,60.596h-0.5c0,2.321-0.939,4.418-2.462,5.94c-1.523,1.52-3.621,2.459-5.944,2.459
	c-2.322,0-4.421-0.939-5.942-2.459c-1.521-1.522-2.46-3.619-2.461-5.94c0.001-2.321,0.939-4.417,2.461-5.938s3.62-2.46,5.942-2.46
	c2.323,0,4.421,0.939,5.944,2.46c1.522,1.521,2.462,3.617,2.462,5.938h1c0-5.192-4.211-9.398-9.406-9.398
	c-5.193,0-9.402,4.207-9.403,9.398c0.001,5.192,4.21,9.399,9.403,9.399c5.195,0,9.406-4.206,9.406-9.399H227.865"/>
<text transform="matrix(1.0006 0 0 1 217.0166 61.9189)" fill="#151011" font-family="'Helvetica'" font-size="7">2</text>
<path fill="#8198BB" d="M205.198,83.328h-0.5c0,2.321-0.939,4.417-2.461,5.939c-1.523,1.521-3.621,2.46-5.943,2.46
	c-2.323,0-4.422-0.939-5.944-2.46c-1.521-1.522-2.46-3.618-2.461-5.939c0.001-2.321,0.939-4.418,2.461-5.939
	c1.522-1.521,3.621-2.46,5.944-2.461c2.322,0.001,4.42,0.94,5.942,2.461s2.462,3.618,2.462,5.939h1c0-5.192-4.21-9.399-9.404-9.4
	c-5.195,0.001-9.404,4.208-9.405,9.4c0.001,5.191,4.21,9.399,9.405,9.399c5.194,0,9.404-4.208,9.404-9.399H205.198"/>
<text transform="matrix(1.0006 0 0 1 194.3486 84.6499)" fill="#151011" font-family="'Helvetica'" font-size="7">3</text>
<path fill="#C3DAE9" d="M227.865,83.328h-0.5c0,2.321-0.939,4.417-2.462,5.939c-1.523,1.521-3.621,2.46-5.944,2.46
	c-2.322,0-4.421-0.939-5.942-2.46c-1.521-1.522-2.46-3.618-2.461-5.939c0.001-2.321,0.939-4.418,2.461-5.939s3.62-2.46,5.942-2.461
	c2.323,0.001,4.421,0.94,5.944,2.461c1.522,1.521,2.462,3.618,2.462,5.939h1c-0.001-5.192-4.211-9.399-9.406-9.4
	c-5.194,0.001-9.402,4.209-9.403,9.4c0.001,5.191,4.209,9.399,9.403,9.399c5.195,0,9.405-4.208,9.406-9.399H227.865"/>
<text transform="matrix(1.0006 0 0 1 217.0166 84.6489)" fill="#151011" font-family="'Helvetica'" font-size="7">4</text>
<text transform="matrix(1.0006 0 0 1 197.7207 156.3818)" fill="#151011" font-family="'Helvetica'" font-size="6.9991">PhytoBricks</text>
<text transform="matrix(1.0006 0 0 1 197.7207 164.7803)" fill="#151011" font-family="'Helvetica'" font-size="6.9991">MoClo parts</text>
<text transform="matrix(1.0006 0 0 1 197.7207 173.1797)" fill="#151011" font-family="'Helvetica'" font-size="6.9991">GoldenBraid parts</text>
<path fill="#F4333B" d="M44.535,67.931c0,7.405-5.375,13.831-12.128,13.831H14.268c-6.752,0-12.323-6.426-12.323-13.831v-3.93
	c0-7.403,5.571-12.98,12.323-12.98h18.139c6.753,0,12.128,5.577,12.128,12.98V67.931"/>
<text transform="matrix(1.0006 0 0 1 9.3857 70.728)" fill="#FFFFFF" font-family="'HelveticaNeue-CondensedBold'" font-size="15.9568">BsaI</text>
<path fill="#4965AD" d="M279.97,69.057c0,7.405-5.353,13.888-12.104,13.888h-18.139c-6.752,0-12.348-6.483-12.348-13.888v-3.928
	c0-7.405,5.596-12.926,12.348-12.926h18.139c6.752,0,12.104,5.521,12.104,12.926V69.057"/>
<text transform="matrix(1.0006 0 0 1 244.8418 71.854)" fill="#FFFFFF" font-family="'HelveticaNeue-CondensedBold'" font-size="15.9568">SapI</text>
<path fill="#070606" d="M257.403,167.542h-0.5c0.001,3.007-1.11,5.851-2.968,7.933c-1.86,2.082-4.449,3.402-7.451,3.403H36.708
	c-3.003,0-5.727-1.327-7.71-3.414c-1.982-2.088-3.208-4.929-3.207-7.922v-10.821c0-2.993,1.22-5.698,3.196-7.661
	c1.977-1.962,4.704-3.176,7.721-3.177h209.777c6.02,0.006,10.408,4.822,10.419,10.838v10.821h1v-10.821
	c0-3.254-1.2-6.213-3.232-8.359c-2.029-2.148-4.898-3.479-8.187-3.479H36.708c-3.288,0-6.27,1.325-8.425,3.468
	c-2.156,2.14-3.492,5.103-3.492,8.37v10.821c0.001,3.269,1.332,6.345,3.481,8.609c2.149,2.266,5.133,3.727,8.436,3.727h209.777
	c3.303,0.001,6.174-1.466,8.197-3.737c2.024-2.271,3.221-5.346,3.222-8.599H257.403"/>
<path fill="#FFFFFF" stroke="#FFFFFF" stroke-miterlimit="10" d="M133.946,68.189c0.729,0.25,8.062,9.938,8.875,11.875"/>
<path fill="none" stroke="#FFFFFF" stroke-miterlimit="10" d="M141.863,55.188c4.166,6.917,3.791,8.042,10.623,14.958"/>
<g>
	<path fill="#FFFFFF" d="M128.683,46.65l0.137,3.592l-3.541-0.345c-0.275-0.027-0.52,0.173-0.546,0.449
		c-0.027,0.274,0.173,0.519,0.449,0.546l4.112,0.401c0.144,0.015,0.286-0.035,0.391-0.134c0.106-0.099,0.163-0.238,0.157-0.383
		l-0.16-4.165c-0.01-0.276-0.242-0.49-0.518-0.48C128.888,46.142,128.671,46.375,128.683,46.65"/>
	<path fill="#FFFFFF" d="M129.718,50.465l-6.354-6.666c-0.189-0.2-0.507-0.207-0.706-0.017c-0.2,0.189-0.208,0.506-0.018,0.706
		l6.354,6.667c0.191,0.199,0.507,0.208,0.707,0.017C129.902,50.981,129.91,50.665,129.718,50.465"/>
</g>
</svg>
