<?xml version="1.0" encoding="utf-8"?>
<!-- Generator: Adobe Illustrator 16.0.4, SVG Export Plug-In . SVG Version: 6.00 Build 0)  -->
<!DOCTYPE svg PUBLIC "-//W3C//DTD SVG 1.1//EN" "http://www.w3.org/Graphics/SVG/1.1/DTD/svg11.dtd">
<svg version="1.1" id="Layer_1" xmlns="http://www.w3.org/2000/svg" xmlns:xlink="http://www.w3.org/1999/xlink" x="0px" y="0px"
	 width="800px" height="143.766px" viewBox="0 0 800 143.766" enable-background="new 0 0 800 143.766" xml:space="preserve">
<g>
	<text transform="matrix(1 0 0 1 482.5615 113.874)"><tspan x="0" y="0" fill="#4965AD" font-family="'Symbol'" font-size="12.1508" letter-spacing="48">α</tspan><tspan x="55.94" y="0" fill="#4965AD" font-family="'Symbol'" font-size="12.1508">ω</tspan></text>
	<text transform="matrix(1 0 0 1 240.5845 113.8682)"><tspan x="0" y="0" fill="#4965AD" font-family="'Symbol'" font-size="12.1508" letter-spacing="48">α</tspan><tspan x="55.94" y="0" fill="#4965AD" font-family="'Symbol'" font-size="12.1508">ω</tspan></text>
	<text transform="matrix(1 0 0 1 482.5615 51.3384)"><tspan x="0" y="0" fill="#F3333A" font-family="'Helvetica'" font-size="10.4149" letter-spacing="49">A</tspan><tspan x="56.168" y="0" fill="#F3333A" font-family="'Helvetica'" font-size="10.4149">F</tspan></text>
	<text transform="matrix(1 0 0 1 361.8423 51.3403)"><tspan x="0" y="0" fill="#F3333A" font-family="'Helvetica'" font-size="10.4149" letter-spacing="49">A</tspan><tspan x="56.084" y="0" fill="#F3333A" font-family="'Helvetica'" font-size="10.4149">F</tspan></text>
	<text transform="matrix(1 0 0 1 240.8726 51.3384)"><tspan x="0" y="0" fill="#F3333A" font-family="'Helvetica'" font-size="10.4149" letter-spacing="49">A</tspan><tspan x="56.292" y="0" fill="#F3333A" font-family="'Helvetica'" font-size="10.4149">F</tspan></text>
	<text transform="matrix(1 0 0 1 119.0708 51.3403)"><tspan x="0" y="0" fill="#F3333A" font-family="'Helvetica'" font-size="10.4149" letter-spacing="49">A</tspan><tspan x="56.417" y="0" fill="#F3333A" font-family="'Helvetica'" font-size="10.4149">F</tspan></text>
	<text transform="matrix(1 0 0 1 5.6274 43.7847)" fill="#F4333B" font-family="'Helvetica'" font-size="12.1508">pOdd receivers</text>
	<text transform="matrix(1 0 0 1 27.5801 58.3638)" fill="#F4333B" font-family="'Helvetica'" font-size="12.1508">(KanR)</text>
	<text transform="matrix(1 0 0 1 3.2642 107.8506)" fill="#4965AD" font-family="'Helvetica'" font-size="12.1508">pEven receivers</text>
	<text transform="matrix(1 0 0 1 24.543 122.4326)" fill="#4965AD" font-family="'Helvetica'" font-size="12.1508">(SpecR)</text>
	<text transform="matrix(1 0 0 1 131.3628 118.6143)" fill="#151011" font-family="'Helvetica'" font-size="10.4149">pEven-1</text>
	<text transform="matrix(1 0 0 1 111.8521 91.4751)"><tspan x="0" y="0" fill="#F3333A" font-family="'Helvetica'" font-size="10.4149" letter-spacing="64">A</tspan><tspan x="71.811" y="0" fill="#F3333A" font-family="'Helvetica'" font-size="10.4149">B</tspan></text>
	<path fill="none" stroke="#0D1B5C" stroke-width="1.7358" d="M205.897,120.161c0,4.521-3.369,8.188-7.52,8.188h-94.657
		c-4.152,0-7.52-3.666-7.52-8.188v-12.403c0-4.521,3.367-8.188,7.52-8.188h94.657c4.15,0,7.52,3.668,7.52,8.188V120.161z"/>
	<polyline fill="#C3E3D2" points="140.158,104.514 151.649,104.514 161.153,99.593 151.649,94.672 140.158,94.672 140.158,104.514 	
		"/>
	<polygon fill="none" stroke="#070606" stroke-width="1.7358" stroke-linecap="square" points="140.158,104.514 151.649,104.514 
		161.153,99.593 151.649,94.672 140.158,94.672 	"/>
	<polyline fill="#EE333A" points="101.566,95.462 101.578,103.525 114.19,99.474 101.566,95.462 	"/>
	<path fill="#070606" d="M100.698,95.462c0.005,2.687,0.008,5.375,0.013,8.063c0,0.546,0.557,1.011,1.098,0.837
		c4.204-1.351,8.408-2.701,12.612-4.051c0.825-0.267,0.829-1.41,0-1.673c-4.207-1.34-8.416-2.675-12.624-4.013
		c-1.069-0.343-1.523,1.336-0.461,1.672c4.207,1.339,8.416,2.675,12.624,4.014c0-0.56,0-1.115,0-1.673
		c-4.204,1.348-8.408,2.7-12.612,4.051c0.366,0.28,0.732,0.558,1.099,0.836c-0.004-2.688-0.008-5.377-0.012-8.063
		C102.433,94.341,100.697,94.341,100.698,95.462"/>
	<path fill="#F3323A" d="M117.806,99.494c0,1.661-1.346,3.007-3.007,3.007s-3.007-1.346-3.007-3.007s1.346-3.007,3.007-3.007
		S117.806,97.833,117.806,99.494"/>
	<circle fill="none" stroke="#070606" stroke-width="1.7358" stroke-miterlimit="10" cx="114.799" cy="99.494" r="3.007"/>
	<polyline fill="#EE333A" points="199.973,95.562 199.949,103.624 187.344,99.556 199.973,95.562 	"/>
	<path fill="#070606" d="M199.105,95.562c-0.009,2.688-0.018,5.374-0.024,8.062c0.366-0.278,0.732-0.558,1.099-0.838
		c-4.202-1.355-8.402-2.712-12.605-4.066c0,0.558,0,1.113,0,1.673c4.209-1.332,8.42-2.663,12.63-3.993
		c1.062-0.338,0.609-2.014-0.462-1.675c-4.209,1.332-8.421,2.661-12.628,3.995c-0.831,0.263-0.824,1.408,0,1.673
		c4.201,1.356,8.401,2.712,12.604,4.066c0.543,0.175,1.098-0.291,1.1-0.835c0.007-2.688,0.015-5.374,0.023-8.062
		C200.845,94.443,199.109,94.443,199.105,95.562"/>
	<path fill="#FC7243" d="M190.115,99.593c0,1.661-1.345,3.007-3.006,3.007s-3.008-1.346-3.008-3.007s1.347-3.007,3.008-3.007
		S190.115,97.932,190.115,99.593"/>
	<circle fill="none" stroke="#070606" stroke-width="1.7358" stroke-miterlimit="10" cx="187.108" cy="99.593" r="3.007"/>
	<polyline fill="#4B63AC" points="135.557,95.439 135.586,103.502 122.953,99.515 135.557,95.439 	"/>
	<path fill="#070606" d="M134.688,95.439c0.012,2.688,0.021,5.375,0.03,8.062c0.366-0.28,0.732-0.557,1.099-0.838
		c-4.211-1.329-8.422-2.658-12.635-3.987c0,0.56,0,1.116,0,1.676c4.202-1.36,8.404-2.718,12.605-4.077
		c1.061-0.341,0.606-2.019-0.46-1.673c-4.202,1.359-8.405,2.719-12.606,4.074c-0.822,0.267-0.831,1.412,0,1.676
		c4.212,1.328,8.423,2.656,12.634,3.986c0.54,0.17,1.101-0.288,1.099-0.837c-0.008-2.688-0.019-5.374-0.029-8.062
		C136.421,94.321,134.686,94.321,134.688,95.439"/>
	<path fill="#0D1B5C" d="M119.945,99.471c0,1.661,1.347,3.007,3.008,3.007s3.007-1.346,3.007-3.007s-1.346-3.007-3.007-3.007
		S119.945,97.81,119.945,99.471"/>
	<circle fill="none" stroke="#070606" stroke-width="1.7358" stroke-miterlimit="10" cx="122.953" cy="99.471" r="3.007"/>
	<polyline fill="#4B63AC" points="166.306,95.562 166.315,103.624 178.931,99.572 166.306,95.562 	"/>
	<path fill="#070606" d="M165.438,95.562c0.004,2.688,0.007,5.374,0.011,8.062c0.001,0.546,0.557,1.01,1.099,0.835
		c4.203-1.348,8.41-2.698,12.614-4.05c0.824-0.264,0.828-1.408,0-1.673c-4.208-1.337-8.418-2.675-12.625-4.012
		c-1.069-0.339-1.523,1.336-0.462,1.675c4.207,1.335,8.417,2.675,12.625,4.01c0-0.556,0-1.113,0-1.673
		c-4.204,1.352-8.41,2.7-12.614,4.05c0.366,0.28,0.732,0.56,1.099,0.838c-0.003-2.688-0.007-5.374-0.01-8.062
		C167.171,94.443,165.436,94.443,165.438,95.562"/>
	<path fill="#9ED8AF" d="M175.92,99.593c0,1.661,1.348,3.007,3.009,3.007c1.66,0,3.006-1.346,3.006-3.007s-1.346-3.007-3.006-3.007
		C177.268,96.586,175.92,97.932,175.92,99.593"/>
	<circle fill="none" stroke="#070606" stroke-width="1.7358" stroke-miterlimit="10" cx="178.927" cy="99.593" r="3.007"/>
	<text transform="matrix(1 0 0 1 119.5415 113.958)"><tspan x="0" y="0" fill="#4965AD" font-family="'Symbol'" font-size="12.1508" letter-spacing="47">α</tspan><tspan x="55.369" y="0" fill="#4965AD" font-family="'Symbol'" font-size="12.1508">ω</tspan></text>
	<text transform="matrix(1 0 0 1 252.3081 118.6143)" fill="#151011" font-family="'Helvetica'" font-size="10.4149">pEven-2</text>
	<text transform="matrix(1 0 0 1 232.7974 91.4751)"><tspan x="0" y="0" fill="#F3333A" font-family="'Helvetica'" font-size="10.4149" letter-spacing="64">B</tspan><tspan x="71.811" y="0" fill="#F3333A" font-family="'Helvetica'" font-size="10.4149">C</tspan></text>
	<path fill="none" stroke="#314892" stroke-width="1.7358" d="M326.843,120.161c0,4.521-3.368,8.188-7.52,8.188h-94.658
		c-4.152,0-7.52-3.666-7.52-8.188v-12.403c0-4.521,3.367-8.188,7.52-8.188h94.658c4.151,0,7.52,3.668,7.52,8.188V120.161z"/>
	<polyline fill="#C3E3D2" points="261.104,104.514 272.596,104.514 282.097,99.593 272.596,94.672 261.104,94.672 261.104,104.514 	
		"/>
	<polygon fill="none" stroke="#070606" stroke-width="1.7358" stroke-linecap="square" points="261.104,104.514 272.596,104.514 
		282.097,99.593 272.596,94.672 261.104,94.672 	"/>
	<polyline fill="#EE333A" points="222.512,95.462 222.521,103.525 235.135,99.474 222.512,95.462 	"/>
	<path fill="#070606" d="M221.644,95.462c0.004,2.687,0.007,5.375,0.01,8.063c0.002,0.546,0.558,1.011,1.099,0.837
		c4.205-1.351,8.409-2.701,12.613-4.051c0.826-0.267,0.828-1.41,0-1.673c-4.208-1.34-8.416-2.675-12.625-4.013
		c-1.069-0.343-1.522,1.336-0.46,1.672c4.208,1.339,8.415,2.675,12.623,4.014c0-0.56,0-1.115,0-1.673
		c-4.204,1.348-8.406,2.7-12.61,4.051c0.366,0.28,0.732,0.558,1.097,0.836c-0.004-2.688-0.007-5.377-0.01-8.063
		C223.378,94.341,221.642,94.341,221.644,95.462"/>
	<path fill="#FC7243" d="M238.75,99.494c0,1.661-1.345,3.007-3.006,3.007s-3.009-1.346-3.009-3.007s1.348-3.007,3.009-3.007
		S238.75,97.833,238.75,99.494"/>
	<circle fill="none" stroke="#070606" stroke-width="1.7358" stroke-miterlimit="10" cx="235.743" cy="99.494" r="3.007"/>
	<polyline fill="#EE333A" points="320.917,95.562 320.893,103.624 308.289,99.556 320.917,95.562 	"/>
	<path fill="#070606" d="M320.049,95.562c-0.007,2.688-0.016,5.374-0.024,8.062c0.366-0.278,0.732-0.558,1.1-0.838
		c-4.201-1.355-8.404-2.712-12.606-4.066c0,0.558,0,1.113,0,1.673c4.211-1.332,8.421-2.663,12.63-3.993
		c1.064-0.338,0.609-2.014-0.462-1.675c-4.209,1.332-8.418,2.661-12.628,3.995c-0.831,0.263-0.824,1.408,0,1.673
		c4.2,1.356,8.403,2.712,12.606,4.066c0.541,0.175,1.095-0.291,1.097-0.835c0.008-2.688,0.018-5.374,0.024-8.062
		C321.788,94.443,320.053,94.443,320.049,95.562"/>
	<path fill="#FCB836" d="M311.059,99.593c0,1.661-1.345,3.007-3.006,3.007s-3.008-1.346-3.008-3.007s1.347-3.007,3.008-3.007
		S311.059,97.932,311.059,99.593"/>
	<circle fill="none" stroke="#070606" stroke-width="1.7358" stroke-miterlimit="10" cx="308.052" cy="99.593" r="3.007"/>
	<polyline fill="#4B63AC" points="256.503,95.439 256.529,103.502 243.896,99.515 256.503,95.439 	"/>
	<path fill="#070606" d="M255.635,95.439c0.008,2.688,0.019,5.375,0.027,8.062c0.366-0.28,0.732-0.557,1.099-0.838
		c-4.211-1.329-8.42-2.658-12.634-3.987c0,0.56,0,1.116,0,1.676c4.203-1.36,8.404-2.718,12.604-4.077
		c1.061-0.341,0.607-2.019-0.46-1.673c-4.202,1.359-8.403,2.719-12.604,4.074c-0.823,0.267-0.832,1.412,0,1.676
		c4.209,1.328,8.42,2.656,12.631,3.986c0.542,0.17,1.101-0.288,1.099-0.837c-0.009-2.688-0.019-5.374-0.027-8.062
		C257.365,94.321,255.63,94.321,255.635,95.439"/>
	<path fill="#0D1B5C" d="M240.891,99.471c0,1.661,1.345,3.007,3.006,3.007s3.008-1.346,3.008-3.007s-1.347-3.007-3.008-3.007
		S240.891,97.81,240.891,99.471"/>
	<circle fill="none" stroke="#070606" stroke-width="1.7358" stroke-miterlimit="10" cx="243.897" cy="99.471" r="3.007"/>
	<polyline fill="#4B63AC" points="287.251,95.562 287.261,103.624 299.873,99.572 287.251,95.562 	"/>
	<path fill="#070606" d="M286.383,95.562c0.003,2.688,0.007,5.374,0.01,8.062c0,0.546,0.558,1.01,1.1,0.835
		c4.204-1.348,8.408-2.698,12.612-4.05c0.824-0.264,0.828-1.408,0-1.673c-4.208-1.337-8.415-2.675-12.623-4.012
		c-1.069-0.339-1.524,1.336-0.461,1.675c4.207,1.335,8.414,2.675,12.622,4.01c0-0.556,0-1.113,0-1.673
		c-4.204,1.352-8.408,2.7-12.612,4.05c0.366,0.28,0.732,0.56,1.099,0.838c-0.004-2.688-0.007-5.374-0.011-8.062
		C288.117,94.443,286.381,94.443,286.383,95.562"/>
	<path fill="#9ED8AF" d="M296.865,99.593c0,1.661,1.346,3.007,3.008,3.007s3.007-1.346,3.007-3.007s-1.345-3.007-3.007-3.007
		S296.865,97.932,296.865,99.593"/>
	<circle fill="none" stroke="#070606" stroke-width="1.7358" stroke-miterlimit="10" cx="299.873" cy="99.593" r="3.007"/>
	<text transform="matrix(1 0 0 1 373.2515 118.6143)" fill="#151011" font-family="'Helvetica'" font-size="10.4149">pEven-3</text>
	<text transform="matrix(1 0 0 1 352.8765 91.4751)"><tspan x="0" y="0" fill="#F3333A" font-family="'Helvetica'" font-size="10.4149" letter-spacing="65">C</tspan><tspan x="72.677" y="0" fill="#F3333A" font-family="'Helvetica'" font-size="10.4149">E</tspan></text>
	<path fill="none" stroke="#7E96B8" stroke-width="1.7358" d="M447.784,120.161c0,4.521-3.366,8.188-7.517,8.188h-94.656
		c-4.152,0-7.52-3.666-7.52-8.188v-12.403c0-4.521,3.367-8.188,7.52-8.188h94.656c4.15,0,7.517,3.668,7.517,8.188V120.161z"/>
	<polyline fill="#C3E3D2" points="382.047,104.514 393.538,104.514 403.043,99.593 393.538,94.672 382.047,94.672 382.047,104.514 	
		"/>
	<polygon fill="none" stroke="#070606" stroke-width="1.7358" stroke-linecap="square" points="382.047,104.514 393.538,104.514 
		403.043,99.593 393.538,94.672 382.047,94.672 	"/>
	<polyline fill="#EE333A" points="343.455,95.462 343.467,103.525 356.079,99.474 343.455,95.462 	"/>
	<path fill="#070606" d="M342.587,95.462c0.005,2.687,0.009,5.375,0.012,8.063c0.002,0.546,0.558,1.011,1.1,0.837
		c4.204-1.351,8.407-2.701,12.612-4.051c0.824-0.267,0.827-1.41,0-1.673c-4.208-1.34-8.415-2.675-12.625-4.013
		c-1.069-0.343-1.524,1.336-0.46,1.672c4.206,1.339,8.415,2.675,12.623,4.014c0-0.56,0-1.115,0-1.673
		c-4.204,1.348-8.408,2.7-12.612,4.051c0.366,0.28,0.732,0.558,1.099,0.836c-0.004-2.688-0.007-5.377-0.013-8.063
		C344.321,94.341,342.585,94.341,342.587,95.462"/>
	<path fill="#FAB735" d="M359.695,99.494c0,1.661-1.346,3.007-3.008,3.007s-3.007-1.346-3.007-3.007s1.345-3.007,3.007-3.007
		S359.695,97.833,359.695,99.494"/>
	<circle fill="none" stroke="#070606" stroke-width="1.7358" stroke-miterlimit="10" cx="356.688" cy="99.494" r="3.007"/>
	<polyline fill="#EE333A" points="441.861,95.562 441.838,103.624 429.232,99.556 441.861,95.562 	"/>
	<path fill="#070606" d="M440.993,95.562c-0.01,2.688-0.015,5.374-0.023,8.062c0.366-0.278,0.732-0.558,1.099-0.838
		c-4.202-1.355-8.403-2.712-12.605-4.066c0,0.558,0,1.113,0,1.673c4.209-1.332,8.42-2.663,12.629-3.993
		c1.062-0.338,0.608-2.014-0.461-1.675c-4.209,1.332-8.42,2.661-12.629,3.995c-0.831,0.263-0.824,1.408,0,1.673
		c4.202,1.356,8.403,2.712,12.605,4.066c0.542,0.175,1.097-0.291,1.098-0.835c0.009-2.688,0.014-5.374,0.024-8.062
		C442.732,94.443,440.997,94.443,440.993,95.562"/>
	<path fill="#FAE363" d="M432.006,99.593c0,1.661-1.346,3.007-3.007,3.007c-1.662,0-3.008-1.346-3.008-3.007
		s1.346-3.007,3.008-3.007C430.66,96.586,432.006,97.932,432.006,99.593"/>
	<circle fill="none" stroke="#070606" stroke-width="1.7358" stroke-miterlimit="10" cx="428.999" cy="99.593" r="3.007"/>
	<polyline fill="#4B63AC" points="377.445,95.439 377.476,103.502 364.843,99.515 377.445,95.439 	"/>
	<path fill="#070606" d="M376.578,95.439c0.01,2.688,0.021,5.375,0.029,8.062c0.366-0.28,0.732-0.557,1.099-0.838
		c-4.211-1.329-8.423-2.658-12.633-3.987c0,0.56,0,1.116,0,1.676c4.2-1.36,8.402-2.718,12.604-4.077
		c1.061-0.341,0.607-2.019-0.46-1.673c-4.202,1.359-8.403,2.719-12.605,4.074c-0.823,0.267-0.832,1.412,0,1.676
		c4.211,1.328,8.422,2.656,12.633,3.986c0.54,0.17,1.101-0.288,1.1-0.837c-0.009-2.688-0.02-5.374-0.03-8.062
		C378.311,94.321,376.574,94.321,376.578,95.439"/>
	<path fill="#0D1B5C" d="M361.835,99.471c0,1.661,1.346,3.007,3.008,3.007c1.66,0,3.008-1.346,3.008-3.007s-1.348-3.007-3.008-3.007
		C363.181,96.464,361.835,97.81,361.835,99.471"/>
	<circle fill="none" stroke="#070606" stroke-width="1.7358" stroke-miterlimit="10" cx="364.843" cy="99.471" r="3.008"/>
	<polyline fill="#4B63AC" points="408.196,95.562 408.206,103.624 420.817,99.572 408.196,95.562 	"/>
	<path fill="#070606" d="M407.328,95.562c0.003,2.688,0.007,5.374,0.01,8.062c0,0.546,0.557,1.01,1.099,0.835
		c4.204-1.348,8.408-2.698,12.612-4.05c0.825-0.264,0.828-1.408,0-1.673c-4.208-1.337-8.415-2.675-12.622-4.012
		c-1.07-0.339-1.524,1.336-0.462,1.675c4.208,1.335,8.415,2.675,12.622,4.01c0-0.556,0-1.113,0-1.673
		c-4.203,1.352-8.407,2.7-12.611,4.05c0.366,0.28,0.732,0.56,1.099,0.838c-0.004-2.688-0.007-5.374-0.011-8.062
		C409.062,94.443,407.326,94.443,407.328,95.562"/>
	<path fill="#9ED8AF" d="M417.811,99.593c0,1.661,1.346,3.007,3.007,3.007c1.662,0,3.008-1.346,3.008-3.007
		s-1.346-3.007-3.008-3.007C419.156,96.586,417.811,97.932,417.811,99.593"/>
	<circle fill="none" stroke="#070606" stroke-width="1.7358" stroke-miterlimit="10" cx="420.818" cy="99.593" r="3.007"/>
	<text transform="matrix(1 0 0 1 361.5522 113.8643)"><tspan x="0" y="0" fill="#4965AD" font-family="'Symbol'" font-size="12.1508" letter-spacing="48">α</tspan><tspan x="55.941" y="0" fill="#4965AD" font-family="'Symbol'" font-size="12.1508">ω</tspan></text>
	<text transform="matrix(1 0 0 1 494.1943 118.6143)" fill="#151011" font-family="'Helvetica'" font-size="10.4149">pEven-4</text>
	<text transform="matrix(1 0 0 1 474.6846 91.4751)"><tspan x="0" y="0" fill="#F3333A" font-family="'Helvetica'" font-size="10.4149" letter-spacing="64">E</tspan><tspan x="71.811" y="0" fill="#F3333A" font-family="'Helvetica'" font-size="10.4149">F</tspan></text>
	<path fill="none" stroke="#C3DAE5" stroke-width="1.7358" d="M568.729,120.161c0,4.521-3.367,8.188-7.521,8.188h-94.656
		c-4.153,0-7.52-3.666-7.52-8.188v-12.403c0-4.521,3.366-8.188,7.52-8.188h94.656c4.153,0,7.521,3.668,7.521,8.188V120.161z"/>
	<polyline fill="#C3E3D2" points="502.991,104.514 514.481,104.514 523.984,99.593 514.481,94.672 502.991,94.672 502.991,104.514 	
		"/>
	<polygon fill="none" stroke="#070606" stroke-width="1.7358" stroke-linecap="square" points="502.991,104.514 514.481,104.514 
		523.984,99.593 514.481,94.672 502.991,94.672 	"/>
	<polyline fill="#EE333A" points="464.399,95.462 464.41,103.525 477.021,99.474 464.399,95.462 	"/>
	<path fill="#070606" d="M463.532,95.462c0.003,2.687,0.007,5.375,0.01,8.063c0,0.546,0.557,1.011,1.099,0.837
		c4.204-1.351,8.408-2.701,12.612-4.051c0.825-0.267,0.828-1.41,0-1.673c-4.208-1.34-8.415-2.675-12.622-4.013
		c-1.07-0.343-1.524,1.336-0.462,1.672c4.208,1.339,8.415,2.675,12.622,4.014c0-0.56,0-1.115,0-1.673
		c-4.203,1.348-8.407,2.7-12.611,4.051c0.366,0.28,0.732,0.558,1.099,0.836c-0.004-2.688-0.007-5.377-0.011-8.063
		C465.267,94.341,463.53,94.341,463.532,95.462"/>
	<path fill="#F9E162" d="M480.64,99.494c0,1.661-1.347,3.007-3.008,3.007s-3.007-1.346-3.007-3.007s1.346-3.007,3.007-3.007
		S480.64,97.833,480.64,99.494"/>
	<circle fill="none" stroke="#070606" stroke-width="1.7358" stroke-miterlimit="10" cx="477.632" cy="99.494" r="3.007"/>
	<polyline fill="#EE333A" points="562.807,95.562 562.782,103.624 550.178,99.556 562.807,95.562 	"/>
	<path fill="#070606" d="M561.938,95.562c-0.009,2.688-0.016,5.374-0.023,8.062c0.365-0.278,0.731-0.558,1.098-0.838
		c-4.202-1.355-8.402-2.712-12.604-4.066c0,0.558,0,1.113,0,1.673c4.209-1.332,8.42-2.663,12.629-3.993
		c1.062-0.338,0.61-2.014-0.462-1.675c-4.207,1.332-8.419,2.661-12.628,3.995c-0.831,0.263-0.824,1.408,0,1.673
		c4.202,1.356,8.402,2.712,12.604,4.066c0.543,0.175,1.096-0.291,1.099-0.835c0.009-2.688,0.016-5.374,0.023-8.062
		C563.678,94.443,561.941,94.443,561.938,95.562"/>
	<path fill="#F1F969" d="M552.947,99.593c0,1.661-1.346,3.007-3.007,3.007s-3.008-1.346-3.008-3.007s1.347-3.007,3.008-3.007
		S552.947,97.932,552.947,99.593"/>
	<circle fill="none" stroke="#070606" stroke-width="1.7358" stroke-miterlimit="10" cx="549.94" cy="99.593" r="3.007"/>
	<polyline fill="#4B63AC" points="498.391,95.439 498.418,103.502 485.786,99.515 498.391,95.439 	"/>
	<path fill="#070606" d="M497.522,95.439c0.009,2.688,0.018,5.375,0.027,8.062c0.366-0.28,0.732-0.557,1.099-0.838
		c-4.211-1.329-8.421-2.658-12.632-3.987c0,0.56,0,1.116,0,1.676c4.202-1.36,8.402-2.718,12.604-4.077
		c1.062-0.341,0.607-2.019-0.461-1.673c-4.202,1.359-8.402,2.719-12.604,4.074c-0.824,0.267-0.833,1.412,0,1.676
		c4.21,1.328,8.421,2.656,12.632,3.986c0.541,0.17,1.101-0.288,1.099-0.837c-0.011-2.688-0.019-5.374-0.027-8.062
		C499.256,94.321,497.52,94.321,497.522,95.439"/>
	<path fill="#0D1B5C" d="M482.778,99.471c0,1.661,1.347,3.007,3.008,3.007s3.007-1.346,3.007-3.007s-1.346-3.007-3.007-3.007
		S482.778,97.81,482.778,99.471"/>
	<circle fill="none" stroke="#070606" stroke-width="1.7358" stroke-miterlimit="10" cx="485.786" cy="99.471" r="3.007"/>
	<polyline fill="#4B63AC" points="529.138,95.562 529.147,103.624 541.763,99.572 529.138,95.562 	"/>
	<path fill="#070606" d="M528.27,95.562c0.003,2.688,0.007,5.374,0.01,8.062c0,0.546,0.557,1.01,1.099,0.835
		c4.206-1.348,8.41-2.698,12.615-4.05c0.824-0.264,0.829-1.408,0-1.673c-4.209-1.337-8.416-2.675-12.625-4.012
		c-1.07-0.339-1.522,1.336-0.461,1.675c4.209,1.335,8.414,2.675,12.625,4.01c0-0.556,0-1.113,0-1.673
		c-4.206,1.352-8.409,2.7-12.615,4.05c0.366,0.28,0.732,0.56,1.099,0.838c-0.004-2.688-0.007-5.374-0.011-8.062
		C530.004,94.443,528.268,94.443,528.27,95.562"/>
	<path fill="#9ED8AF" d="M538.752,99.593c0,1.661,1.347,3.007,3.008,3.007s3.007-1.346,3.007-3.007s-1.346-3.007-3.007-3.007
		S538.752,97.932,538.752,99.593"/>
	<circle fill="none" stroke="#070606" stroke-width="1.7358" stroke-miterlimit="10" cx="541.759" cy="99.593" r="3.007"/>
	<text transform="matrix(1 0 0 1 133.0981 54.6187)" fill="#151011" font-family="'Helvetica'" font-size="10.4149">pOdd-1</text>
	<text transform="matrix(1 0 0 1 184.1011 26.1099)" fill="#4965AD" font-family="'Symbol'" font-size="12.1508">β</text>
	<path fill="none" stroke="#F3333A" stroke-width="1.7358" d="M205.897,56.164c0,4.523-3.369,8.188-7.52,8.188h-94.657
		c-4.152,0-7.52-3.664-7.52-8.188v-12.4c0-4.523,3.367-8.189,7.52-8.189h94.657c4.15,0,7.52,3.666,7.52,8.189V56.164z"/>
	<polyline fill="#C3E3D2" points="140.158,40.519 151.649,40.519 161.153,35.598 151.649,30.677 140.158,30.677 140.158,40.519 	"/>
	<polygon fill="none" stroke="#070606" stroke-width="1.7358" stroke-linecap="square" points="140.158,40.519 151.649,40.519 
		161.153,35.598 151.649,30.677 140.158,30.677 	"/>
	<polyline fill="#4B63AC" points="101.566,31.467 101.578,39.529 114.19,35.479 101.566,31.467 	"/>
	<path fill="#070606" d="M100.698,31.467c0.005,2.687,0.008,5.376,0.013,8.062c0,0.547,0.557,1.013,1.098,0.839
		c4.204-1.351,8.408-2.7,12.612-4.052c0.825-0.265,0.829-1.411,0-1.675c-4.207-1.336-8.416-2.675-12.624-4.012
		c-1.069-0.34-1.523,1.337-0.461,1.674c4.207,1.338,8.416,2.675,12.624,4.013c0-0.559,0-1.116,0-1.675
		c-4.204,1.351-8.408,2.701-12.612,4.052c0.366,0.279,0.732,0.559,1.099,0.836c-0.004-2.687-0.008-5.376-0.012-8.062
		C102.433,30.348,100.697,30.348,100.698,31.467"/>
	<path fill="#0F1B5C" d="M117.806,35.5c0,1.661-1.346,3.008-3.007,3.008s-3.007-1.347-3.007-3.008c0-1.662,1.346-3.008,3.007-3.008
		S117.806,33.838,117.806,35.5"/>
	<circle fill="none" stroke="#070606" stroke-width="1.7358" stroke-miterlimit="10" cx="114.799" cy="35.5" r="3.007"/>
	<polyline fill="#4B63AC" points="199.973,31.567 199.949,39.629 187.344,35.56 199.973,31.567 	"/>
	<path fill="#070606" d="M199.105,31.567c-0.009,2.688-0.018,5.375-0.024,8.062c0.366-0.278,0.732-0.558,1.099-0.837
		c-4.202-1.355-8.402-2.711-12.605-4.068c0,0.559,0,1.116,0,1.673c4.209-1.329,8.42-2.662,12.63-3.992
		c1.062-0.337,0.609-2.014-0.462-1.673c-4.209,1.329-8.421,2.662-12.628,3.992c-0.831,0.263-0.824,1.409,0,1.673
		c4.201,1.357,8.401,2.713,12.604,4.069c0.543,0.175,1.098-0.292,1.1-0.837c0.007-2.687,0.015-5.374,0.023-8.062
		C200.845,30.448,199.109,30.448,199.105,31.567"/>
	<path fill="#314892" d="M190.115,35.598c0,1.661-1.345,3.007-3.006,3.007s-3.008-1.346-3.008-3.007s1.347-3.008,3.008-3.008
		S190.115,33.937,190.115,35.598"/>
	<circle fill="none" stroke="#070606" stroke-width="1.7358" stroke-miterlimit="10" cx="187.108" cy="35.598" r="3.007"/>
	<polyline fill="#EF333A" points="135.557,31.444 135.586,39.507 122.953,35.52 135.557,31.444 	"/>
	<path fill="#070606" d="M134.688,31.444c0.012,2.688,0.021,5.374,0.03,8.062c0.366-0.279,0.732-0.559,1.099-0.837
		c-4.211-1.329-8.422-2.656-12.635-3.986c0,0.557,0,1.114,0,1.673c4.202-1.357,8.404-2.717,12.605-4.075
		c1.061-0.343,0.606-2.019-0.46-1.674c-4.202,1.359-8.405,2.717-12.606,4.076c-0.822,0.265-0.831,1.411,0,1.673
		c4.212,1.33,8.423,2.658,12.634,3.988c0.54,0.169,1.101-0.289,1.099-0.838c-0.008-2.688-0.019-5.374-0.029-8.062
		C136.421,30.326,134.686,30.324,134.688,31.444"/>
	<path fill="#F4323B" d="M119.945,35.477c0,1.661,1.347,3.007,3.008,3.007s3.007-1.346,3.007-3.007s-1.346-3.008-3.007-3.008
		S119.945,33.815,119.945,35.477"/>
	<circle fill="none" stroke="#070606" stroke-width="1.7358" stroke-miterlimit="10" cx="122.953" cy="35.477" r="3.007"/>
	<polyline fill="#EF333A" points="166.306,31.567 166.315,39.629 178.931,35.579 166.306,31.567 	"/>
	<path fill="#070606" d="M165.438,31.567c0.004,2.688,0.007,5.375,0.011,8.062c0.001,0.547,0.557,1.012,1.099,0.837
		c4.203-1.349,8.41-2.7,12.614-4.05c0.824-0.264,0.828-1.411,0-1.673c-4.208-1.337-8.418-2.676-12.625-4.012
		c-1.069-0.343-1.523,1.335-0.462,1.673c4.207,1.337,8.417,2.675,12.625,4.012c0-0.557,0-1.116,0-1.673
		c-4.204,1.35-8.41,2.698-12.614,4.049c0.366,0.279,0.732,0.559,1.099,0.837c-0.003-2.687-0.007-5.374-0.01-8.062
		C167.171,30.448,165.436,30.448,165.438,31.567"/>
	<path fill="#EAF672" d="M175.92,35.598c0,1.661,1.348,3.007,3.009,3.007c1.66,0,3.006-1.346,3.006-3.007s-1.346-3.008-3.006-3.008
		C177.268,32.59,175.92,33.937,175.92,35.598"/>
	<circle fill="none" stroke="#070606" stroke-width="1.7358" stroke-miterlimit="10" cx="178.927" cy="35.598" r="3.007"/>
	<text transform="matrix(1 0 0 1 109.3062 26.1099)" fill="#4965AD" font-family="'Symbol'" font-size="12.1508">α</text>
	<text transform="matrix(1 0 0 1 254.0444 54.6187)" fill="#151011" font-family="'Helvetica'" font-size="10.4149">pOdd-2</text>
	<text transform="matrix(1 0 0 1 305.0444 26.1099)" fill="#4965AD" font-family="'Symbol'" font-size="12.1508">γ</text>
	<path fill="none" stroke="#FC7243" stroke-width="1.7358" d="M326.842,56.164c0,4.523-3.367,8.188-7.52,8.188h-94.657
		c-4.153,0-7.52-3.664-7.52-8.188v-12.4c0-4.523,3.366-8.189,7.52-8.189h94.657c4.152,0,7.52,3.666,7.52,8.189V56.164z"/>
	<polyline fill="#C3E3D2" points="261.103,40.519 272.594,40.519 282.097,35.598 272.594,30.677 261.103,30.677 261.103,40.519 	"/>
	<polygon fill="none" stroke="#070606" stroke-width="1.7358" stroke-linecap="square" points="261.103,40.519 272.594,40.519 
		282.097,35.598 272.594,30.677 261.103,30.677 	"/>
	<polyline fill="#4B63AC" points="222.512,31.467 222.521,39.529 235.135,35.479 222.512,31.467 	"/>
	<path fill="#070606" d="M221.644,31.467c0.004,2.687,0.007,5.376,0.01,8.062c0.002,0.547,0.558,1.013,1.099,0.839
		c4.205-1.351,8.409-2.7,12.613-4.052c0.826-0.265,0.828-1.411,0-1.675c-4.208-1.336-8.416-2.675-12.625-4.012
		c-1.069-0.34-1.522,1.337-0.46,1.674c4.208,1.338,8.415,2.675,12.623,4.013c0-0.559,0-1.116,0-1.675
		c-4.204,1.351-8.406,2.701-12.61,4.052c0.366,0.279,0.732,0.559,1.097,0.836c-0.004-2.687-0.007-5.376-0.01-8.062
		C223.378,30.348,221.642,30.348,221.644,31.467"/>
	<path fill="#314892" d="M238.75,35.5c0,1.661-1.345,3.008-3.006,3.008s-3.009-1.347-3.009-3.008c0-1.662,1.348-3.008,3.009-3.008
		S238.75,33.838,238.75,35.5"/>
	<circle fill="none" stroke="#070606" stroke-width="1.7358" stroke-miterlimit="10" cx="235.743" cy="35.5" r="3.007"/>
	<polyline fill="#4B63AC" points="320.917,31.567 320.893,39.629 308.289,35.56 320.917,31.567 	"/>
	<path fill="#070606" d="M320.049,31.567c-0.007,2.688-0.016,5.375-0.024,8.062c0.366-0.278,0.732-0.558,1.1-0.837
		c-4.201-1.355-8.404-2.711-12.606-4.068c0,0.559,0,1.116,0,1.673c4.211-1.329,8.421-2.662,12.63-3.992
		c1.064-0.337,0.609-2.014-0.462-1.673c-4.209,1.329-8.418,2.662-12.628,3.992c-0.831,0.263-0.824,1.409,0,1.673
		c4.2,1.357,8.403,2.713,12.606,4.069c0.541,0.175,1.095-0.292,1.097-0.837c0.008-2.687,0.018-5.374,0.024-8.062
		C321.788,30.448,320.053,30.448,320.049,31.567"/>
	<path fill="#7E96B8" d="M311.059,35.598c0,1.661-1.345,3.007-3.006,3.007s-3.008-1.346-3.008-3.007s1.347-3.008,3.008-3.008
		S311.059,33.937,311.059,35.598"/>
	<circle fill="none" stroke="#070606" stroke-width="1.7358" stroke-miterlimit="10" cx="308.052" cy="35.598" r="3.007"/>
	<polyline fill="#EF333A" points="256.503,31.444 256.529,39.507 243.896,35.52 256.503,31.444 	"/>
	<path fill="#070606" d="M255.635,31.444c0.008,2.688,0.019,5.374,0.027,8.062c0.366-0.279,0.732-0.559,1.099-0.837
		c-4.211-1.329-8.422-2.656-12.634-3.986c0,0.557,0,1.114,0,1.673c4.203-1.357,8.404-2.717,12.604-4.075
		c1.061-0.343,0.607-2.019-0.46-1.674c-4.202,1.359-8.403,2.717-12.605,4.076c-0.823,0.265-0.831,1.411,0,1.673
		c4.211,1.33,8.422,2.658,12.633,3.988c0.542,0.169,1.101-0.289,1.099-0.838c-0.009-2.688-0.019-5.374-0.027-8.062
		C257.365,30.326,255.63,30.324,255.635,31.444"/>
	<path fill="#F4323B" d="M240.891,35.477c0,1.661,1.345,3.007,3.006,3.007s3.007-1.346,3.007-3.007s-1.346-3.008-3.007-3.008
		S240.891,33.815,240.891,35.477"/>
	<circle fill="none" stroke="#070606" stroke-width="1.7358" stroke-miterlimit="10" cx="243.897" cy="35.477" r="3.006"/>
	<polyline fill="#EF333A" points="287.251,31.567 287.259,39.629 299.873,35.579 287.251,31.567 	"/>
	<path fill="#070606" d="M286.383,31.567c0.002,2.688,0.005,5.375,0.009,8.062c0.001,0.547,0.558,1.012,1.099,0.837
		c4.206-1.349,8.41-2.7,12.614-4.05c0.824-0.264,0.828-1.411,0-1.673c-4.208-1.337-8.415-2.676-12.625-4.012
		c-1.068-0.343-1.523,1.335-0.459,1.673c4.207,1.337,8.414,2.675,12.622,4.012c0-0.557,0-1.116,0-1.673
		c-4.204,1.35-8.41,2.698-12.612,4.049c0.366,0.279,0.73,0.559,1.097,0.837c-0.003-2.687-0.007-5.374-0.009-8.062
		C288.117,30.448,286.381,30.448,286.383,31.567"/>
	<path fill="#EAF672" d="M296.865,35.598c0,1.661,1.346,3.007,3.007,3.007s3.006-1.346,3.006-3.007s-1.345-3.008-3.006-3.008
		S296.865,33.937,296.865,35.598"/>
	<circle fill="none" stroke="#070606" stroke-width="1.7358" stroke-miterlimit="10" cx="299.872" cy="35.598" r="3.006"/>
	<text transform="matrix(1 0 0 1 232.7349 26.1099)" fill="#4965AD" font-family="'Symbol'" font-size="12.1508">β</text>
	<text transform="matrix(1 0 0 1 376.7241 54.6167)" fill="#151011" font-family="'Helvetica'" font-size="10.4149">pOdd-3</text>
	<text transform="matrix(1 0 0 1 353.6782 26.1099)"><tspan x="0" y="0" fill="#4965AD" font-family="'Symbol'" font-size="12.1508" letter-spacing="67">γ</tspan><tspan x="72.226" y="0" fill="#4965AD" font-family="'Symbol'" font-size="12.1508">ε</tspan></text>
	<path fill="none" stroke="#FCB836" stroke-width="1.7358" d="M447.787,56.164c0,4.523-3.369,8.188-7.52,8.188h-94.658
		c-4.154,0-7.52-3.664-7.52-8.188v-12.4c0-4.523,3.365-8.189,7.52-8.189h94.658c4.15,0,7.52,3.666,7.52,8.189V56.164z"/>
	<polyline fill="#C3E3D2" points="382.046,40.519 393.537,40.519 403.039,35.598 393.537,30.677 382.046,30.677 382.046,40.519 	"/>
	<polygon fill="none" stroke="#070606" stroke-width="1.7358" stroke-linecap="square" points="382.046,40.519 393.537,40.519 
		403.039,35.598 393.537,30.677 382.046,30.677 	"/>
	<polyline fill="#4B63AC" points="343.453,31.467 343.465,39.529 356.077,35.479 343.453,31.467 	"/>
	<path fill="#070606" d="M342.585,31.467c0.005,2.687,0.009,5.376,0.012,8.062c0.002,0.547,0.558,1.013,1.1,0.839
		c4.204-1.351,8.408-2.7,12.612-4.052c0.824-0.265,0.828-1.411,0-1.675c-4.208-1.336-8.415-2.675-12.625-4.012
		c-1.068-0.34-1.523,1.337-0.459,1.674c4.205,1.338,8.414,2.675,12.622,4.013c0-0.559,0-1.116,0-1.675
		c-4.203,1.351-8.408,2.701-12.612,4.052c0.366,0.279,0.732,0.559,1.099,0.836c-0.004-2.687-0.007-5.376-0.012-8.062
		C344.319,30.348,342.583,30.348,342.585,31.467"/>
	<path fill="#7D95B7" d="M359.693,35.5c0,1.661-1.345,3.008-3.008,3.008c-1.661,0-3.007-1.347-3.007-3.008
		c0-1.662,1.346-3.008,3.007-3.008C358.349,32.492,359.693,33.838,359.693,35.5"/>
	<circle fill="none" stroke="#070606" stroke-width="1.7358" stroke-miterlimit="10" cx="356.686" cy="35.5" r="3.007"/>
	<polyline fill="#4B63AC" points="441.861,31.567 441.838,39.629 429.232,35.56 441.861,31.567 	"/>
	<path fill="#070606" d="M440.993,31.567c-0.01,2.688-0.015,5.375-0.023,8.062c0.366-0.278,0.732-0.558,1.099-0.837
		c-4.202-1.355-8.403-2.711-12.605-4.068c0,0.559,0,1.116,0,1.673c4.209-1.329,8.42-2.662,12.629-3.992
		c1.062-0.337,0.608-2.014-0.461-1.673c-4.209,1.329-8.42,2.662-12.629,3.992c-0.831,0.263-0.824,1.409,0,1.673
		c4.202,1.357,8.403,2.713,12.605,4.069c0.542,0.175,1.097-0.292,1.098-0.837c0.009-2.687,0.014-5.374,0.024-8.062
		C442.732,30.448,440.997,30.448,440.993,31.567"/>
	<path fill="#C3DAE7" d="M432.006,35.598c0,1.661-1.346,3.007-3.007,3.007c-1.665,0-3.011-1.346-3.011-3.007
		s1.346-3.008,3.011-3.008C430.66,32.59,432.006,33.937,432.006,35.598"/>
	<path fill="none" stroke="#070606" stroke-width="1.7358" stroke-miterlimit="10" d="M432.006,35.598
		c0,1.661-1.346,3.007-3.007,3.007c-1.665,0-3.011-1.346-3.011-3.007s1.346-3.008,3.011-3.008
		C430.66,32.59,432.006,33.937,432.006,35.598z"/>
	<polyline fill="#EF333A" points="377.444,31.444 377.474,39.507 364.841,35.52 377.444,31.444 	"/>
	<path fill="#070606" d="M376.576,31.444c0.01,2.688,0.021,5.374,0.029,8.062c0.366-0.279,0.732-0.559,1.099-0.837
		c-4.211-1.329-8.422-2.656-12.633-3.986c0,0.557,0,1.114,0,1.673c4.2-1.357,8.402-2.717,12.604-4.075
		c1.061-0.343,0.607-2.019-0.46-1.674c-4.203,1.359-8.405,2.717-12.605,4.076c-0.823,0.265-0.832,1.411,0,1.673
		c4.212,1.33,8.422,2.658,12.633,3.988c0.54,0.169,1.102-0.289,1.1-0.838c-0.009-2.688-0.02-5.374-0.03-8.062
		C378.309,30.326,376.572,30.324,376.576,31.444"/>
	<path fill="#F4323B" d="M361.832,35.477c0,1.661,1.348,3.007,3.009,3.007c1.66,0,3.006-1.346,3.006-3.007s-1.346-3.008-3.006-3.008
		C363.18,32.469,361.832,33.815,361.832,35.477"/>
	<circle fill="none" stroke="#070606" stroke-width="1.7358" stroke-miterlimit="10" cx="364.839" cy="35.477" r="3.007"/>
	<polyline fill="#EF333A" points="408.192,31.567 408.202,39.629 420.817,35.579 408.192,31.567 	"/>
	<path fill="#070606" d="M407.324,31.567c0.004,2.688,0.007,5.375,0.011,8.062c0,0.547,0.556,1.012,1.098,0.837
		c4.206-1.349,8.41-2.7,12.616-4.05c0.825-0.264,0.828-1.411,0-1.673c-4.21-1.337-8.419-2.676-12.626-4.012
		c-1.071-0.343-1.523,1.335-0.461,1.673c4.209,1.337,8.416,2.675,12.625,4.012c0-0.557,0-1.116,0-1.673
		c-4.205,1.35-8.409,2.698-12.615,4.049c0.366,0.279,0.732,0.559,1.099,0.837c-0.003-2.687-0.007-5.374-0.01-8.062
		C409.059,30.448,407.323,30.448,407.324,31.567"/>
	<path fill="#EAF672" d="M417.808,35.598c0,1.661,1.346,3.007,3.007,3.007s3.007-1.346,3.007-3.007s-1.346-3.008-3.007-3.008
		S417.808,33.937,417.808,35.598"/>
	<circle fill="none" stroke="#070606" stroke-width="1.7358" stroke-miterlimit="10" cx="420.814" cy="35.598" r="3.007"/>
	<text transform="matrix(1 0 0 1 497.667 54.6167)" fill="#151011" font-family="'Helvetica'" font-size="10.4149">pOdd-4</text>
	<text transform="matrix(1 0 0 1 474.626 26.1099)"><tspan x="0" y="0" fill="#4965AD" font-family="'Symbol'" font-size="12.1508" letter-spacing="65">ε</tspan><tspan x="70.839" y="0" fill="#4965AD" font-family="'Symbol'" font-size="12.1508">ω</tspan></text>
	<path fill="none" stroke="#FAE363" stroke-width="1.7358" d="M568.732,56.164c0,4.523-3.37,8.188-7.52,8.188h-94.657
		c-4.152,0-7.522-3.664-7.522-8.188v-12.4c0-4.523,3.37-8.189,7.522-8.189h94.657c4.149,0,7.52,3.666,7.52,8.189V56.164z"/>
	<polyline fill="#C3E3D2" points="502.991,40.519 514.484,40.519 523.987,35.598 514.484,30.677 502.991,30.677 502.991,40.519 	"/>
	<polygon fill="none" stroke="#070606" stroke-width="1.7358" stroke-linecap="square" points="502.991,40.519 514.484,40.519 
		523.987,35.598 514.484,30.677 502.991,30.677 	"/>
	<polyline fill="#4B63AC" points="464.399,31.467 464.41,39.529 477.021,35.479 464.399,31.467 	"/>
	<path fill="#070606" d="M463.532,31.467c0.003,2.687,0.007,5.376,0.01,8.062c0,0.547,0.557,1.013,1.099,0.839
		c4.204-1.351,8.408-2.7,12.612-4.052c0.825-0.265,0.828-1.411,0-1.675c-4.208-1.336-8.415-2.675-12.622-4.012
		c-1.07-0.34-1.524,1.337-0.462,1.674c4.208,1.338,8.415,2.675,12.622,4.013c0-0.559,0-1.116,0-1.675
		c-4.203,1.351-8.407,2.701-12.611,4.052c0.366,0.279,0.732,0.559,1.099,0.836c-0.004-2.687-0.007-5.376-0.011-8.062
		C465.267,30.348,463.53,30.348,463.532,31.467"/>
	<path fill="#C3DAE6" d="M480.64,35.5c0,1.661-1.347,3.008-3.008,3.008s-3.007-1.347-3.007-3.008c0-1.662,1.346-3.008,3.007-3.008
		S480.64,33.838,480.64,35.5"/>
	<circle fill="none" stroke="#070606" stroke-width="1.7358" stroke-miterlimit="10" cx="477.632" cy="35.5" r="3.007"/>
	<polyline fill="#4B63AC" points="562.807,31.567 562.782,39.629 550.178,35.56 562.807,31.567 	"/>
	<path fill="#070606" d="M561.938,31.567c-0.009,2.688-0.016,5.375-0.023,8.062c0.365-0.278,0.731-0.558,1.098-0.837
		c-4.202-1.355-8.402-2.711-12.604-4.068c0,0.559,0,1.116,0,1.673c4.209-1.329,8.42-2.662,12.629-3.992
		c1.062-0.337,0.61-2.014-0.462-1.673c-4.207,1.329-8.419,2.662-12.628,3.992c-0.831,0.263-0.824,1.409,0,1.673
		c4.202,1.357,8.402,2.713,12.604,4.069c0.543,0.175,1.096-0.292,1.099-0.837c0.009-2.687,0.016-5.374,0.023-8.062
		C563.678,30.448,561.941,30.448,561.938,31.567"/>
	<path fill="#9ED8B0" d="M552.95,35.598c0,1.661-1.346,3.007-3.007,3.007s-3.007-1.346-3.007-3.007s1.346-3.008,3.007-3.008
		S552.95,33.937,552.95,35.598"/>
	<circle fill="none" stroke="#070606" stroke-width="1.7358" stroke-miterlimit="10" cx="549.943" cy="35.598" r="3.007"/>
	<polyline fill="#EF333A" points="498.391,31.444 498.418,39.507 485.786,35.52 498.391,31.444 	"/>
	<path fill="#070606" d="M497.522,31.444c0.009,2.688,0.018,5.374,0.027,8.062c0.366-0.279,0.732-0.559,1.099-0.837
		c-4.211-1.329-8.421-2.656-12.632-3.986c0,0.557,0,1.114,0,1.673c4.202-1.357,8.402-2.717,12.604-4.075
		c1.062-0.343,0.607-2.019-0.461-1.674c-4.202,1.359-8.402,2.717-12.604,4.076c-0.824,0.265-0.833,1.411,0,1.673
		c4.21,1.33,8.421,2.658,12.632,3.988c0.541,0.169,1.101-0.289,1.099-0.838c-0.011-2.688-0.019-5.374-0.027-8.062
		C499.256,30.326,497.52,30.324,497.522,31.444"/>
	<path fill="#F4323B" d="M482.778,35.477c0,1.661,1.347,3.007,3.008,3.007s3.007-1.346,3.007-3.007s-1.346-3.008-3.007-3.008
		S482.778,33.815,482.778,35.477"/>
	<circle fill="none" stroke="#070606" stroke-width="1.7358" stroke-miterlimit="10" cx="485.786" cy="35.477" r="3.007"/>
	<polyline fill="#EF333A" points="529.141,31.567 529.151,39.629 541.763,35.579 529.141,31.567 	"/>
	<path fill="#070606" d="M528.272,31.567c0.004,2.688,0.007,5.375,0.011,8.062c0,0.547,0.556,1.012,1.099,0.837
		c4.203-1.349,8.407-2.7,12.611-4.05c0.824-0.264,0.829-1.411,0-1.673c-4.207-1.337-8.414-2.676-12.622-4.012
		c-1.069-0.343-1.525,1.335-0.461,1.673c4.207,1.337,8.415,2.675,12.622,4.012c0-0.557,0-1.116,0-1.673
		c-4.204,1.35-8.408,2.698-12.612,4.049c0.366,0.279,0.732,0.559,1.099,0.837c-0.003-2.687-0.007-5.374-0.01-8.062
		C530.007,30.448,528.271,30.448,528.272,31.567"/>
	<path fill="#EAF672" d="M538.756,35.598c0,1.661,1.346,3.007,3.007,3.007s3.007-1.346,3.007-3.007s-1.346-3.008-3.007-3.008
		S538.756,33.937,538.756,35.598"/>
	<circle fill="none" stroke="#070606" stroke-width="1.7358" stroke-miterlimit="10" cx="541.763" cy="35.598" r="3.007"/>
	<path fill="#0F1B5C" d="M680.065,35.566c0,1.661-1.346,3.007-3.007,3.007s-3.007-1.346-3.007-3.007c0-1.66,1.346-3.008,3.007-3.008
		S680.065,33.906,680.065,35.566"/>
	<circle fill="none" stroke="#070606" stroke-width="1.7358" stroke-miterlimit="10" cx="677.059" cy="35.566" r="3.007"/>
	<text transform="matrix(1 0 0 1 700.0283 38.6284)" fill="#4965AD" font-family="'Helvetica'" font-size="12.1508">=</text>
	<text transform="matrix(1 0 0 1 707.124 38.6284)" fill="#4965AD" font-family="'Symbol'" font-size="12.1508"> </text>
	<text transform="matrix(1 0 0 1 710.1631 38.6284)" fill="#4965AD" font-family="'Courier'" font-size="12.1508">ATG</text>
	<text transform="matrix(1 0 0 1 686.165 38.4878)" fill="#4965AD" font-family="'Symbol'" font-size="13.8866">α</text>
	<path fill="#314892" d="M680.062,54.822c0,1.661-1.346,3.008-3.007,3.008s-3.008-1.347-3.008-3.008s1.347-3.008,3.008-3.008
		S680.062,53.161,680.062,54.822"/>
	<circle fill="none" stroke="#070606" stroke-width="1.7358" stroke-miterlimit="10" cx="677.055" cy="54.822" r="3.007"/>
	<text transform="matrix(1 0 0 1 686.1631 59.3774)" fill="#4965AD" font-family="'Symbol'" font-size="13.8866">β</text>
	<text transform="matrix(1 0 0 1 700.0283 57.8862)" fill="#4965AD" font-family="'Helvetica'" font-size="12.1508">= </text>
	<text transform="matrix(1 0 0 1 710.499 57.8862)" fill="#4965AD" font-family="'Courier'" font-size="12.1508">GCA</text>
	<path fill="#8096B9" d="M680.065,75.892c0,1.661-1.346,3.007-3.007,3.007s-3.007-1.346-3.007-3.007s1.346-3.008,3.007-3.008
		S680.065,74.23,680.065,75.892"/>
	<circle fill="none" stroke="#070606" stroke-width="1.7358" stroke-miterlimit="10" cx="677.059" cy="75.892" r="3.007"/>
	<text transform="matrix(1 0 0 1 686.1631 78.4536)" fill="#4965AD" font-family="'Symbol'" font-size="13.8866">γ</text>
	<text transform="matrix(1 0 0 1 700.0283 78.9536)" fill="#4965AD" font-family="'Helvetica'" font-size="12.1508">= </text>
	<text transform="matrix(1 0 0 1 710.501 78.9536)" fill="#4965AD" font-family="'Courier'" font-size="12.1508">TAC</text>
	<path fill="#C3DAE8" d="M680.065,96.091c0,1.661-1.346,3.007-3.007,3.007s-3.007-1.346-3.007-3.007s1.346-3.008,3.007-3.008
		S680.065,94.43,680.065,96.091"/>
	<circle fill="none" stroke="#070606" stroke-width="1.7358" stroke-miterlimit="10" cx="677.059" cy="96.091" r="3.007"/>
	<text transform="matrix(1 0 0 1 686.1631 98.3994)" fill="#4965AD" font-family="'Symbol'" font-size="13.8866">ε</text>
	<text transform="matrix(1 0 0 1 700.0283 99.1533)" fill="#4965AD" font-family="'Helvetica'" font-size="12.1508">= </text>
	<text transform="matrix(1 0 0 1 710.499 99.1533)" fill="#4965AD" font-family="'Courier'" font-size="12.1508">CAG</text>
	<path fill="#9FD8B0" d="M680.062,115.571c0,1.661-1.346,3.007-3.007,3.007s-3.008-1.346-3.008-3.007s1.347-3.008,3.008-3.008
		S680.062,113.91,680.062,115.571"/>
	<circle fill="none" stroke="#070606" stroke-width="1.7358" stroke-miterlimit="10" cx="677.055" cy="115.571" r="3.007"/>
	<text transform="matrix(1 0 0 1 686.1631 118.0225)" fill="#4965AD" font-family="'Symbol'" font-size="13.8866">ω</text>
	<text transform="matrix(1 0 0 1 700.0283 118.4854)" fill="#4965AD" font-family="'Helvetica'" font-size="12.1508">= </text>
	<text transform="matrix(1 0 0 1 710.501 118.4854)" fill="#4965AD" font-family="'Courier'" font-size="12.1508">GGT</text>
	<path fill="#FC7243" d="M596.699,55.566c0,1.661-1.347,3.008-3.008,3.008s-3.007-1.347-3.007-3.008c0-1.66,1.346-3.008,3.007-3.008
		S596.699,53.906,596.699,55.566"/>
	<circle fill="none" stroke="#070606" stroke-width="1.7358" stroke-miterlimit="10" cx="593.692" cy="55.566" r="3.007"/>
	<text transform="matrix(1 0 0 1 602.8896 58.9165)" fill="#F1333A" font-family="'Helvetica'" font-size="12.1508">B =</text>
	<text transform="matrix(1 0 0 1 621.4658 58.9165)" fill="#F1333A" font-family="'Symbol'" font-size="12.1508"> </text>
	<text transform="matrix(1 0 0 1 624.5029 58.9165)" fill="#F1333A" font-family="'Courier'" font-size="12.1508">TACT</text>
	<path fill="#FDB936" d="M596.699,75.567c0,1.66-1.347,3.006-3.008,3.006s-3.007-1.346-3.007-3.006c0-1.661,1.346-3.007,3.007-3.007
		S596.699,73.906,596.699,75.567"/>
	<circle fill="none" stroke="#070606" stroke-width="1.7358" stroke-miterlimit="10" cx="593.692" cy="75.567" r="3.007"/>
	<text transform="matrix(1 0 0 1 602.6982 78.9185)" fill="#F1333A" font-family="'Helvetica'" font-size="12.1508">C</text>
	<text transform="matrix(1 0 0 1 611.4756 78.9185)" fill="#F1333A" font-family="'Symbol'" font-size="12.1508"> </text>
	<text transform="matrix(1 0 0 1 614.5127 78.9185)" fill="#F1333A" font-family="'Helvetica'" font-size="12.1508">=</text>
	<text transform="matrix(1 0 0 1 621.6084 78.9185)" fill="#F1333A" font-family="'Symbol'" font-size="12.1508"> </text>
	<text transform="matrix(1 0 0 1 624.6455 78.9185)" fill="#F1333A" font-family="'Courier'" font-size="12.1508">AATG</text>
	<path fill="#F4323B" d="M596.699,35.566c0,1.661-1.347,3.007-3.008,3.007s-3.007-1.346-3.007-3.007c0-1.66,1.346-3.008,3.007-3.008
		S596.699,33.906,596.699,35.566"/>
	<circle fill="none" stroke="#070606" stroke-width="1.7358" stroke-miterlimit="10" cx="593.692" cy="35.566" r="3.007"/>
	<text transform="matrix(1 0 0 1 603.2666 38.9165)" fill="#F1333A" font-family="'Helvetica'" font-size="12.1508">A</text>
	<text transform="matrix(1 0 0 1 611.3721 38.9165)" fill="#F1333A" font-family="'Symbol'" font-size="12.1508"> </text>
	<text transform="matrix(1 0 0 1 614.4092 38.9165)" fill="#F1333A" font-family="'Helvetica'" font-size="12.1508">=</text>
	<text transform="matrix(1 0 0 1 621.5049 38.9165)" fill="#F1333A" font-family="'Symbol'" font-size="12.1508"> </text>
	<text transform="matrix(1 0 0 1 624.542 38.9165)" fill="#F1333A" font-family="'Courier'" font-size="12.1508">GGAG</text>
	<path fill="#FBE464" d="M596.699,95.568c0,1.661-1.347,3.007-3.008,3.007s-3.007-1.346-3.007-3.007s1.346-3.005,3.007-3.005
		S596.699,93.907,596.699,95.568"/>
	<circle fill="none" stroke="#070606" stroke-width="1.7358" stroke-miterlimit="10" cx="593.692" cy="95.568" r="3.007"/>
	<text transform="matrix(1 0 0 1 602.8896 98.9209)" fill="#F1333A" font-family="'Helvetica'" font-size="12.1508">E =</text>
	<text transform="matrix(1 0 0 1 621.4658 98.9209)" fill="#F1333A" font-family="'Symbol'" font-size="12.1508"> </text>
	<text transform="matrix(1 0 0 1 624.5029 98.9209)" fill="#F1333A" font-family="'Courier'" font-size="12.1508">GCTT</text>
	<path fill="#F3FA68" d="M596.699,115.571c0,1.661-1.347,3.007-3.008,3.007s-3.007-1.346-3.007-3.007s1.346-3.008,3.007-3.008
		S596.699,113.91,596.699,115.571"/>
	<circle fill="none" stroke="#070606" stroke-width="1.7358" stroke-miterlimit="10" cx="593.692" cy="115.571" r="3.007"/>
	<text transform="matrix(1 0 0 1 603.1611 118.7725)" fill="#F1333A" font-family="'Helvetica'" font-size="12.1508">F = </text>
	<text transform="matrix(1 0 0 1 624.4307 118.7725)" fill="#F1333A" font-family="'Courier'" font-size="12.1508">CGCT</text>
	<path fill="none" stroke="#070606" stroke-width="1.7358" stroke-miterlimit="10" d="M745.675,116.376
		c0,5.652-4.407,10.233-9.842,10.233H590.61c-5.435,0-9.839-4.581-9.839-10.233V34.862c0-5.651,4.404-10.232,9.839-10.232h145.223
		c5.435,0,9.842,4.581,9.842,10.232V116.376z"/>
	<polyline fill="#C3E3D2" points="763.368,106.499 774.861,106.499 784.364,101.579 774.861,96.657 763.368,96.657 763.368,106.499 
			"/>
	<polygon fill="none" stroke="#070606" stroke-width="1.7358" stroke-linecap="square" points="763.368,106.499 774.861,106.499 
		784.364,101.579 774.861,96.657 763.368,96.657 	"/>
	<text transform="matrix(1 0 0 1 760.7471 123.2939)" fill="#151011" font-family="'Helvetica'" font-size="10.4149">lacZ</text>
	<text transform="matrix(1 0 0 1 780.4229 123.2939)" fill="#151011" font-family="'Symbol'" font-size="10.4149">α</text>
	<text transform="matrix(1 0 0 1 751.2959 48.4819)"><tspan x="0" y="0" fill="#F3333A" font-family="'Helvetica-Oblique'" font-size="10.4149">BsaI </tspan><tspan x="23.733" y="0" fill="#F3333A" font-family="'Helvetica'" font-size="10.4149">sites</tspan></text>
	<polyline fill="#EF333A" points="770.285,24.29 770.315,32.353 757.683,28.364 770.285,24.29 	"/>
	<path fill="#070606" d="M769.417,24.29c0.01,2.687,0.021,5.373,0.03,8.062c0.366-0.279,0.732-0.56,1.099-0.838
		c-4.211-1.328-8.422-2.656-12.633-3.986c0,0.56,0,1.116,0,1.673c4.201-1.356,8.401-2.717,12.603-4.075
		c1.061-0.342,0.606-2.019-0.462-1.674c-4.2,1.359-8.4,2.719-12.602,4.076c-0.822,0.268-0.832,1.411,0,1.673
		c4.211,1.33,8.422,2.658,12.633,3.988c0.541,0.169,1.1-0.288,1.099-0.837c-0.011-2.689-0.021-5.376-0.031-8.062
		C771.149,23.172,769.413,23.17,769.417,24.29"/>
	<polyline fill="#EF333A" points="777.425,24.29 777.435,32.353 790.05,28.303 777.425,24.29 	"/>
	<path fill="#070606" d="M776.557,24.29c0.004,2.687,0.007,5.373,0.011,8.062c0,0.545,0.556,1.01,1.098,0.837
		c4.206-1.352,8.41-2.701,12.615-4.05c0.826-0.267,0.829-1.411,0-1.674c-4.209-1.339-8.416-2.677-12.625-4.014
		c-1.069-0.342-1.523,1.335-0.461,1.674c4.209,1.339,8.416,2.675,12.625,4.014c0-0.56,0-1.116,0-1.674
		c-4.204,1.349-8.409,2.699-12.615,4.049c0.366,0.278,0.732,0.559,1.099,0.838c-0.003-2.689-0.007-5.376-0.01-8.062
		C778.291,23.17,776.555,23.17,776.557,24.29"/>
	<text transform="matrix(1 0 0 1 751.0029 85.0483)"><tspan x="0" y="0" fill="#4965AD" font-family="'Helvetica-Oblique'" font-size="10.4149">SapI </tspan><tspan x="24.318" y="0" fill="#4965AD" font-family="'Helvetica'" font-size="10.4149">sites</tspan></text>
	<polyline fill="#4B63AC" points="770.285,61.312 770.315,69.375 757.683,65.389 770.285,61.312 	"/>
	<path fill="#070606" d="M769.417,61.312c0.01,2.689,0.021,5.374,0.03,8.062c0.366-0.278,0.732-0.557,1.099-0.836
		c-4.211-1.33-8.422-2.657-12.633-3.987c0,0.559,0,1.116,0,1.673c4.201-1.356,8.401-2.716,12.603-4.076
		c1.061-0.341,0.606-2.018-0.462-1.673c-4.2,1.359-8.4,2.719-12.602,4.076c-0.822,0.267-0.832,1.413,0,1.673
		c4.211,1.33,8.422,2.66,12.633,3.987c0.541,0.17,1.1-0.287,1.099-0.837c-0.011-2.688-0.021-5.373-0.031-8.062
		C771.149,60.194,769.413,60.192,769.417,61.312"/>
	<polyline fill="#4B63AC" points="777.425,61.312 777.435,69.375 790.05,65.325 777.425,61.312 	"/>
	<path fill="#070606" d="M776.557,61.312c0.004,2.688,0.007,5.374,0.011,8.062c0,0.545,0.556,1.011,1.098,0.837
		c4.206-1.349,8.41-2.7,12.615-4.05c0.826-0.266,0.829-1.411,0-1.673c-4.209-1.339-8.416-2.677-12.625-4.014
		c-1.069-0.342-1.523,1.335-0.461,1.673c4.209,1.34,8.416,2.676,12.625,4.014c0-0.557,0-1.115,0-1.673
		c-4.204,1.349-8.409,2.699-12.615,4.05c0.366,0.279,0.732,0.558,1.099,0.836c-0.003-2.688-0.007-5.375-0.01-8.062
		C778.291,60.192,776.555,60.192,776.557,61.312"/>
</g>
</svg>
