<?xml version="1.0" encoding="utf-8"?>
<!-- Generator: Adobe Illustrator 16.0.4, SVG Export Plug-In . SVG Version: 6.00 Build 0)  -->
<!DOCTYPE svg PUBLIC "-//W3C//DTD SVG 1.1//EN" "http://www.w3.org/Graphics/SVG/1.1/DTD/svg11.dtd">
<svg version="1.1" id="Layer_1" xmlns="http://www.w3.org/2000/svg" xmlns:xlink="http://www.w3.org/1999/xlink" x="0px" y="0px"
	 width="800px" height="337.589px" viewBox="0 0 800 337.589" enable-background="new 0 0 800 337.589" xml:space="preserve">
<text transform="matrix(1 0 0 1 278.9575 61.7681)"><tspan x="0" y="0" fill="#F3333A" font-family="'Helvetica'" font-size="12.7662" letter-spacing="51">A</tspan><tspan x="60.065" y="0" fill="#F3333A" font-family="'Helvetica'" font-size="12.7662">F</tspan></text>
<text transform="matrix(1 0 0 1 467.4551 56.1938)" fill="#151011" font-family="'Helvetica'" font-size="10.9425">pL1-1</text>
<line fill="none" stroke="#070606" stroke-width="1.8237" stroke-linecap="round" stroke-linejoin="round" x1="603.339" y1="25.356" x2="618.311" y2="25.356"/>
<text transform="matrix(1 0 0 1 581.373 56.1938)" fill="#151011" font-family="'Helvetica'" font-size="10.9425">pL1-2</text>
<text transform="matrix(1 0 0 1 467.4551 110.2153)" fill="#151011" font-family="'Helvetica'" font-size="10.9425">pL1-3</text>
<line fill="none" stroke="#070606" stroke-width="1.8237" stroke-linecap="round" stroke-linejoin="round" x1="603.339" y1="79.381" x2="618.311" y2="79.381"/>
<text transform="matrix(1 0 0 1 581.373 110.2153)" fill="#151011" font-family="'Helvetica'" font-size="10.9425">pL1-4</text>
<text transform="matrix(1 0 0 1 654.6875 83.8784)" fill="#151011" font-family="'MyriadPro-Regular'" font-size="20.7528">+</text>
<path fill="#4965AD" d="M732.525,131.13c0,11.42-8.435,20.677-18.847,20.677h-27.961c-10.408,0-18.847-9.257-18.847-20.677v-6.059
	c0-11.421,8.438-20.681,18.847-20.681h27.961c10.412,0,18.847,9.259,18.847,20.681V131.13"/>
<text transform="matrix(1 0 0 1 678.2012 134.5098)" fill="#FFFFFF" font-family="'HelveticaNeue-CondensedBold'" font-size="24.6125">SapI</text>
<polyline fill="none" stroke="#070606" stroke-width="1.8237" stroke-linecap="round" stroke-linejoin="round" points="
	663.715,150.796 657.207,158.202 650.813,150.825 "/>
<line fill="none" stroke="#070606" stroke-width="1.8237" stroke-linecap="round" stroke-linejoin="round" x1="657.068" y1="157.336" x2="656.976" y2="113.443"/>
<g>
	<text transform="matrix(1 0 0 1 776.8945 10.9619)" fill="#151011" font-family="'Helvetica'" font-size="12.7662">r</text>
	<text transform="matrix(1 0 0 1 769.7949 10.9619)" fill="#151011" font-family="'Helvetica'" font-size="12.7662">e</text>
	<text transform="matrix(1 0 0 1 763.4121 10.9619)" fill="#151011" font-family="'Helvetica'" font-size="12.7662">v</text>
	<text transform="matrix(1 0 0 1 760.5781 10.9619)" fill="#151011" font-family="'Helvetica'" font-size="12.7662">i</text>
	<text transform="matrix(1 0 0 1 753.4805 10.9619)" fill="#151011" font-family="'Helvetica'" font-size="12.7662">e</text>
	<text transform="matrix(1 0 0 1 747.0977 10.9619)" fill="#151011" font-family="'Helvetica'" font-size="12.7662">c</text>
	<text transform="matrix(1 0 0 1 739.998 10.9619)" fill="#151011" font-family="'Helvetica'" font-size="12.7662">e</text>
	<text transform="matrix(1 0 0 1 735.748 10.9619)" fill="#151011" font-family="'Helvetica'" font-size="12.7662">r</text>
	<text transform="matrix(1 0 0 1 732.1992 10.9619)" fill="#151011" font-family="'Helvetica'" font-size="12.7662"> </text>
	<text transform="matrix(1 0 0 1 725.1016 10.9619)" fill="#151011" font-family="'Helvetica'" font-size="12.7662">n</text>
	<text transform="matrix(1 0 0 1 718.0039 10.9619)" fill="#151011" font-family="'Helvetica'" font-size="12.7662">e</text>
	<text transform="matrix(1 0 0 1 711.6211 10.9619)" fill="#151011" font-family="'Helvetica'" font-size="12.7662">v</text>
	<text transform="matrix(1 0 0 1 703.1055 10.9619)" fill="#151011" font-family="'Helvetica'" font-size="12.7662">E</text>
	<text transform="matrix(1 0 0 1 549.6445 10.9619)" fill="#151011" font-family="'Helvetica'" font-size="12.7662">s</text>
	<text transform="matrix(1 0 0 1 540.4297 10.9619)" fill="#151011" font-family="'Helvetica'" font-size="12.7662">U</text>
	<text transform="matrix(1 0 0 1 532.6289 10.9619)" fill="#151011" font-family="'Helvetica'" font-size="12.7662">T</text>
	<text transform="matrix(1 0 0 1 529.3027 10.9619)" fill="#151011" font-family="'Helvetica'" font-size="12.7662"> </text>
	<text transform="matrix(1 0 0 1 522.2031 10.9619)" fill="#151011" font-family="'Helvetica'" font-size="12.7662">1</text>
	<text transform="matrix(1 0 0 1 515.1055 10.9619)" fill="#151011" font-family="'Helvetica'" font-size="12.7662">L</text>
</g>
<text transform="matrix(1 0 0 1 229.6831 61.3589)" fill="#151011" font-family="'MyriadPro-Regular'" font-size="20.7528">+</text>
<text transform="matrix(1 0 0 1 92.6069 10.9619)" fill="#151011" font-family="'Helvetica'" font-size="12.7662">L0 parts</text>
<path fill="#FFFFFF" d="M54.021,59.503c0,10.356-8.397,18.757-18.754,18.757c-10.358,0-18.756-8.4-18.756-18.757
	c0-10.357,8.397-18.756,18.756-18.756C45.623,40.747,54.021,49.146,54.021,59.503"/>
<circle fill="none" stroke="#070606" stroke-width="1.8237" stroke-miterlimit="10" cx="35.266" cy="59.503" r="18.755"/>
<polyline fill="none" stroke="#070606" stroke-width="1.8237" stroke-linecap="round" stroke-linejoin="round" points="
	50.181,16.526 56.043,21.7 50.181,26.761 "/>
<polyline fill="none" stroke="#070606" stroke-width="1.8237" stroke-linecap="round" stroke-linejoin="round" points="
	35.341,40.33 35.341,21.7 55.353,21.7 "/>
<path fill="#FFFFFF" d="M107.931,59.503c0,10.356-8.396,18.757-18.754,18.757s-18.754-8.4-18.754-18.757
	c0-10.357,8.396-18.756,18.754-18.756S107.931,49.146,107.931,59.503"/>
<circle fill="none" stroke="#070606" stroke-width="1.8237" stroke-miterlimit="10" cx="89.177" cy="59.503" r="18.754"/>
<path fill="none" stroke="#070606" stroke-width="1.8237" stroke-linecap="round" stroke-linejoin="round" d="M84.212,40.9H94.75
	v-2.026c0-4.053-2.431-6.079-5.268-6.079c-2.837,0-5.27,2.026-5.27,6.079V40.9z"/>
<path fill="#FFFFFF" d="M159.719,59.503c0,10.356-8.395,18.757-18.754,18.757c-10.359,0-18.754-8.4-18.754-18.757
	c0-10.357,8.395-18.756,18.754-18.756C151.324,40.747,159.719,49.146,159.719,59.503"/>
<circle fill="none" stroke="#070606" stroke-width="1.8237" stroke-miterlimit="10" cx="140.965" cy="59.503" r="18.754"/>
<polyline fill="#FFFFFF" points="130.601,46.591 144.004,46.591 155.17,41.422 144.004,36.252 130.601,36.252 130.601,46.591 "/>
<polygon fill="none" stroke="#070606" stroke-width="1.8237" stroke-linecap="round" stroke-linejoin="round" points="
	130.601,46.591 144.004,46.591 155.17,41.422 144.004,36.252 130.601,36.252 "/>
<path fill="#FFFFFF" d="M215.773,59.503c0,10.356-8.398,18.757-18.756,18.757c-10.356,0-18.754-8.4-18.754-18.757
	c0-10.357,8.398-18.754,18.754-18.754C207.375,40.749,215.773,49.146,215.773,59.503"/>
<circle fill="none" stroke="#070606" stroke-width="1.8237" stroke-miterlimit="10" cx="197.018" cy="59.503" r="18.755"/>
<line fill="none" stroke="#070606" stroke-width="1.8237" stroke-linecap="round" stroke-linejoin="round" x1="196.695" y1="40.084" x2="196.695" y2="22.696"/>
<line fill="none" stroke="#070606" stroke-width="1.8237" stroke-linecap="round" stroke-linejoin="round" x1="185.824" y1="21.97" x2="207.565" y2="21.97"/>
<text transform="matrix(1 0 0 1 276.2944 10.9619)" fill="#151011" font-family="'Helvetica'" font-size="12.7662">Odd receiver</text>
<text transform="matrix(1 0 0 1 293.9761 64.686)" fill="#151011" font-family="'Helvetica'" font-size="10.9425">pOdd-1</text>
<path fill="none" stroke="#F3333A" stroke-width="1.8237" d="M370.461,66.13c0,4.711-3.538,8.53-7.9,8.53h-99.45
	c-4.363,0-7.9-3.819-7.9-8.53V53.209c0-4.713,3.538-8.533,7.9-8.533h99.45c4.363,0,7.9,3.82,7.9,8.533V66.13z"/>
<polyline fill="#C3E3D2" points="301.393,49.871 313.466,49.871 323.451,44.701 313.466,39.531 301.393,39.531 301.393,49.871 "/>
<polygon fill="none" stroke="#070606" stroke-width="1.8237" stroke-linecap="square" points="301.393,49.871 313.466,49.871 
	323.451,44.701 313.466,39.531 301.393,39.531 "/>
<polyline fill="#4B63AC" points="260.847,40.361 260.86,48.832 274.109,44.577 260.847,40.361 "/>
<path fill="#070606" d="M259.936,40.361c0.003,2.823,0.007,5.648,0.013,8.471c0,0.574,0.585,1.063,1.154,0.879
	c4.415-1.417,8.832-2.835,13.25-4.257c0.867-0.277,0.872-1.48,0-1.756c-4.421-1.406-8.842-2.811-13.262-4.216
	c-1.125-0.357-1.602,1.404-0.485,1.758c4.42,1.404,8.842,2.81,13.264,4.214c0-0.585,0-1.171,0-1.756
	c-4.417,1.417-8.835,2.836-13.252,4.257c0.385,0.292,0.77,0.585,1.155,0.877c-0.006-2.823-0.01-5.648-0.014-8.471
	C261.757,39.185,259.934,39.185,259.936,40.361"/>
<path fill="#0F1B5C" d="M277.908,44.598c0,1.746-1.413,3.161-3.159,3.161c-1.745,0-3.159-1.415-3.159-3.161
	c0-1.745,1.414-3.16,3.159-3.16C276.495,41.438,277.908,42.853,277.908,44.598"/>
<circle fill="none" stroke="#070606" stroke-width="1.8237" stroke-miterlimit="10" cx="274.75" cy="44.598" r="3.159"/>
<polyline fill="#4B63AC" points="364.239,40.467 364.214,48.936 350.969,44.661 364.239,40.467 "/>
<path fill="#070606" d="M363.327,40.467c-0.009,2.823-0.016,5.646-0.025,8.469c0.385-0.293,0.77-0.586,1.154-0.879
	c-4.413-1.425-8.829-2.849-13.244-4.275c0,0.587,0,1.172,0,1.758c4.422-1.396,8.846-2.795,13.27-4.194
	c1.116-0.354,0.64-2.116-0.485-1.758c-4.422,1.396-8.847,2.795-13.268,4.194c-0.874,0.277-0.867,1.479,0,1.758
	c4.414,1.426,8.827,2.85,13.242,4.275c0.571,0.185,1.153-0.306,1.155-0.879c0.009-2.824,0.016-5.646,0.024-8.469
	C365.155,39.291,363.332,39.291,363.327,40.467"/>
<path fill="#314892" d="M353.88,44.701c0,1.745-1.413,3.158-3.159,3.158c-1.745,0-3.161-1.413-3.161-3.158
	c0-1.746,1.416-3.161,3.161-3.161C352.467,41.541,353.88,42.956,353.88,44.701"/>
<circle fill="none" stroke="#070606" stroke-width="1.8237" stroke-miterlimit="10" cx="350.72" cy="44.701" r="3.16"/>
<polyline fill="#EF333A" points="296.56,40.336 296.591,48.808 283.316,44.619 296.56,40.336 "/>
<path fill="#070606" d="M295.648,40.336c0.009,2.826,0.021,5.647,0.031,8.472c0.383-0.293,0.768-0.585,1.152-0.879
	c-4.422-1.397-8.849-2.792-13.273-4.189c0,0.585,0,1.173,0,1.758c4.415-1.426,8.828-2.854,13.244-4.282
	c1.114-0.36,0.636-2.121-0.485-1.759c-4.415,1.429-8.829,2.854-13.244,4.283c-0.865,0.279-0.874,1.482,0,1.758
	c4.425,1.396,8.849,2.792,13.275,4.19c0.567,0.178,1.154-0.303,1.154-0.88c-0.011-2.825-0.022-5.646-0.031-8.472
	C297.466,39.162,295.643,39.16,295.648,40.336"/>
<path fill="#F4323B" d="M280.157,44.574c0,1.745,1.414,3.159,3.16,3.159c1.745,0,3.16-1.414,3.16-3.159
	c0-1.746-1.415-3.161-3.16-3.161C281.571,41.413,280.157,42.828,280.157,44.574"/>
<circle fill="none" stroke="#070606" stroke-width="1.8237" stroke-miterlimit="10" cx="283.317" cy="44.574" r="3.16"/>
<polyline fill="#EF333A" points="328.864,40.467 328.875,48.936 342.13,44.682 328.864,40.467 "/>
<path fill="#070606" d="M327.952,40.467c0.003,2.823,0.008,5.646,0.012,8.469c0.001,0.575,0.585,1.063,1.154,0.879
	c4.419-1.417,8.837-2.836,13.255-4.254c0.866-0.277,0.87-1.481,0-1.758c-4.422-1.405-8.844-2.811-13.266-4.215
	c-1.124-0.36-1.601,1.402-0.485,1.758c4.422,1.404,8.843,2.811,13.266,4.215c0-0.585,0-1.173,0-1.758
	c-4.418,1.418-8.835,2.835-13.255,4.254c0.385,0.293,0.771,0.585,1.155,0.879c-0.003-2.824-0.008-5.646-0.012-8.469
	C329.774,39.291,327.95,39.291,327.952,40.467"/>
<path fill="#F1F969" d="M338.965,44.701c0,1.745,1.416,3.158,3.161,3.158c1.745,0,3.159-1.413,3.159-3.158
	c0-1.746-1.414-3.161-3.159-3.161C340.381,41.541,338.965,42.956,338.965,44.701"/>
<circle fill="none" stroke="#070606" stroke-width="1.8237" stroke-miterlimit="10" cx="342.125" cy="44.701" r="3.16"/>
<polyline fill="#EF333A" points="12.85,52.405 17.519,57.106 22.545,47.448 12.85,52.405 "/>
<path fill="#070606" d="M12.205,53.048c1.557,1.568,3.112,3.135,4.669,4.704c0.399,0.401,1.159,0.339,1.432-0.184
	c1.676-3.221,3.351-6.44,5.026-9.658c0.43-0.827-0.426-1.669-1.248-1.248c-3.232,1.65-6.463,3.303-9.695,4.955
	c-1.047,0.536-0.125,2.11,0.92,1.576c3.232-1.653,6.463-3.305,9.695-4.958c-0.416-0.416-0.832-0.832-1.248-1.248
	c-1.676,3.219-3.351,6.44-5.026,9.659c0.478-0.062,0.955-0.125,1.432-0.184c-1.557-1.568-3.112-3.136-4.669-4.704
	C12.666,50.924,11.376,52.213,12.205,53.048"/>
<path fill="#F4323B" d="M24.267,45.675c0.965,0.964,0.965,2.529,0,3.496c-0.966,0.964-2.53,0.964-3.496,0
	c-0.964-0.967-0.966-2.532,0-3.496C21.736,44.708,23.302,44.708,24.267,45.675"/>
<circle fill="none" stroke="#070606" stroke-width="1.8237" stroke-miterlimit="10" cx="22.519" cy="47.423" r="2.472"/>
<polyline fill="#EF333A" points="57.748,52.422 53.057,57.101 48.08,47.419 57.748,52.422 "/>
<path fill="#070606" d="M57.103,51.775c-1.563,1.562-3.127,3.121-4.691,4.682c0.477,0.06,0.955,0.122,1.432,0.184
	c-1.659-3.228-3.318-6.456-4.977-9.684c-0.416,0.416-0.832,0.832-1.248,1.247c3.223,1.669,6.446,3.336,9.668,5.003
	c1.043,0.54,1.965-1.032,0.921-1.573c-3.223-1.667-6.446-3.336-9.668-5.003c-0.825-0.427-1.67,0.423-1.248,1.248
	c1.659,3.228,3.318,6.456,4.977,9.684c0.271,0.527,1.033,0.582,1.432,0.185c1.563-1.562,3.127-3.121,4.691-4.683
	C59.226,52.234,57.937,50.944,57.103,51.775"/>
<path fill="#FC7243" d="M49.816,49.175c-0.965,0.967-2.528,0.967-3.495,0c-0.965-0.964-0.966-2.53,0-3.496
	c0.966-0.964,2.531-0.964,3.496,0C50.783,46.647,50.782,48.21,49.816,49.175"/>
<path fill="none" stroke="#070606" stroke-width="1.8237" stroke-miterlimit="10" d="M49.816,49.175
	c-0.965,0.967-2.528,0.967-3.495,0c-0.965-0.964-0.966-2.53,0-3.496c0.966-0.964,2.531-0.964,3.496,0
	C50.783,46.647,50.782,48.21,49.816,49.175z"/>
<polyline fill="#EF333A" points="66.044,52.405 70.713,57.108 75.739,47.448 66.044,52.405 "/>
<path fill="#070606" d="M65.399,53.05c1.557,1.566,3.112,3.135,4.669,4.702c0.399,0.403,1.16,0.341,1.432-0.184
	c1.676-3.221,3.351-6.44,5.026-9.658c0.43-0.827-0.426-1.669-1.248-1.248c-3.231,1.65-6.463,3.304-9.695,4.956
	c-1.047,0.535-0.125,2.109,0.921,1.575c3.231-1.653,6.463-3.305,9.695-4.958c-0.416-0.416-0.832-0.832-1.248-1.248
	c-1.676,3.219-3.351,6.44-5.026,9.659c0.477-0.062,0.955-0.122,1.432-0.184c-1.557-1.566-3.112-3.136-4.669-4.702
	C65.859,50.926,64.57,52.215,65.399,53.05"/>
<path fill="#FC7243" d="M77.461,45.675c0.964,0.962,0.964,2.529-0.001,3.494c-0.965,0.964-2.531,0.964-3.495,0
	c-0.965-0.965-0.965-2.53,0-3.494C74.93,44.708,76.495,44.708,77.461,45.675"/>
<circle fill="none" stroke="#070606" stroke-width="1.8237" stroke-miterlimit="10" cx="75.713" cy="47.422" r="2.471"/>
<polyline fill="#EF333A" points="111.396,52.422 106.704,57.101 101.729,47.417 111.396,52.422 "/>
<path fill="#070606" d="M110.75,51.775c-1.563,1.562-3.127,3.121-4.691,4.68c0.477,0.062,0.955,0.124,1.432,0.184
	c-1.658-3.227-3.316-6.456-4.975-9.684c-0.416,0.416-0.832,0.832-1.248,1.247c3.223,1.668,6.444,3.337,9.667,5.004
	c1.042,0.54,1.965-1.032,0.92-1.573c-3.222-1.669-6.444-3.336-9.666-5.005c-0.826-0.427-1.671,0.423-1.248,1.248
	c1.658,3.228,3.316,6.456,4.975,9.684c0.271,0.529,1.033,0.582,1.432,0.185c1.564-1.56,3.127-3.119,4.691-4.681
	C112.874,52.235,111.584,50.946,110.75,51.775"/>
<path fill="#FDB936" d="M103.463,49.175c-0.963,0.964-2.528,0.967-3.494,0c-0.965-0.964-0.964-2.532-0.001-3.496
	c0.966-0.964,2.531-0.962,3.496,0C104.431,46.645,104.43,48.21,103.463,49.175"/>
<circle fill="none" stroke="#070606" stroke-width="1.8237" stroke-miterlimit="10" cx="101.716" cy="47.427" r="2.472"/>
<polyline fill="#EF333A" points="117.564,52.405 122.234,57.108 127.259,47.448 117.564,52.405 "/>
<path fill="#070606" d="M116.919,53.048c1.557,1.568,3.114,3.137,4.671,4.704c0.399,0.401,1.159,0.341,1.432-0.184
	c1.675-3.221,3.35-6.44,5.024-9.66c0.43-0.827-0.426-1.667-1.248-1.248c-3.232,1.652-6.463,3.305-9.695,4.957
	c-1.047,0.536-0.124,2.11,0.921,1.576c3.231-1.653,6.463-3.305,9.695-4.959c-0.416-0.416-0.832-0.832-1.248-1.248
	c-1.675,3.221-3.35,6.442-5.024,9.661c0.478-0.062,0.955-0.122,1.432-0.184c-1.557-1.566-3.114-3.136-4.671-4.704
	C117.378,50.924,116.09,52.213,116.919,53.048"/>
<path fill="#FDB936" d="M128.982,45.675c0.964,0.962,0.964,2.529,0,3.494c-0.966,0.966-2.531,0.964-3.496,0
	c-0.965-0.965-0.966-2.53,0-3.496C126.451,44.708,128.017,44.708,128.982,45.675"/>
<circle fill="none" stroke="#070606" stroke-width="1.8237" stroke-miterlimit="10" cx="127.234" cy="47.422" r="2.471"/>
<polyline fill="#EF333A" points="163.83,52.419 159.137,57.101 154.162,47.415 163.83,52.419 "/>
<path fill="#070606" d="M163.184,51.775c-1.563,1.56-3.128,3.121-4.693,4.682c0.478,0.06,0.956,0.122,1.434,0.184
	c-1.66-3.229-3.317-6.458-4.977-9.686c-0.416,0.416-0.832,0.832-1.248,1.247c3.223,1.668,6.445,3.335,9.668,5.004
	c1.042,0.54,1.965-1.034,0.92-1.573c-3.223-1.669-6.445-3.338-9.668-5.005c-0.824-0.428-1.67,0.423-1.247,1.248
	c1.657,3.228,3.317,6.456,4.975,9.686c0.271,0.527,1.034,0.582,1.431,0.185c1.564-1.562,3.13-3.123,4.693-4.683
	C165.307,52.234,164.018,50.944,163.184,51.775"/>
<path fill="#FBE464" d="M155.896,49.175c-0.965,0.964-2.53,0.967-3.495,0c-0.966-0.964-0.964-2.53,0-3.496
	c0.964-0.962,2.532-0.964,3.496,0C156.864,46.645,156.861,48.21,155.896,49.175"/>
<path fill="none" stroke="#070606" stroke-width="1.8237" stroke-miterlimit="10" d="M155.896,49.175
	c-0.965,0.964-2.53,0.967-3.495,0c-0.966-0.964-0.964-2.53,0-3.496c0.964-0.962,2.532-0.964,3.496,0
	C156.864,46.645,156.861,48.21,155.896,49.175z"/>
<polyline fill="#EF333A" points="173.338,52.405 178.009,57.108 183.037,47.45 173.338,52.405 "/>
<path fill="#070606" d="M172.695,53.05c1.556,1.566,3.113,3.135,4.669,4.702c0.4,0.403,1.16,0.341,1.434-0.184
	c1.676-3.219,3.352-6.438,5.026-9.657c0.43-0.826-0.425-1.668-1.248-1.248c-3.231,1.65-6.465,3.303-9.697,4.955
	c-1.047,0.535-0.124,2.109,0.921,1.575c3.231-1.653,6.465-3.303,9.697-4.956c-0.416-0.416-0.832-0.831-1.247-1.247
	c-1.677,3.219-3.353,6.438-5.029,9.657c0.478-0.062,0.956-0.122,1.434-0.184c-1.558-1.566-3.115-3.136-4.67-4.702
	C173.154,50.926,171.865,52.215,172.695,53.05"/>
<path fill="#FBE464" d="M184.757,45.675c0.966,0.964,0.966,2.529,0,3.496c-0.967,0.964-2.53,0.964-3.496,0
	c-0.967-0.967-0.967-2.532,0-3.496C182.228,44.708,183.791,44.708,184.757,45.675"/>
<circle fill="none" stroke="#070606" stroke-width="1.8237" stroke-miterlimit="10" cx="183.009" cy="47.423" r="2.472"/>
<polyline fill="#EF333A" points="220.062,52.419 215.367,57.103 210.392,47.419 220.062,52.419 "/>
<path fill="#070606" d="M219.416,51.775c-1.564,1.562-3.128,3.121-4.693,4.682c0.479,0.062,0.954,0.124,1.432,0.184
	c-1.658-3.228-3.315-6.456-4.975-9.684c-0.416,0.416-0.832,0.832-1.248,1.247c3.223,1.669,6.446,3.336,9.668,5.003
	c1.042,0.54,1.965-1.034,0.921-1.573c-3.223-1.669-6.446-3.336-9.668-5.003c-0.825-0.427-1.67,0.423-1.247,1.248
	c1.657,3.228,3.315,6.456,4.974,9.684c0.271,0.529,1.033,0.582,1.432,0.185c1.564-1.562,3.127-3.121,4.693-4.683
	C221.539,52.234,220.249,50.944,219.416,51.775"/>
<path fill="#F1F969" d="M212.13,49.175c-0.966,0.967-2.53,0.967-3.496,0c-0.965-0.964-0.965-2.53,0-3.496
	c0.966-0.964,2.531-0.964,3.496,0C213.096,46.645,213.094,48.208,212.13,49.175"/>
<circle fill="none" stroke="#070606" stroke-width="1.8237" stroke-miterlimit="10" cx="210.382" cy="47.427" r="2.472"/>
<polyline fill="none" stroke="#070606" stroke-width="1.8237" stroke-linecap="round" stroke-linejoin="round" points="
	202.289,150.796 195.784,158.198 189.388,150.825 "/>
<line fill="none" stroke="#070606" stroke-width="1.8237" stroke-linecap="round" stroke-linejoin="round" x1="195.644" y1="157.336" x2="195.55" y2="113.443"/>
<path fill="#F4333B" d="M270.997,131.13c0,11.416-8.438,20.674-18.847,20.674h-27.961c-10.408,0-18.847-9.258-18.847-20.674v-6.062
	c0-11.418,8.438-20.676,18.847-20.676h27.961c10.408,0,18.847,9.258,18.847,20.676V131.13"/>
<text transform="matrix(1 0 0 1 216.645 134.5137)" fill="#FFFFFF" font-family="'HelveticaNeue-CondensedBold'" font-size="24.6125">BsaI</text>
<path fill="none" stroke="#F3333A" stroke-width="1.8237" d="M252.628,322.376c0,4.752-3.536,8.601-7.9,8.601h-99.449
	c-4.364,0-7.902-3.849-7.902-8.601v-13.029c0-4.752,3.538-8.604,7.902-8.604h99.449c4.364,0,7.9,3.853,7.9,8.604V322.376z"/>
<rect x="167.618" y="296.046" fill="#FFFFFF" width="55.929" height="12.159"/>
<rect x="167.618" y="296.046" fill="none" stroke="#FFFFFF" stroke-width="1.8237" stroke-miterlimit="10" width="55.929" height="12.159"/>
<line fill="none" stroke="#070606" stroke-width="1.8237" stroke-linecap="round" stroke-linejoin="round" x1="244.978" y1="238.46" x2="294.219" y2="238.46"/>
<line fill="none" stroke="#070606" stroke-width="1.8237" stroke-linecap="round" stroke-linejoin="round" x1="270.04" y1="238.242" x2="270.04" y2="217.952"/>
<line fill="none" stroke="#070606" stroke-width="1.8237" stroke-linecap="round" stroke-linejoin="round" x1="257.355" y1="217.104" x2="282.723" y2="217.104"/>
<line fill="none" stroke="#070606" stroke-width="1.8237" stroke-linecap="round" stroke-linejoin="round" x1="153.331" y1="186.877" x2="198.924" y2="186.877"/>
<path fill="none" stroke="#070606" stroke-width="1.8237" stroke-linecap="round" stroke-linejoin="round" d="M171.497,186.835
	h11.188v-2.152c0-4.303-2.582-6.454-5.593-6.454c-3.012,0-5.595,2.151-5.595,6.454V186.835z"/>
<line fill="none" stroke="#070606" stroke-width="1.8237" stroke-linecap="round" stroke-linejoin="round" x1="110.021" y1="161.863" x2="153.79" y2="161.863"/>
<polyline fill="none" stroke="#070606" stroke-width="1.8237" stroke-linecap="round" stroke-linejoin="round" points="
	142.456,140.978 147.538,145.462 142.456,149.851 "/>
<polyline fill="none" stroke="#070606" stroke-width="1.8237" stroke-linecap="round" stroke-linejoin="round" points="
	129.596,161.608 129.596,145.462 146.94,145.462 "/>
<line fill="none" stroke="#070606" stroke-width="1.8237" stroke-linecap="round" stroke-linejoin="round" x1="202.269" y1="211.491" x2="246.039" y2="211.491"/>
<line fill="none" stroke="#070606" stroke-width="1.8237" stroke-miterlimit="10" x1="163.666" y1="293.624" x2="162.975" y2="291.936"/>
<line fill="none" stroke="#070606" stroke-width="1.8237" stroke-miterlimit="10" stroke-dasharray="3.6363,3.6363" x1="161.598" y1="288.571" x2="112.688" y2="169.103"/>
<line fill="none" stroke="#070606" stroke-width="1.8237" stroke-miterlimit="10" x1="111.999" y1="167.422" x2="111.31" y2="165.733"/>
<line fill="none" stroke="#070606" stroke-width="1.8237" stroke-miterlimit="10" stroke-dasharray="3.6475,3.6475" x1="226.89" y1="295.447" x2="290.037" y2="241.875"/>
<polyline fill="#FFFFFF" points="212.311,216.663 225.713,216.663 236.88,211.495 225.713,206.322 212.311,206.322 212.311,216.663 
	"/>
<polygon fill="none" stroke="#070606" stroke-width="1.8237" stroke-linecap="round" stroke-linejoin="round" points="
	212.311,216.663 225.713,216.663 236.88,211.495 225.713,206.322 212.311,206.322 "/>
<path fill="#F4323B" d="M114.956,161.25c0,1.746-1.414,3.16-3.159,3.16c-1.746,0-3.16-1.414-3.16-3.16
	c0-1.745,1.415-3.159,3.16-3.159C113.542,158.091,114.956,159.505,114.956,161.25"/>
<circle fill="none" stroke="#070606" stroke-width="1.8237" stroke-miterlimit="10" cx="111.796" cy="161.25" r="3.159"/>
<path fill="#FC7243" d="M156.413,161.25c0,1.746-1.415,3.16-3.16,3.16c-1.746,0-3.159-1.414-3.159-3.16
	c0-1.745,1.413-3.159,3.159-3.159C154.998,158.091,156.413,159.505,156.413,161.25"/>
<circle fill="none" stroke="#070606" stroke-width="1.8237" stroke-miterlimit="10" cx="153.253" cy="161.25" r="3.159"/>
<path fill="#FDB936" d="M203.639,186.877c0,1.746-1.415,3.16-3.16,3.16c-1.746,0-3.159-1.414-3.159-3.16s1.413-3.161,3.159-3.161
	C202.224,183.716,203.639,185.132,203.639,186.877"/>
<circle fill="none" stroke="#070606" stroke-width="1.8237" stroke-miterlimit="10" cx="200.479" cy="186.877" r="3.159"/>
<path fill="#FC7243" d="M156.413,186.877c0,1.746-1.415,3.16-3.16,3.16c-1.746,0-3.159-1.414-3.159-3.16s1.413-3.161,3.159-3.161
	C154.998,183.716,156.413,185.132,156.413,186.877"/>
<circle fill="none" stroke="#070606" stroke-width="1.8237" stroke-miterlimit="10" cx="153.253" cy="186.877" r="3.159"/>
<path fill="#FDB936" d="M203.639,211.491c0,1.746-1.415,3.16-3.16,3.16c-1.746,0-3.159-1.414-3.159-3.16
	c0-1.745,1.413-3.161,3.159-3.161C202.224,208.33,203.639,209.746,203.639,211.491"/>
<circle fill="none" stroke="#070606" stroke-width="1.8237" stroke-miterlimit="10" cx="200.479" cy="211.491" r="3.159"/>
<path fill="#FBE464" d="M248.964,211.491c0,1.746-1.414,3.16-3.159,3.16s-3.16-1.414-3.16-3.16c0-1.745,1.415-3.161,3.16-3.161
	S248.964,209.746,248.964,211.491"/>
<circle fill="none" stroke="#070606" stroke-width="1.8237" stroke-miterlimit="10" cx="245.805" cy="211.491" r="3.159"/>
<path fill="#F3FA68" d="M296.646,237.864c0,1.745-1.415,3.159-3.16,3.159c-1.746,0-3.159-1.414-3.159-3.159
	c0-1.746,1.413-3.162,3.159-3.162C295.231,234.703,296.646,236.119,296.646,237.864"/>
<circle fill="none" stroke="#070606" stroke-width="1.8237" stroke-miterlimit="10" cx="293.487" cy="237.864" r="3.159"/>
<path fill="#FBE464" d="M248.964,237.864c0,1.745-1.414,3.159-3.159,3.159s-3.16-1.414-3.16-3.159c0-1.746,1.415-3.162,3.16-3.162
	S248.964,236.119,248.964,237.864"/>
<circle fill="none" stroke="#070606" stroke-width="1.8237" stroke-miterlimit="10" cx="245.805" cy="237.864" r="3.159"/>
<text transform="matrix(1 0 0 1 176.144 320.75)" fill="#151011" font-family="'Helvetica'" font-size="10.9425">pOdd-1</text>
<polyline fill="#4B63AC" points="143.013,296.427 143.027,304.899 156.277,300.643 143.013,296.427 "/>
<path fill="#070606" d="M142.102,296.427c0.005,2.825,0.01,5.647,0.013,8.473c0.002,0.573,0.585,1.062,1.154,0.88
	c4.417-1.42,8.834-2.839,13.251-4.257c0.866-0.279,0.87-1.481,0-1.76c-4.42-1.405-8.844-2.811-13.264-4.216
	c-1.124-0.357-1.601,1.403-0.485,1.76c4.42,1.405,8.844,2.811,13.264,4.216c0-0.586,0-1.172,0-1.76
	c-4.417,1.42-8.834,2.839-13.251,4.257c0.385,0.292,0.77,0.588,1.155,0.88c-0.003-2.825-0.008-5.647-0.013-8.473
	C143.923,295.252,142.1,295.252,142.102,296.427"/>
<path fill="#0F1B5C" d="M160.076,300.664c0,1.745-1.415,3.159-3.16,3.159c-1.746,0-3.159-1.414-3.159-3.159s1.413-3.16,3.159-3.16
	C158.661,297.504,160.076,298.919,160.076,300.664"/>
<circle fill="none" stroke="#070606" stroke-width="1.8237" stroke-miterlimit="10" cx="156.917" cy="300.664" r="3.159"/>
<polyline fill="#4B63AC" points="246.406,296.532 246.382,305.002 233.137,300.729 246.406,296.532 "/>
<path fill="#070606" d="M245.494,296.532c-0.008,2.822-0.017,5.646-0.024,8.47c0.383-0.293,0.768-0.586,1.152-0.879
	c-4.413-1.425-8.827-2.85-13.242-4.274c0,0.584,0,1.173,0,1.759c4.422-1.399,8.845-2.798,13.268-4.195
	c1.118-0.354,0.64-2.114-0.485-1.76c-4.422,1.399-8.845,2.8-13.268,4.196c-0.874,0.277-0.866,1.479,0,1.759
	c4.414,1.425,8.829,2.85,13.245,4.274c0.569,0.184,1.152-0.306,1.154-0.88c0.007-2.824,0.016-5.647,0.024-8.47
	C247.321,295.356,245.498,295.356,245.494,296.532"/>
<path fill="#314892" d="M236.048,300.768c0,1.745-1.415,3.159-3.16,3.159c-1.746,0-3.159-1.414-3.159-3.159
	c0-1.746,1.413-3.16,3.159-3.16C234.633,297.607,236.048,299.021,236.048,300.768"/>
<circle fill="none" stroke="#070606" stroke-width="1.8237" stroke-miterlimit="10" cx="232.889" cy="300.768" r="3.159"/>
<path fill="#F4323B" d="M162.324,300.639c0,1.746,1.415,3.16,3.161,3.16c1.745,0,3.159-1.414,3.159-3.16
	c0-1.745-1.414-3.159-3.159-3.159C163.739,297.479,162.324,298.894,162.324,300.639"/>
<circle fill="none" stroke="#070606" stroke-width="1.8237" stroke-miterlimit="10" cx="165.483" cy="300.639" r="3.16"/>
<path fill="#EAF672" d="M221.133,300.768c0,1.745,1.414,3.159,3.16,3.159c1.745,0,3.16-1.414,3.16-3.159
	c0-1.746-1.415-3.16-3.16-3.16C222.547,297.607,221.133,299.021,221.133,300.768"/>
<circle fill="none" stroke="#070606" stroke-width="1.8237" stroke-miterlimit="10" cx="224.293" cy="300.768" r="3.16"/>
<path fill="none" stroke="#F3333A" stroke-width="1.8237" d="M527.978,59.461c0,4.713-2.856,8.529-6.379,8.529H441.3
	c-3.522,0-6.379-3.816-6.379-8.529V46.54c0-4.713,2.856-8.534,6.379-8.534h80.299c3.522,0,6.379,3.821,6.379,8.534V59.461z"/>
<line fill="none" stroke="#070606" stroke-width="1.8237" stroke-linecap="round" stroke-linejoin="round" x1="497.127" y1="37.585" x2="497.127" y2="25.607"/>
<line fill="none" stroke="#070606" stroke-width="1.8237" stroke-linecap="round" stroke-linejoin="round" x1="489.391" y1="25.356" x2="504.365" y2="25.356"/>
<polyline fill="none" stroke="#070606" stroke-width="1.8237" stroke-linecap="round" stroke-linejoin="round" points="
	471.146,21.151 475.328,24.843 471.146,28.454 "/>
<polyline fill="none" stroke="#070606" stroke-width="1.8237" stroke-linecap="round" stroke-linejoin="round" points="
	460.546,37.917 460.546,24.691 474.769,24.691 "/>
<polyline fill="#FFFFFF" points="475.093,42.453 485.419,42.453 493.957,38.032 485.419,33.611 475.093,33.611 475.093,42.453 "/>
<polygon fill="none" stroke="#070606" stroke-width="1.8237" stroke-linecap="square" points="475.093,42.453 485.419,42.453 
	493.957,38.032 485.419,33.611 475.093,33.611 "/>
<path fill="none" stroke="#070606" stroke-width="1.8237" stroke-linecap="round" stroke-linejoin="round" d="M464.959,37.917h6.49
	v-1.103c0-2.544-1.465-3.816-3.245-3.816c-1.781,0-3.245,1.271-3.245,3.816V37.917z"/>
<polyline fill="#4B63AC" points="440.331,33.923 440.342,42.393 453.593,38.138 440.331,33.923 "/>
<path fill="#070606" d="M439.419,33.923c0.004,2.823,0.008,5.646,0.011,8.469c0,0.575,0.584,1.063,1.154,0.879
	c4.417-1.417,8.834-2.836,13.251-4.254c0.867-0.278,0.871-1.481,0-1.759c-4.421-1.404-8.841-2.811-13.262-4.214
	c-1.122-0.36-1.601,1.401-0.484,1.758c4.421,1.404,8.841,2.811,13.262,4.215c0-0.586,0-1.171,0-1.759
	c-4.417,1.419-8.834,2.836-13.251,4.255c0.385,0.293,0.77,0.587,1.154,0.879c-0.004-2.824-0.007-5.646-0.011-8.469
	C441.241,32.747,439.418,32.747,439.419,33.923"/>
<path fill="#0F1B5C" d="M457.394,38.158c0,1.745-1.414,3.159-3.16,3.159c-1.745,0-3.159-1.414-3.159-3.159
	c0-1.746,1.414-3.159,3.159-3.159C455.979,34.999,457.394,36.412,457.394,38.158"/>
<circle fill="none" stroke="#070606" stroke-width="1.8237" stroke-miterlimit="10" cx="454.234" cy="38.158" r="3.16"/>
<polyline fill="#4B63AC" points="524.662,33.923 524.637,42.393 511.394,38.118 524.662,33.923 "/>
<path fill="#070606" d="M523.75,33.923c-0.009,2.823-0.017,5.646-0.025,8.469c0.385-0.292,0.77-0.586,1.154-0.879
	c-4.415-1.424-8.83-2.849-13.243-4.273c0,0.585,0,1.171,0,1.756c4.422-1.397,8.846-2.795,13.269-4.194
	c1.116-0.354,0.639-2.116-0.484-1.758c-4.423,1.396-8.847,2.795-13.269,4.196c-0.873,0.275-0.866,1.479,0,1.756
	c4.415,1.426,8.828,2.851,13.243,4.275c0.57,0.185,1.154-0.306,1.154-0.879c0.009-2.824,0.016-5.646,0.024-8.469
	C525.577,32.747,523.753,32.747,523.75,33.923"/>
<path fill="#314892" d="M514.307,38.158c0,1.745-1.414,3.159-3.159,3.159s-3.159-1.414-3.159-3.159c0-1.746,1.414-3.159,3.159-3.159
	S514.307,36.412,514.307,38.158"/>
<circle fill="none" stroke="#070606" stroke-width="1.8237" stroke-miterlimit="10" cx="511.147" cy="38.158" r="3.159"/>
<path fill="none" stroke="#FC7043" stroke-width="1.8237" d="M641.895,59.461c0,4.713-2.857,8.529-6.376,8.529h-80.302
	c-3.52,0-6.376-3.816-6.376-8.529V46.54c0-4.713,2.856-8.534,6.376-8.534h80.302c3.519,0,6.376,3.821,6.376,8.534V59.461z"/>
<line fill="none" stroke="#070606" stroke-width="1.8237" stroke-linecap="round" stroke-linejoin="round" x1="611.485" y1="37.585" x2="611.485" y2="25.607"/>
<polyline fill="none" stroke="#070606" stroke-width="1.8237" stroke-linecap="round" stroke-linejoin="round" points="
	585.504,21.151 589.686,24.843 585.504,28.454 "/>
<polyline fill="none" stroke="#070606" stroke-width="1.8237" stroke-linecap="round" stroke-linejoin="round" points="
	574.903,37.917 574.903,24.691 589.127,24.691 "/>
<polyline fill="#CDC9C1" points="589.451,42.453 599.773,42.453 608.312,38.032 599.773,33.611 589.451,33.611 589.451,42.453 "/>
<polygon fill="none" stroke="#070606" stroke-width="1.8237" stroke-linecap="square" points="589.451,42.453 599.773,42.453 
	608.312,38.032 599.773,33.611 589.451,33.611 "/>
<path fill="none" stroke="#070606" stroke-width="1.8237" stroke-linecap="round" stroke-linejoin="round" d="M579.317,37.917h6.489
	v-1.103c0-2.544-1.464-3.816-3.244-3.816c-1.781,0-3.245,1.271-3.245,3.816V37.917z"/>
<polyline fill="#4B63AC" points="554.383,33.921 554.397,42.395 567.647,38.138 554.383,33.921 "/>
<path fill="#070606" d="M553.471,33.921c0.006,2.825,0.01,5.647,0.015,8.473c0.002,0.573,0.584,1.062,1.154,0.879
	c4.417-1.419,8.834-2.838,13.25-4.256c0.868-0.28,0.871-1.483,0-1.759c-4.424-1.406-8.842-2.811-13.265-4.217
	c-1.124-0.357-1.601,1.404-0.484,1.759c4.422,1.406,8.843,2.811,13.265,4.217c0-0.588,0-1.173,0-1.759
	c-4.417,1.419-8.833,2.836-13.25,4.256c0.385,0.292,0.77,0.586,1.153,0.88c-0.005-2.826-0.009-5.648-0.014-8.473
	C555.293,32.745,553.47,32.745,553.471,33.921"/>
<path fill="#314892" d="M571.445,38.158c0,1.745-1.414,3.159-3.16,3.159c-1.745,0-3.159-1.414-3.159-3.159
	c0-1.746,1.414-3.159,3.159-3.159C570.031,34.999,571.445,36.412,571.445,38.158"/>
<circle fill="none" stroke="#070606" stroke-width="1.8237" stroke-miterlimit="10" cx="568.286" cy="38.158" r="3.16"/>
<polyline fill="#4B63AC" points="637.196,33.921 637.171,42.395 623.928,38.119 637.196,33.921 "/>
<path fill="#070606" d="M636.284,33.921c-0.009,2.825-0.016,5.647-0.025,8.473c0.385-0.294,0.77-0.588,1.154-0.88
	c-4.417-1.424-8.828-2.851-13.243-4.274c0,0.585,0,1.173,0,1.758c4.42-1.399,8.846-2.797,13.269-4.198
	c1.116-0.353,0.639-2.114-0.484-1.759c-4.423,1.399-8.847,2.798-13.269,4.199c-0.873,0.275-0.866,1.479,0,1.758
	c4.415,1.425,8.828,2.849,13.243,4.275c0.57,0.185,1.152-0.306,1.154-0.879c0.009-2.826,0.016-5.648,0.024-8.473
	C638.111,32.745,636.288,32.747,636.284,33.921"/>
<path fill="#8096B9" d="M624.408,38.158c0,1.745-1.414,3.159-3.159,3.159s-3.159-1.414-3.159-3.159c0-1.746,1.414-3.159,3.159-3.159
	S624.408,36.412,624.408,38.158"/>
<circle fill="none" stroke="#070606" stroke-width="1.8237" stroke-miterlimit="10" cx="621.249" cy="38.158" r="3.159"/>
<path fill="none" stroke="#FCB837" stroke-width="1.8237" d="M527.978,113.488c0,4.712-2.856,8.533-6.379,8.533H441.3
	c-3.522,0-6.379-3.82-6.379-8.533v-12.921c0-4.712,2.856-8.531,6.379-8.531h80.299c3.522,0,6.379,3.818,6.379,8.531V113.488z"/>
<line fill="none" stroke="#070606" stroke-width="1.8237" stroke-linecap="round" stroke-linejoin="round" x1="497.127" y1="91.612" x2="497.127" y2="79.631"/>
<line fill="none" stroke="#070606" stroke-width="1.8237" stroke-linecap="round" stroke-linejoin="round" x1="489.391" y1="79.381" x2="504.365" y2="79.381"/>
<polyline fill="none" stroke="#070606" stroke-width="1.8237" stroke-linecap="round" stroke-linejoin="round" points="
	471.146,75.176 475.328,78.869 471.146,82.48 "/>
<polyline fill="none" stroke="#070606" stroke-width="1.8237" stroke-linecap="round" stroke-linejoin="round" points="
	460.546,91.945 460.546,78.715 474.769,78.715 "/>
<polyline fill="#534B4A" points="475.093,96.481 485.419,96.481 493.957,92.061 485.419,87.638 475.093,87.638 475.093,96.481 "/>
<polygon fill="none" stroke="#070606" stroke-width="1.8237" stroke-linecap="square" points="475.093,96.481 485.419,96.481 
	493.957,92.061 485.419,87.638 475.093,87.638 "/>
<path fill="none" stroke="#070606" stroke-width="1.8237" stroke-linecap="round" stroke-linejoin="round" d="M464.959,91.945h6.49
	V90.84c0-2.543-1.465-3.815-3.245-3.815c-1.781,0-3.245,1.272-3.245,3.815V91.945z"/>
<polyline fill="#4B63AC" points="440.331,87.685 440.342,96.155 453.593,91.898 440.331,87.685 "/>
<path fill="#070606" d="M439.419,87.685c0.004,2.823,0.008,5.647,0.011,8.471c0,0.575,0.584,1.063,1.154,0.879
	c4.417-1.419,8.834-2.837,13.251-4.256c0.867-0.278,0.871-1.482,0-1.758c-4.421-1.405-8.841-2.811-13.262-4.216
	c-1.122-0.358-1.601,1.403-0.484,1.758c4.421,1.405,8.841,2.811,13.262,4.216c0-0.586,0-1.172,0-1.758
	c-4.417,1.417-8.834,2.837-13.251,4.256c0.385,0.294,0.77,0.586,1.154,0.878c-0.004-2.823-0.007-5.648-0.011-8.471
	C441.241,86.507,439.418,86.507,439.419,87.685"/>
<path fill="#8096B9" d="M457.394,91.921c0,1.744-1.414,3.158-3.16,3.158c-1.745,0-3.159-1.414-3.159-3.158
	c0-1.745,1.414-3.159,3.159-3.159C455.979,88.762,457.394,90.176,457.394,91.921"/>
<circle fill="none" stroke="#070606" stroke-width="1.8237" stroke-miterlimit="10" cx="454.234" cy="91.921" r="3.16"/>
<polyline fill="#4B63AC" points="524.662,87.685 524.637,96.155 511.394,91.882 524.662,87.685 "/>
<path fill="#070606" d="M523.75,87.685c-0.009,2.823-0.017,5.647-0.025,8.471c0.385-0.292,0.77-0.584,1.154-0.878
	c-4.415-1.425-8.83-2.85-13.243-4.274c0,0.586,0,1.172,0,1.758c4.422-1.4,8.846-2.798,13.269-4.198
	c1.116-0.353,0.639-2.112-0.484-1.758c-4.423,1.4-8.847,2.798-13.269,4.198c-0.873,0.276-0.866,1.48,0,1.758
	c4.415,1.425,8.828,2.85,13.243,4.274c0.57,0.184,1.154-0.306,1.154-0.879c0.009-2.823,0.016-5.648,0.024-8.471
	C525.577,86.507,523.753,86.507,523.75,87.685"/>
<path fill="#C3DAE8" d="M514.307,91.921c0,1.744-1.414,3.158-3.159,3.158s-3.159-1.414-3.159-3.158c0-1.745,1.414-3.159,3.159-3.159
	S514.307,90.176,514.307,91.921"/>
<circle fill="none" stroke="#070606" stroke-width="1.8237" stroke-miterlimit="10" cx="511.147" cy="91.921" r="3.159"/>
<path fill="none" stroke="#FCE263" stroke-width="1.8237" d="M641.895,113.488c0,4.712-2.857,8.533-6.38,8.533H555.22
	c-3.526,0-6.379-3.82-6.379-8.533v-12.921c0-4.712,2.853-8.531,6.379-8.531h80.295c3.522,0,6.38,3.818,6.38,8.531V113.488z"/>
<line fill="none" stroke="#070606" stroke-width="1.8237" stroke-linecap="round" stroke-linejoin="round" x1="611.485" y1="91.612" x2="611.485" y2="79.631"/>
<polyline fill="none" stroke="#070606" stroke-width="1.8237" stroke-linecap="round" stroke-linejoin="round" points="
	585.504,75.176 589.686,78.869 585.504,82.48 "/>
<polyline fill="none" stroke="#070606" stroke-width="1.8237" stroke-linecap="round" stroke-linejoin="round" points="
	574.903,91.945 574.903,78.715 589.127,78.715 "/>
<polyline fill="#100D0E" points="589.451,96.481 599.773,96.481 608.312,92.061 599.773,87.638 589.451,87.638 589.451,96.481 "/>
<polygon fill="none" stroke="#070606" stroke-width="1.8237" stroke-linecap="square" points="589.451,96.481 599.773,96.481 
	608.312,92.061 599.773,87.638 589.451,87.638 "/>
<path fill="none" stroke="#070606" stroke-width="1.8237" stroke-linecap="round" stroke-linejoin="round" d="M579.317,91.945h6.489
	V90.84c0-2.543-1.464-3.815-3.244-3.815c-1.781,0-3.245,1.272-3.245,3.815V91.945z"/>
<polyline fill="#4B63AC" points="554.383,87.685 554.397,96.155 567.647,91.9 554.383,87.685 "/>
<path fill="#070606" d="M553.471,87.685c0.006,2.823,0.01,5.647,0.015,8.471c0.002,0.575,0.584,1.063,1.154,0.879
	c4.417-1.417,8.834-2.837,13.25-4.254c0.868-0.278,0.871-1.482,0-1.758c-4.424-1.407-8.842-2.812-13.265-4.217
	c-1.124-0.358-1.601,1.403-0.484,1.758c4.422,1.407,8.843,2.812,13.265,4.218c0-0.586,0-1.172,0-1.758
	c-4.417,1.418-8.833,2.835-13.25,4.255c0.385,0.294,0.77,0.586,1.153,0.878c-0.005-2.823-0.009-5.648-0.014-8.471
	C555.293,86.507,553.47,86.507,553.471,87.685"/>
<path fill="#C3DAE8" d="M571.445,91.918c0,1.746-1.414,3.16-3.16,3.16c-1.745,0-3.159-1.414-3.159-3.16
	c0-1.744,1.414-3.158,3.159-3.158C570.031,88.76,571.445,90.174,571.445,91.918"/>
<circle fill="none" stroke="#070606" stroke-width="1.8237" stroke-miterlimit="10" cx="568.286" cy="91.918" r="3.16"/>
<polyline fill="#4B63AC" points="637.196,87.685 637.171,96.155 623.928,91.882 637.196,87.685 "/>
<path fill="#070606" d="M636.284,87.685c-0.009,2.823-0.016,5.647-0.025,8.471c0.385-0.292,0.77-0.584,1.154-0.878
	c-4.417-1.425-8.828-2.85-13.243-4.274c0,0.586,0,1.172,0,1.758c4.42-1.4,8.846-2.798,13.269-4.198
	c1.116-0.353,0.639-2.112-0.484-1.758c-4.423,1.4-8.847,2.798-13.269,4.198c-0.873,0.276-0.866,1.48,0,1.758
	c4.415,1.425,8.828,2.85,13.243,4.274c0.57,0.184,1.152-0.306,1.154-0.879c0.009-2.823,0.016-5.648,0.024-8.471
	C638.111,86.507,636.288,86.507,636.284,87.685"/>
<path fill="#9ED8AF" d="M626.838,91.918c0,1.746-1.414,3.16-3.16,3.16c-1.745,0-3.159-1.414-3.159-3.16
	c0-1.744,1.414-3.158,3.159-3.158C625.424,88.76,626.838,90.174,626.838,91.918"/>
<circle fill="none" stroke="#070606" stroke-width="1.8237" stroke-miterlimit="10" cx="623.678" cy="91.918" r="3.16"/>
<text transform="matrix(1 0 0 1 718.8633 64.686)" fill="#151011" font-family="'Helvetica'" font-size="10.9425">pEven-1</text>
<path fill="none" stroke="#0D1B5C" stroke-width="1.8237" d="M797.173,66.309c0,4.752-3.537,8.602-7.9,8.602h-99.451
	c-4.363,0-7.9-3.85-7.9-8.602V53.28c0-4.753,3.537-8.604,7.9-8.604h99.451c4.363,0,7.9,3.851,7.9,8.604V66.309z"/>
<polyline fill="#C3E3D2" points="728.105,49.871 740.177,49.871 750.161,44.701 740.177,39.531 728.105,39.531 728.105,49.871 "/>
<polygon fill="none" stroke="#070606" stroke-width="1.8237" stroke-linecap="square" points="728.105,49.871 740.177,49.871 
	750.161,44.701 740.177,39.531 728.105,39.531 "/>
<polyline fill="#EE333A" points="687.56,40.361 687.57,48.832 700.82,44.577 687.56,40.361 "/>
<path fill="#070606" d="M686.647,40.361c0.003,2.823,0.007,5.648,0.011,8.471c0,0.574,0.584,1.063,1.154,0.879
	c4.416-1.417,8.833-2.835,13.25-4.257c0.867-0.277,0.871-1.48,0-1.756c-4.42-1.406-8.841-2.811-13.261-4.216
	c-1.124-0.357-1.602,1.404-0.484,1.758c4.42,1.404,8.841,2.81,13.261,4.214c0-0.585,0-1.171,0-1.756
	c-4.417,1.417-8.834,2.836-13.25,4.257c0.384,0.292,0.769,0.585,1.153,0.877c-0.003-2.823-0.007-5.648-0.011-8.471
	C688.468,39.185,686.644,39.185,686.647,40.361"/>
<path fill="#F3323A" d="M704.621,44.598c0,1.746-1.414,3.161-3.159,3.161s-3.16-1.415-3.16-3.161c0-1.745,1.415-3.16,3.16-3.16
	S704.621,42.853,704.621,44.598"/>
<circle fill="none" stroke="#070606" stroke-width="1.8237" stroke-miterlimit="10" cx="701.461" cy="44.598" r="3.16"/>
<polyline fill="#EE333A" points="790.95,40.467 790.925,48.936 777.682,44.661 790.95,40.467 "/>
<path fill="#070606" d="M790.038,40.467c-0.009,2.823-0.017,5.646-0.025,8.469c0.385-0.293,0.77-0.586,1.154-0.879
	c-4.415-1.425-8.828-2.849-13.243-4.275c0,0.587,0,1.172,0,1.758c4.422-1.396,8.846-2.795,13.269-4.194
	c1.116-0.354,0.64-2.116-0.484-1.758c-4.423,1.396-8.849,2.795-13.269,4.194c-0.873,0.277-0.866,1.479,0,1.758
	c4.415,1.426,8.826,2.85,13.243,4.275c0.57,0.185,1.152-0.306,1.154-0.879c0.009-2.824,0.016-5.646,0.024-8.469
	C791.865,39.291,790.042,39.291,790.038,40.467"/>
<path fill="#FC7243" d="M780.592,44.701c0,1.745-1.414,3.158-3.16,3.158c-1.745,0-3.159-1.413-3.159-3.158
	c0-1.746,1.414-3.161,3.159-3.161C779.178,41.541,780.592,42.956,780.592,44.701"/>
<circle fill="none" stroke="#070606" stroke-width="1.8237" stroke-miterlimit="10" cx="777.432" cy="44.701" r="3.16"/>
<polyline fill="#4B63AC" points="723.271,40.336 723.301,48.808 710.028,44.619 723.271,40.336 "/>
<path fill="#070606" d="M722.36,40.336c0.009,2.826,0.02,5.647,0.028,8.472c0.385-0.293,0.77-0.585,1.154-0.879
	c-4.425-1.397-8.849-2.792-13.272-4.189c0,0.585,0,1.173,0,1.758c4.413-1.426,8.828-2.854,13.243-4.282
	c1.115-0.36,0.638-2.121-0.484-1.759c-4.415,1.429-8.828,2.854-13.243,4.283c-0.865,0.279-0.876,1.482,0,1.758
	c4.424,1.396,8.848,2.792,13.272,4.19c0.567,0.178,1.155-0.303,1.153-0.88c-0.009-2.825-0.02-5.646-0.028-8.472
	C724.18,39.162,722.356,39.16,722.36,40.336"/>
<path fill="#0D1B5C" d="M706.869,44.574c0,1.745,1.414,3.159,3.159,3.159s3.159-1.414,3.159-3.159c0-1.746-1.414-3.161-3.159-3.161
	S706.869,42.828,706.869,44.574"/>
<circle fill="none" stroke="#070606" stroke-width="1.8237" stroke-miterlimit="10" cx="710.028" cy="44.574" r="3.159"/>
<polyline fill="#4B63AC" points="755.576,40.467 755.586,48.936 768.841,44.682 755.576,40.467 "/>
<path fill="#070606" d="M754.664,40.467c0.003,2.823,0.007,5.646,0.011,8.469c0,0.575,0.584,1.063,1.153,0.879
	c4.419-1.417,8.836-2.836,13.255-4.254c0.867-0.277,0.87-1.481,0-1.758c-4.423-1.405-8.843-2.811-13.265-4.215
	c-1.124-0.36-1.602,1.402-0.485,1.758c4.423,1.404,8.843,2.811,13.266,4.215c0-0.585,0-1.173,0-1.758
	c-4.419,1.418-8.836,2.835-13.255,4.254c0.385,0.293,0.77,0.585,1.154,0.879c-0.004-2.824-0.007-5.646-0.011-8.469
	C756.485,39.291,754.662,39.291,754.664,40.467"/>
<path fill="#9ED8AF" d="M765.678,44.701c0,1.745,1.414,3.158,3.159,3.158s3.159-1.413,3.159-3.158c0-1.746-1.414-3.161-3.159-3.161
	S765.678,42.956,765.678,44.701"/>
<circle fill="none" stroke="#070606" stroke-width="1.8237" stroke-miterlimit="10" cx="768.837" cy="44.701" r="3.159"/>
<line fill="none" stroke="#070606" stroke-width="1.8237" stroke-linecap="round" stroke-linejoin="round" x1="573.554" y1="153.161" x2="588.524" y2="153.161"/>
<line fill="none" stroke="#F1333A" stroke-width="1.8237" stroke-linecap="round" stroke-linejoin="round" x1="539.946" y1="165.965" x2="592.835" y2="165.965"/>
<line fill="none" stroke="#070606" stroke-width="1.8237" stroke-linecap="round" stroke-linejoin="round" x1="581.29" y1="165.472" x2="581.29" y2="153.491"/>
<polyline fill="none" stroke="#070606" stroke-width="1.8237" stroke-linecap="round" stroke-linejoin="round" points="
	555.309,149.037 559.491,152.729 555.309,156.339 "/>
<polyline fill="none" stroke="#070606" stroke-width="1.8237" stroke-linecap="round" stroke-linejoin="round" points="
	544.708,165.803 544.708,152.575 558.932,152.575 "/>
<polyline fill="#FFFFFF" points="559.256,170.337 569.578,170.337 578.116,165.918 569.578,161.497 559.256,161.497 
	559.256,170.337 "/>
<polygon fill="none" stroke="#070606" stroke-width="1.8237" stroke-linecap="square" points="559.256,170.337 569.578,170.337 
	578.116,165.918 569.578,161.497 559.256,161.497 "/>
<path fill="none" stroke="#070606" stroke-width="1.8237" stroke-linecap="round" stroke-linejoin="round" d="M549.122,165.803
	h6.489v-1.104c0-2.543-1.464-3.815-3.244-3.815c-1.781,0-3.245,1.271-3.245,3.815V165.803z"/>
<line fill="none" stroke="#FC7043" stroke-width="1.8237" stroke-linecap="round" stroke-linejoin="round" x1="594.409" y1="190.511" x2="647.298" y2="190.511"/>
<line fill="none" stroke="#070606" stroke-width="1.8237" stroke-linecap="round" stroke-linejoin="round" x1="637.125" y1="190.153" x2="637.125" y2="178.175"/>
<line fill="none" stroke="#070606" stroke-width="1.8237" stroke-linecap="round" stroke-linejoin="round" x1="629.388" y1="177.926" x2="644.359" y2="177.926"/>
<polyline fill="none" stroke="#070606" stroke-width="1.8237" stroke-linecap="round" stroke-linejoin="round" points="
	611.144,173.719 615.325,177.412 611.144,181.021 "/>
<polyline fill="none" stroke="#070606" stroke-width="1.8237" stroke-linecap="round" stroke-linejoin="round" points="
	600.543,190.486 600.543,177.26 614.766,177.26 "/>
<polyline fill="#CDC9C1" points="615.09,195.02 625.413,195.02 633.951,190.6 625.413,186.179 615.09,186.179 615.09,195.02 "/>
<polygon fill="none" stroke="#070606" stroke-width="1.8237" stroke-linecap="square" points="615.09,195.02 625.413,195.02 
	633.951,190.6 625.413,186.179 615.09,186.179 "/>
<path fill="none" stroke="#070606" stroke-width="1.8237" stroke-linecap="round" stroke-linejoin="round" d="M604.956,190.486h6.49
	v-1.104c0-2.543-1.464-3.815-3.245-3.815s-3.245,1.272-3.245,3.815V190.486z"/>
<line fill="none" stroke="#FAB736" stroke-width="1.8237" stroke-linecap="round" stroke-linejoin="round" x1="650.269" y1="215.338" x2="703.157" y2="215.338"/>
<line fill="none" stroke="#070606" stroke-width="1.8237" stroke-linecap="round" stroke-linejoin="round" x1="692.524" y1="214.839" x2="692.524" y2="202.858"/>
<line fill="none" stroke="#070606" stroke-width="1.8237" stroke-linecap="round" stroke-linejoin="round" x1="684.788" y1="202.611" x2="699.763" y2="202.611"/>
<polyline fill="none" stroke="#070606" stroke-width="1.8237" stroke-linecap="round" stroke-linejoin="round" points="
	666.543,198.406 670.725,202.1 666.543,205.708 "/>
<polyline fill="none" stroke="#070606" stroke-width="1.8237" stroke-linecap="round" stroke-linejoin="round" points="
	655.942,215.172 655.942,201.946 670.166,201.946 "/>
<polyline fill="#534B4A" points="670.49,219.708 680.816,219.708 689.354,215.288 680.816,210.866 670.49,210.866 670.49,219.708 
	"/>
<polygon fill="none" stroke="#070606" stroke-width="1.8237" stroke-linecap="square" points="670.49,219.708 680.816,219.708 
	689.354,215.288 680.816,210.866 670.49,210.866 "/>
<path fill="none" stroke="#070606" stroke-width="1.8237" stroke-linecap="round" stroke-linejoin="round" d="M660.356,215.172
	h6.489v-1.104c0-2.543-1.464-3.815-3.245-3.815c-1.78,0-3.244,1.272-3.244,3.815V215.172z"/>
<line fill="none" stroke="#FBE162" stroke-width="1.8237" stroke-linecap="round" stroke-linejoin="round" x1="707.927" y1="240.031" x2="760.815" y2="240.031"/>
<line fill="none" stroke="#070606" stroke-width="1.8237" stroke-linecap="round" stroke-linejoin="round" x1="749.499" y1="239.533" x2="749.499" y2="227.554"/>
<line fill="none" stroke="#070606" stroke-width="1.8237" stroke-linecap="round" stroke-linejoin="round" x1="741.762" y1="227.305" x2="756.733" y2="227.305"/>
<polyline fill="none" stroke="#070606" stroke-width="1.8237" stroke-linecap="round" stroke-linejoin="round" points="
	723.518,223.1 727.699,226.792 723.518,230.401 "/>
<polyline fill="none" stroke="#070606" stroke-width="1.8237" stroke-linecap="round" stroke-linejoin="round" points="
	712.917,239.867 712.917,226.638 727.14,226.638 "/>
<polyline fill="#100D0E" points="727.464,244.402 737.787,244.402 746.325,239.981 737.787,235.56 727.464,235.56 727.464,244.402 
	"/>
<polygon fill="none" stroke="#070606" stroke-width="1.8237" stroke-linecap="square" points="727.464,244.402 737.787,244.402 
	746.325,239.981 737.787,235.56 727.464,235.56 "/>
<path fill="none" stroke="#070606" stroke-width="1.8237" stroke-linecap="round" stroke-linejoin="round" d="M717.33,239.867h6.49
	v-1.105c0-2.542-1.464-3.815-3.245-3.815s-3.245,1.273-3.245,3.815V239.867z"/>
<line fill="none" stroke="#070606" stroke-width="1.8237" stroke-miterlimit="10" stroke-dasharray="3.6475,3.6475" x1="697.889" y1="296.673" x2="760.05" y2="245.456"/>
<line fill="none" stroke="#070606" stroke-width="1.8237" stroke-miterlimit="10" x1="633.602" y1="294.849" x2="632.501" y2="293.394"/>
<line fill="none" stroke="#070606" stroke-width="1.8237" stroke-miterlimit="10" stroke-dasharray="3.6875,3.6875" x1="630.28" y1="290.451" x2="542.498" y2="174.216"/>
<line fill="none" stroke="#070606" stroke-width="1.8237" stroke-miterlimit="10" x1="541.387" y1="172.745" x2="540.288" y2="171.29"/>
<path fill="#0F1B5C" d="M540.939,165.983c0,1.745-1.414,3.159-3.159,3.159s-3.159-1.414-3.159-3.159c0-1.746,1.414-3.16,3.159-3.16
	S540.939,164.237,540.939,165.983"/>
<circle fill="none" stroke="#070606" stroke-width="1.8237" stroke-miterlimit="10" cx="537.78" cy="165.983" r="3.159"/>
<path fill="#314892" d="M596.485,165.983c0,1.745-1.414,3.159-3.159,3.159s-3.159-1.414-3.159-3.159c0-1.746,1.414-3.16,3.159-3.16
	S596.485,164.237,596.485,165.983"/>
<circle fill="none" stroke="#070606" stroke-width="1.8237" stroke-miterlimit="10" cx="593.326" cy="165.983" r="3.159"/>
<path fill="#8096B9" d="M652.067,190.626c0,1.746-1.414,3.16-3.16,3.16c-1.745,0-3.159-1.414-3.159-3.16s1.414-3.16,3.159-3.16
	C650.653,187.467,652.067,188.881,652.067,190.626"/>
<circle fill="none" stroke="#070606" stroke-width="1.8237" stroke-miterlimit="10" cx="648.908" cy="190.626" r="3.16"/>
<path fill="#314892" d="M596.485,190.626c0,1.746-1.414,3.16-3.159,3.16s-3.159-1.414-3.159-3.16s1.414-3.16,3.159-3.16
	S596.485,188.881,596.485,190.626"/>
<circle fill="none" stroke="#070606" stroke-width="1.8237" stroke-miterlimit="10" cx="593.326" cy="190.626" r="3.159"/>
<path fill="#8096B9" d="M652.067,215.363c0,1.746-1.414,3.158-3.16,3.158c-1.745,0-3.159-1.412-3.159-3.158s1.414-3.158,3.159-3.158
	C650.653,212.205,652.067,213.617,652.067,215.363"/>
<circle fill="none" stroke="#070606" stroke-width="1.8237" stroke-miterlimit="10" cx="648.908" cy="215.363" r="3.16"/>
<path fill="#C3DAE8" d="M707.912,240.031c0,1.746-1.414,3.16-3.159,3.16s-3.159-1.414-3.159-3.16c0-1.745,1.414-3.159,3.159-3.159
	S707.912,238.286,707.912,240.031"/>
<circle fill="none" stroke="#070606" stroke-width="1.8237" stroke-miterlimit="10" cx="704.753" cy="240.031" r="3.159"/>
<path fill="#C3DAE8" d="M707.912,215.667c0,1.745-1.414,3.159-3.159,3.159s-3.159-1.414-3.159-3.159c0-1.746,1.414-3.16,3.159-3.16
	S707.912,213.922,707.912,215.667"/>
<circle fill="none" stroke="#070606" stroke-width="1.8237" stroke-miterlimit="10" cx="704.753" cy="215.667" r="3.159"/>
<path fill="#9FD8B0" d="M764.982,239.985c0,1.745-1.414,3.159-3.159,3.159s-3.159-1.414-3.159-3.159c0-1.746,1.414-3.16,3.159-3.16
	S764.982,238.24,764.982,239.985"/>
<circle fill="none" stroke="#070606" stroke-width="1.8237" stroke-miterlimit="10" cx="761.823" cy="239.985" r="3.159"/>
<text transform="matrix(1 0 0 1 645.1143 320.75)" fill="#151011" font-family="'Helvetica'" font-size="10.9425">pEven-1</text>
<path fill="none" stroke="#0D1B5C" stroke-width="1.8237" d="M723.425,322.376c0,4.752-3.537,8.601-7.9,8.601h-99.451
	c-4.363,0-7.9-3.849-7.9-8.601v-13.029c0-4.752,3.537-8.604,7.9-8.604h99.451c4.363,0,7.9,3.853,7.9,8.604V322.376z"/>
<polyline fill="#EE333A" points="613.812,296.427 613.822,304.899 627.072,300.643 613.812,296.427 "/>
<path fill="#070606" d="M612.899,296.427c0.004,2.825,0.007,5.647,0.011,8.473c0,0.573,0.584,1.062,1.154,0.88
	c4.417-1.42,8.834-2.839,13.25-4.257c0.868-0.279,0.871-1.481,0-1.76c-4.42-1.405-8.841-2.811-13.261-4.216
	c-1.124-0.357-1.602,1.403-0.484,1.76c4.42,1.405,8.841,2.811,13.261,4.216c0-0.586,0-1.172,0-1.76
	c-4.417,1.42-8.833,2.839-13.25,4.257c0.385,0.292,0.77,0.588,1.153,0.88c-0.003-2.825-0.007-5.647-0.01-8.473
	C614.72,295.252,612.896,295.252,612.899,296.427"/>
<path fill="#F3323A" d="M630.873,300.664c0,1.745-1.414,3.159-3.159,3.159s-3.159-1.414-3.159-3.159s1.414-3.16,3.159-3.16
	S630.873,298.919,630.873,300.664"/>
<circle fill="none" stroke="#070606" stroke-width="1.8237" stroke-miterlimit="10" cx="627.714" cy="300.664" r="3.159"/>
<polyline fill="#EE333A" points="717.202,296.532 717.177,305.002 703.934,300.729 717.202,296.532 "/>
<path fill="#070606" d="M716.29,296.532c-0.009,2.822-0.016,5.646-0.024,8.47c0.384-0.293,0.769-0.586,1.153-0.879
	c-4.415-1.425-8.828-2.85-13.243-4.274c0,0.584,0,1.173,0,1.759c4.422-1.399,8.847-2.798,13.269-4.195
	c1.116-0.354,0.64-2.114-0.484-1.76c-4.422,1.399-8.848,2.8-13.269,4.196c-0.873,0.277-0.865,1.479,0,1.759
	c4.415,1.425,8.826,2.85,13.243,4.274c0.57,0.184,1.152-0.306,1.154-0.88c0.009-2.824,0.016-5.647,0.025-8.47
	C718.117,295.356,716.294,295.356,716.29,296.532"/>
<path fill="#FC7243" d="M706.844,300.768c0,1.745-1.414,3.159-3.159,3.159c-1.746,0-3.16-1.414-3.16-3.159
	c0-1.746,1.414-3.16,3.16-3.16C705.43,297.607,706.844,299.021,706.844,300.768"/>
<circle fill="none" stroke="#070606" stroke-width="1.8237" stroke-miterlimit="10" cx="703.684" cy="300.768" r="3.16"/>
<rect x="638.464" y="294.372" fill="#FFFFFF" width="55.927" height="12.158"/>
<rect x="638.464" y="294.372" fill="none" stroke="#FFFFFF" stroke-width="1.8237" stroke-miterlimit="10" width="55.927" height="12.158"/>
<path fill="#0D1B5C" d="M633.121,300.639c0,1.746,1.414,3.16,3.159,3.16s3.16-1.414,3.16-3.16c0-1.745-1.415-3.159-3.16-3.159
	S633.121,298.894,633.121,300.639"/>
<circle fill="none" stroke="#070606" stroke-width="1.8237" stroke-miterlimit="10" cx="636.281" cy="300.639" r="3.16"/>
<path fill="#9ED8AF" d="M691.93,300.768c0,1.745,1.414,3.159,3.159,3.159c1.746,0,3.16-1.414,3.16-3.159
	c0-1.746-1.414-3.16-3.16-3.16C693.344,297.607,691.93,299.021,691.93,300.768"/>
<circle fill="none" stroke="#070606" stroke-width="1.8237" stroke-miterlimit="10" cx="695.089" cy="300.768" r="3.16"/>
<text transform="matrix(1 0 0 1 107.0151 153.5596)" fill="#F3333A" font-family="'Helvetica'" font-size="12.7662">A</text>
<text transform="matrix(1 0 0 1 148.9956 179.0918)" fill="#F3333A" font-family="'Helvetica'" font-size="12.7662">B</text>
<text transform="matrix(1 0 0 1 241.1958 230.1572)" fill="#F3333A" font-family="'Helvetica'" font-size="12.7662">E</text>
<text transform="matrix(1 0 0 1 196.2212 203.6348)" fill="#F3333A" font-family="'Helvetica'" font-size="12.7662">C</text>
<text transform="matrix(1 0 0 1 289.5864 258.729)" fill="#F3333A" font-family="'Helvetica'" font-size="12.7662">F</text>
<text transform="matrix(1 0 0 1 161.1177 317.8496)" fill="#F3333A" font-family="'Helvetica'" font-size="12.7662">A</text>
<text transform="matrix(1 0 0 1 220.1636 317.8477)" fill="#F3333A" font-family="'Helvetica'" font-size="12.7662">F</text>
<text transform="matrix(1 0 0 1 589.3223 182.8945)" fill="#4965AD" font-family="'Symbol'" font-size="14.59"></text>
<text transform="matrix(1 0 0 1 533.1777 159.4512)" fill="#4965AD" font-family="'Symbol'" font-size="14.59"></text>
<text transform="matrix(1 0 0 1 645.9082 205.3887)" fill="#4965AD" font-family="'Symbol'" font-size="14.59"></text>
<text transform="matrix(1 0 0 1 701.5488 231.5303)" fill="#4965AD" font-family="'Symbol'" font-size="14.59"></text>
<text transform="matrix(1 0 0 1 756.8164 256.4536)" fill="#4965AD" font-family="'Symbol'" font-size="14.59"></text>
<text transform="matrix(1 0 0 1 632.4727 315.5527)"><tspan x="0" y="0" fill="#4965AD" font-family="'Symbol'" font-size="14.59" letter-spacing="48"></tspan><tspan x="57.876" y="0" fill="#4965AD" font-family="'Symbol'" font-size="14.59"></tspan></text>
<text transform="matrix(1 0 0 1 448.5625 29.0103)"><tspan x="0" y="0" fill="#4965AD" font-family="'Symbol'" font-size="14.59" letter-spacing="48"></tspan><tspan x="57.352" y="0" fill="#4965AD" font-family="'Symbol'" font-size="14.59" letter-spacing="49"></tspan><tspan x="115.096" y="0" fill="#4965AD" font-family="'Symbol'" font-size="14.59" letter-spacing="49"></tspan><tspan x="172.286" y="0" fill="#4965AD" font-family="'Symbol'" font-size="14.59"></tspan></text>
<text transform="matrix(1 0 0 1 451.8711 84.2651)"><tspan x="0" y="0" fill="#4965AD" font-family="'Symbol'" font-size="14.59" letter-spacing="49"></tspan><tspan x="55.035" y="0" fill="#4965AD" font-family="'Symbol'" font-size="14.59" letter-spacing="50"></tspan><tspan x="111.571" y="0" fill="#4965AD" font-family="'Symbol'" font-size="14.59" letter-spacing="50"></tspan><tspan x="168.646" y="0" fill="#4965AD" font-family="'Symbol'" font-size="14.59"></tspan></text>
<text transform="matrix(1 0 0 1 764.3027 59.3716)" fill="#4965AD" font-family="'Symbol'" font-size="14.59"></text>
<text transform="matrix(1 0 0 1 705.4082 59.3716)" fill="#4965AD" font-family="'Symbol'" font-size="14.59"></text>
<text transform="matrix(1 0 0 1 14.8169 42.1812)"><tspan x="0" y="0" fill="#F3333A" font-family="'Helvetica'" font-size="12.7662" letter-spacing="24">A</tspan><tspan x="32.86" y="0" fill="#F3333A" font-family="'Helvetica'" font-size="12.7662" letter-spacing="13">B</tspan><tspan x="54.741" y="0" fill="#F3333A" font-family="'Helvetica'" font-size="12.7662" letter-spacing="23">B</tspan><tspan x="86.465" y="0" fill="#F3333A" font-family="'Helvetica'" font-size="12.7662" letter-spacing="8">C</tspan><tspan x="104.085" y="0" fill="#F3333A" font-family="'Helvetica'" font-size="12.7662" letter-spacing="28">C</tspan><tspan x="142.066" y="0" fill="#F3333A" font-family="'Helvetica'" font-size="12.7662" letter-spacing="11">E</tspan><tspan x="161.816" y="0" fill="#F3333A" font-family="'Helvetica'" font-size="12.7662" letter-spacing="24">E</tspan><tspan x="195.008" y="0" fill="#F3333A" font-family="'Helvetica'" font-size="12.7662">F</tspan></text>
</svg>
