<?xml version="1.0" encoding="utf-8"?>
<!-- Generator: Adobe Illustrator 16.0.4, SVG Export Plug-In . SVG Version: 6.00 Build 0)  -->
<!DOCTYPE svg PUBLIC "-//W3C//DTD SVG 1.1//EN" "http://www.w3.org/Graphics/SVG/1.1/DTD/svg11.dtd">
<svg version="1.1" id="Layer_1" xmlns="http://www.w3.org/2000/svg" xmlns:xlink="http://www.w3.org/1999/xlink" x="0px" y="0px"
	 width="100px" height="100px" viewBox="0 0 100 100" enable-background="new 0 0 100 100" xml:space="preserve">
<g>
	<path fill="#010102" stroke="#010102" stroke-width="1.499" stroke-miterlimit="10" d="M97.19,49.791
		c0,3.367-0.615,6.428-1.828,9.186c-1.22,2.759-2.81,5.118-4.773,7.081c-1.965,1.964-4.233,3.459-6.807,4.485
		c-2.574,1.031-5.262,1.544-8.069,1.544c-4.487,0-8.676-1.379-12.557-4.137c-3.884-2.757-8.302-6.94-13.262-12.551
		c-1.872,2.154-3.766,4.231-5.681,6.241c-1.918,2.012-3.953,3.787-6.104,5.328c-2.154,1.542-4.444,2.783-6.875,3.718
		c-2.435,0.933-5.1,1.4-7.998,1.4c-2.807,0-5.496-0.562-8.067-1.682c-2.575-1.124-4.82-2.667-6.735-4.628
		c-1.919-1.965-3.438-4.278-4.561-6.941c-1.123-2.664-1.684-5.541-1.684-8.625c0-3.179,0.561-6.123,1.684-8.836
		c1.123-2.711,2.666-5.068,4.63-7.082c1.965-2.008,4.279-3.574,6.945-4.696c2.666-1.122,5.589-1.684,8.769-1.684
		c2.618,0,5.097,0.47,7.437,1.403c2.337,0.937,4.582,2.174,6.735,3.715c2.15,1.543,4.208,3.32,6.173,5.33
		c1.965,2.012,3.881,4.135,5.752,6.38c1.777-2.055,3.601-4.089,5.475-6.101c1.871-2.009,3.857-3.807,5.964-5.398
		c2.104-1.588,4.371-2.875,6.804-3.855c2.432-0.98,5.145-1.474,8.139-1.474c3.086,0,5.868,0.539,8.348,1.613
		c2.479,1.076,4.63,2.549,6.453,4.417c1.824,1.871,3.232,4.159,4.216,6.871c0.98,2.713,1.478,5.659,1.478,8.836V49.791
		 M24.359,65.414c2.245,0,4.372-0.449,6.384-1.433c2.01-0.98,3.904-2.197,5.682-3.694c1.776-1.494,3.46-3.096,5.051-4.826
		c1.589-1.729,3.133-3.384,4.63-4.975c-1.591-1.963-3.181-3.899-4.771-5.817c-1.59-1.917-3.297-3.646-5.121-5.189
		c-1.824-1.542-3.789-2.779-5.893-3.713c-2.104-0.933-4.42-1.403-6.945-1.403c-2.244,0-4.258,0.422-6.033,1.264
		c-1.778,0.84-3.251,2.011-4.42,3.504c-1.17,1.498-2.082,3.204-2.735,5.121c-0.656,1.918-0.982,3.949-0.982,6.1
		c0.093,4.207,1.495,7.74,4.209,10.688c2.712,2.942,6.313,4.375,10.803,4.375H24.359z M75.852,34.344
		c-2.431,0-4.698,0.571-6.803,1.692c-2.104,1.123-4.068,2.508-5.893,4.141c-1.824,1.639-3.532,3.349-5.122,5.123
		c-1.591,1.777-2.993,3.274-4.209,4.49c4.676,5.235,8.628,9.163,11.856,11.779c3.226,2.617,6.757,3.927,10.592,3.927
		c2.247,0,4.209-0.441,5.894-1.331c1.684-0.889,3.133-2.055,4.351-3.505c1.213-1.45,2.125-3.087,2.736-4.91
		c0.605-1.822,0.911-3.667,0.911-5.539c0-5.049-1.312-8.962-3.93-11.722c-2.619-2.756-6.032-4.146-10.241-4.146H75.852z"/>
	<circle fill="#F4333B" cx="18.224" cy="43.262" r="5.051"/>
	<circle fill="#FC7143" cx="30.573" cy="43.262" r="5.051"/>
	<circle fill="#FDB938" cx="18.224" cy="54.812" r="5.051"/>
	<circle fill="#FCE364" cx="30.573" cy="54.812" r="5.051"/>
	<path fill="#0F1A5D" d="M64.762,43.262c0,2.791,2.261,5.052,5.051,5.052c2.793,0,5.053-2.261,5.053-5.052
		c0-2.79-2.26-5.052-5.053-5.052C67.022,38.21,64.762,40.472,64.762,43.262z"/>
	<circle fill="#314992" cx="82.136" cy="43.262" r="5.052"/>
	<path fill="#8198BB" d="M64.762,54.812c0,2.79,2.261,5.051,5.051,5.051c2.793,0,5.053-2.261,5.053-5.051
		c0-2.791-2.26-5.05-5.053-5.05C67.022,49.762,64.762,52.021,64.762,54.812z"/>
	<circle fill="#C3DAE9" cx="82.136" cy="54.812" r="5.052"/>
</g>
</svg>
