<?xml version="1.0" encoding="utf-8"?>
<!-- Generator: Adobe Illustrator 16.0.4, SVG Export Plug-In . SVG Version: 6.00 Build 0)  -->
<!DOCTYPE svg PUBLIC "-//W3C//DTD SVG 1.1//EN" "http://www.w3.org/Graphics/SVG/1.1/DTD/svg11.dtd">
<svg version="1.1" id="Layer_1" xmlns="http://www.w3.org/2000/svg" xmlns:xlink="http://www.w3.org/1999/xlink" x="0px" y="0px"
	 width="607px" height="91px" viewBox="0 0 607 91" enable-background="new 0 0 607 91" xml:space="preserve">
<g>
	<g>
		<g>
			<defs>
				<rect id="SVGID_1_" x="-13.406" y="-23.488" width="277.534" height="160.681"/>
			</defs>
			<clipPath id="SVGID_2_">
				<use xlink:href="#SVGID_1_"  overflow="visible"/>
			</clipPath>
			<path clip-path="url(#SVGID_2_)" fill="#010102" d="M194.321,48.081c0,5.065-0.93,9.685-2.758,13.836
				c-1.833,4.155-4.23,7.712-7.187,10.664c-2.96,2.954-6.379,5.211-10.257,6.763c-3.879,1.549-7.929,2.32-12.157,2.32
				c-6.761,0-13.068-2.078-18.914-6.229c-5.846-4.156-12.504-10.457-19.973-18.906c-2.819,3.244-5.675,6.373-8.56,9.4
				c-2.89,3.028-5.952,5.701-9.192,8.026c-3.243,2.319-6.695,4.188-10.356,5.597c-3.664,1.406-7.682,2.11-12.046,2.11
				c-4.226,0-8.277-0.847-12.149-2.534c-3.879-1.688-7.259-4.013-10.146-6.966c-2.887-2.957-5.175-6.447-6.869-10.46
				c-1.689-4.014-2.537-8.342-2.537-12.985c0-4.789,0.847-9.225,2.537-13.31c1.693-4.083,4.015-7.635,6.975-10.668
				c2.958-3.023,6.447-5.385,10.461-7.073c4.017-1.693,8.418-2.537,13.207-2.537c3.943,0,7.682,0.708,11.203,2.111
				c3.519,1.412,6.899,3.273,10.144,5.599c3.238,2.32,6.339,4.997,9.298,8.026c2.96,3.028,5.846,6.228,8.665,9.605
				c2.676-3.091,5.423-6.153,8.247-9.182c2.814-3.028,5.81-5.737,8.981-8.13c3.167-2.397,6.581-4.333,10.249-5.81
				c3.662-1.479,7.746-2.218,12.255-2.218c4.651,0,8.84,0.811,12.578,2.427c3.731,1.621,6.975,3.841,9.723,6.657
				c2.748,2.814,4.871,6.266,6.348,10.346c1.479,4.083,2.23,8.52,2.23,13.304V48.081 M84.611,71.611
				c3.382,0,6.584-0.676,9.617-2.157c3.029-1.476,5.879-3.306,8.557-5.563c2.675-2.248,5.209-4.664,7.607-7.273
				c2.393-2.6,4.718-5.092,6.975-7.484c-2.399-2.964-4.79-5.878-7.184-8.77c-2.398-2.88-4.969-5.486-7.715-7.812
				c-2.746-2.322-5.706-4.185-8.876-5.591c-3.169-1.407-6.659-2.113-10.464-2.113c-3.378,0-6.412,0.634-9.085,1.903
				c-2.676,1.265-4.895,3.029-6.656,5.281c-1.765,2.251-3.138,4.824-4.122,7.709c-0.988,2.881-1.48,5.948-1.48,9.187
				c0.137,6.339,2.252,11.663,6.342,16.095c4.083,4.434,9.506,6.59,16.268,6.59H84.611L84.611,71.611z M162.172,24.814
				c-3.664,0-7.077,0.863-10.247,2.554c-3.171,1.688-6.128,3.776-8.877,6.238s-5.318,5.04-7.715,7.712
				c-2.394,2.677-4.507,4.931-6.338,6.763c7.042,7.884,12.998,13.798,17.856,17.733c4.862,3.945,10.175,5.918,15.955,5.918
				c3.382,0,6.343-0.664,8.88-2.004c2.536-1.338,4.717-3.096,6.551-5.277c1.832-2.184,3.209-4.649,4.125-7.395
				c0.915-2.744,1.374-5.527,1.374-8.34c0-7.609-1.976-13.5-5.918-17.655c-3.949-4.151-9.092-6.249-15.435-6.249L162.172,24.814
				L162.172,24.814z"/>
		</g>
	</g>
	<g>
		<g>
			<defs>
				<rect id="SVGID_3_" x="-13.406" y="-23.488" width="277.534" height="160.681"/>
			</defs>
			<clipPath id="SVGID_4_">
				<use xlink:href="#SVGID_3_"  overflow="visible"/>
			</clipPath>
			<g clip-path="url(#SVGID_4_)">
				<g enable-background="new    ">
					<path d="M239.517,195.446h10.042v8.102c2.059-2.776,4.31-4.926,6.75-6.447c3.47-2.282,7.55-3.424,12.241-3.424
						c6.941,0,12.833,2.653,17.677,7.96c4.842,5.307,7.265,12.886,7.265,22.737c0,13.313-3.495,22.822-10.482,28.528
						c-4.43,3.613-9.585,5.42-15.466,5.42c-4.621,0-8.497-1.008-11.628-3.023c-1.833-1.142-3.876-3.1-6.129-5.877v31.21h-10.27
						V195.446z M278.156,243.345c3.187-4.013,4.78-10.013,4.78-18.001c0-4.868-0.706-9.053-2.118-12.553
						c-2.672-6.732-7.557-10.099-14.656-10.099c-7.138,0-12.023,3.557-14.657,10.669c-1.412,3.805-2.118,8.636-2.118,14.493
						c0,4.717,0.706,8.729,2.118,12.039c2.671,6.314,7.557,9.471,14.657,9.471C270.971,249.364,274.969,247.358,278.156,243.345z"/>
					<path d="M338.112,219.287c2.357-0.304,3.936-1.291,4.734-2.962c0.457-0.916,0.684-2.233,0.684-3.952
						c0-3.513-1.242-6.062-3.729-7.646c-2.486-1.584-6.047-2.377-10.676-2.377c-5.354,0-9.15,1.453-11.391,4.358
						c-1.252,1.606-2.068,3.995-2.447,7.167h-9.586c0.189-7.553,2.631-12.808,7.322-15.764c4.693-2.956,10.135-4.435,16.328-4.435
						c7.18,0,13.012,1.37,17.496,4.108c4.445,2.739,6.668,6.999,6.668,12.782v35.205c0,1.065,0.219,1.922,0.656,2.567
						c0.436,0.646,1.359,0.968,2.768,0.968c0.455,0,0.969-0.028,1.539-0.086c0.57-0.057,1.18-0.142,1.826-0.256v7.588
						c-1.598,0.457-2.814,0.742-3.652,0.856c-0.836,0.113-1.977,0.171-3.422,0.171c-3.539,0-6.105-1.256-7.703-3.765
						c-0.838-1.331-1.426-3.214-1.77-5.648c-2.092,2.739-5.098,5.116-9.014,7.132c-3.918,2.015-8.236,3.022-12.953,3.022
						c-5.668,0-10.299-1.72-13.893-5.157c-3.595-3.438-5.392-7.74-5.392-12.907c0-5.66,1.769-10.048,5.306-13.163
						s8.178-5.034,13.922-5.757L338.112,219.287z M316.485,247.031c2.17,1.708,4.736,2.562,7.703,2.562
						c3.613,0,7.113-0.835,10.498-2.506c5.707-2.772,8.559-7.311,8.559-13.615v-8.26c-1.252,0.802-2.865,1.469-4.84,2.003
						c-1.973,0.535-3.91,0.916-5.809,1.144l-6.205,0.798c-3.721,0.493-6.518,1.271-8.393,2.335c-3.178,1.783-4.766,4.63-4.766,8.538
						C313.233,242.989,314.317,245.323,316.485,247.031z"/>
					<path d="M376.453,237.098c0.311,3.423,1.183,6.048,2.62,7.874c2.64,3.309,7.221,4.964,13.743,4.964
						c3.882,0,7.298-0.827,10.249-2.482c2.951-1.654,4.427-4.212,4.427-7.674c0-2.625-1.18-4.622-3.538-5.991
						c-1.508-0.836-4.484-1.806-8.929-2.91l-8.292-2.054c-5.296-1.293-9.201-2.738-11.713-4.336
						c-4.484-2.776-6.727-6.619-6.727-11.525c0-5.782,2.11-10.461,6.331-14.036s9.897-5.363,17.029-5.363
						c9.329,0,16.055,2.701,20.18,8.102c2.582,3.424,3.836,7.113,3.76,11.069h-9.699c-0.195-2.308-1.032-4.407-2.512-6.299
						c-2.414-2.686-6.601-4.028-12.558-4.028c-3.972,0-6.979,0.738-9.024,2.217c-2.044,1.479-3.065,3.431-3.065,5.855
						c0,2.653,1.343,4.776,4.029,6.368c1.55,0.947,3.837,1.783,6.859,2.505l6.918,1.655c7.519,1.788,12.557,3.519,15.115,5.191
						c3.994,2.625,5.991,6.753,5.991,12.382c0,5.439-2.09,10.138-6.269,14.093c-4.179,3.956-10.542,5.934-19.092,5.934
						c-9.204,0-15.722-2.063-19.554-6.19s-5.883-9.233-6.152-15.319H376.453z"/>
					<path d="M462.348,197.044c1.818,1.141,3.883,3.138,6.194,5.99v-30.867h9.871v84.102h-9.243v-8.502
						c-2.388,3.767-5.211,6.486-8.47,8.159c-3.259,1.674-6.991,2.511-11.197,2.511c-6.782,0-12.655-2.861-17.62-8.587
						c-4.964-5.725-7.445-13.342-7.445-22.852c0-8.9,2.264-16.612,6.791-23.136c4.528-6.523,10.998-9.786,19.41-9.786
						C455.3,194.076,459.202,195.066,462.348,197.044z M439.422,242.86c2.763,4.413,7.191,6.618,13.284,6.618
						c4.73,0,8.618-2.044,11.666-6.134c3.046-4.088,4.569-9.956,4.569-17.602c0-7.722-1.57-13.437-4.711-17.146
						c-3.143-3.709-7.021-5.563-11.639-5.563c-5.147,0-9.319,1.979-12.518,5.935c-3.197,3.956-4.796,9.776-4.796,17.459
						C435.278,232.971,436.659,238.448,439.422,242.86z"/>
					<path d="M526.514,219.287c2.357-0.304,3.937-1.291,4.735-2.962c0.456-0.916,0.684-2.233,0.684-3.952
						c0-3.513-1.243-6.062-3.729-7.646c-2.486-1.584-6.046-2.377-10.676-2.377c-5.353,0-9.15,1.453-11.39,4.358
						c-1.252,1.606-2.068,3.995-2.448,7.167h-9.585c0.189-7.553,2.631-12.808,7.322-15.764c4.692-2.956,10.135-4.435,16.327-4.435
						c7.181,0,13.013,1.37,17.496,4.108c4.445,2.739,6.668,6.999,6.668,12.782v35.205c0,1.065,0.219,1.922,0.656,2.567
						c0.437,0.646,1.359,0.968,2.768,0.968c0.456,0,0.97-0.028,1.54-0.086c0.57-0.057,1.179-0.142,1.826-0.256v7.588
						c-1.598,0.457-2.815,0.742-3.652,0.856c-0.837,0.113-1.978,0.171-3.423,0.171c-3.538,0-6.105-1.256-7.703-3.765
						c-0.837-1.331-1.426-3.214-1.769-5.648c-2.093,2.739-5.098,5.116-9.015,7.132c-3.918,2.015-8.236,3.022-12.952,3.022
						c-5.668,0-10.299-1.72-13.894-5.157s-5.392-7.74-5.392-12.907c0-5.66,1.769-10.048,5.307-13.163
						c3.537-3.115,8.178-5.034,13.922-5.757L526.514,219.287z M504.888,247.031c2.169,1.708,4.736,2.562,7.703,2.562
						c3.613,0,7.112-0.835,10.498-2.506c5.706-2.772,8.559-7.311,8.559-13.615v-8.26c-1.253,0.802-2.866,1.469-4.84,2.003
						c-1.974,0.535-3.91,0.916-5.809,1.144l-6.206,0.798c-3.721,0.493-6.518,1.271-8.393,2.335c-3.177,1.783-4.765,4.63-4.765,8.538
						C501.636,242.989,502.72,245.323,504.888,247.031z"/>
					<path d="M564.854,237.098c0.311,3.423,1.183,6.048,2.62,7.874c2.64,3.309,7.221,4.964,13.743,4.964
						c3.882,0,7.298-0.827,10.249-2.482c2.951-1.654,4.427-4.212,4.427-7.674c0-2.625-1.18-4.622-3.538-5.991
						c-1.508-0.836-4.484-1.806-8.929-2.91l-8.292-2.054c-5.296-1.293-9.201-2.738-11.713-4.336
						c-4.484-2.776-6.727-6.619-6.727-11.525c0-5.782,2.11-10.461,6.331-14.036s9.897-5.363,17.029-5.363
						c9.329,0,16.055,2.701,20.18,8.102c2.582,3.424,3.836,7.113,3.76,11.069h-9.699c-0.195-2.308-1.032-4.407-2.512-6.299
						c-2.414-2.686-6.601-4.028-12.558-4.028c-3.972,0-6.979,0.738-9.024,2.217c-2.044,1.479-3.065,3.431-3.065,5.855
						c0,2.653,1.343,4.776,4.029,6.368c1.55,0.947,3.837,1.783,6.859,2.505l6.918,1.655c7.519,1.788,12.557,3.519,15.115,5.191
						c3.994,2.625,5.991,6.753,5.991,12.382c0,5.439-2.09,10.138-6.269,14.093c-4.179,3.956-10.542,5.934-19.092,5.934
						c-9.204,0-15.722-2.063-19.554-6.19s-5.883-9.233-6.152-15.319H564.854z"/>
					<path d="M650.75,197.044c1.818,1.141,3.883,3.138,6.194,5.99v-30.867h9.871v84.102h-9.243v-8.502
						c-2.388,3.767-5.211,6.486-8.47,8.159c-3.259,1.674-6.991,2.511-11.197,2.511c-6.782,0-12.655-2.861-17.62-8.587
						c-4.964-5.725-7.445-13.342-7.445-22.852c0-8.9,2.264-16.612,6.791-23.136c4.528-6.523,10.998-9.786,19.41-9.786
						C643.702,194.076,647.604,195.066,650.75,197.044z M627.824,242.86c2.763,4.413,7.191,6.618,13.284,6.618
						c4.73,0,8.618-2.044,11.666-6.134c3.046-4.088,4.569-9.956,4.569-17.602c0-7.722-1.57-13.437-4.711-17.146
						c-3.143-3.709-7.021-5.563-11.639-5.563c-5.147,0-9.319,1.979-12.518,5.935c-3.197,3.956-4.796,9.776-4.796,17.459
						C623.681,232.971,625.062,238.448,627.824,242.86z"/>
				</g>
			</g>
		</g>
	</g>
	<g>
		<g>
			<defs>
				<rect id="SVGID_5_" x="-13.406" y="-23.488" width="277.534" height="160.681"/>
			</defs>
			<clipPath id="SVGID_6_">
				<use xlink:href="#SVGID_5_"  overflow="visible"/>
			</clipPath>
			<path clip-path="url(#SVGID_6_)" fill="#F3323A" d="M83.307,40.687c0,3.352-2.72,6.066-6.069,6.066
				c-3.354,0-6.07-2.714-6.07-6.066s2.715-6.062,6.07-6.062C80.587,34.624,83.307,37.335,83.307,40.687"/>
		</g>
	</g>
	<g>
		<g>
			<defs>
				<rect id="SVGID_7_" x="-13.406" y="-23.488" width="277.534" height="160.681"/>
			</defs>
			<clipPath id="SVGID_8_">
				<use xlink:href="#SVGID_7_"  overflow="visible"/>
			</clipPath>
			
				<circle clip-path="url(#SVGID_8_)" fill="none" stroke="#F4333B" stroke-width="1.6554" stroke-miterlimit="10" cx="77.236" cy="40.687" r="6.07"/>
		</g>
	</g>
	<g>
		<g>
			<defs>
				<rect id="SVGID_9_" x="-13.406" y="-23.488" width="277.534" height="160.681"/>
			</defs>
			<clipPath id="SVGID_10_">
				<use xlink:href="#SVGID_9_"  overflow="visible"/>
			</clipPath>
			<path clip-path="url(#SVGID_10_)" fill="#FC7042" d="M98.771,40.687c0,3.352-2.719,6.066-6.071,6.066s-6.068-2.714-6.068-6.066
				s2.716-6.062,6.068-6.062S98.771,37.335,98.771,40.687"/>
		</g>
	</g>
	<g>
		<g>
			<defs>
				<rect id="SVGID_11_" x="-13.406" y="-23.488" width="277.534" height="160.681"/>
			</defs>
			<clipPath id="SVGID_12_">
				<use xlink:href="#SVGID_11_"  overflow="visible"/>
			</clipPath>
			
				<circle clip-path="url(#SVGID_12_)" fill="none" stroke="#FC7143" stroke-width="1.6554" stroke-miterlimit="10" cx="92.7" cy="40.687" r="6.07"/>
		</g>
	</g>
	<g>
		<g>
			<defs>
				<rect id="SVGID_13_" x="-13.406" y="-23.488" width="277.534" height="160.681"/>
			</defs>
			<clipPath id="SVGID_14_">
				<use xlink:href="#SVGID_13_"  overflow="visible"/>
			</clipPath>
			<path clip-path="url(#SVGID_14_)" fill="#FCB937" d="M83.307,56.092c0,3.348-2.72,6.067-6.069,6.067
				c-3.354,0-6.07-2.72-6.07-6.067c0-3.354,2.715-6.068,6.07-6.068C80.587,50.021,83.307,52.738,83.307,56.092"/>
		</g>
	</g>
	<g>
		<g>
			<defs>
				<rect id="SVGID_15_" x="-13.406" y="-23.488" width="277.534" height="160.681"/>
			</defs>
			<clipPath id="SVGID_16_">
				<use xlink:href="#SVGID_15_"  overflow="visible"/>
			</clipPath>
			<path clip-path="url(#SVGID_16_)" fill="none" stroke="#FDB938" stroke-width="1.6554" stroke-miterlimit="10" d="M83.307,56.092
				c0,3.348-2.72,6.067-6.069,6.067c-3.354,0-6.07-2.72-6.07-6.067c0-3.354,2.715-6.068,6.07-6.068
				C80.587,50.021,83.307,52.738,83.307,56.092z"/>
		</g>
	</g>
	<g>
		<g>
			<defs>
				<rect id="SVGID_17_" x="-13.406" y="-23.488" width="277.534" height="160.681"/>
			</defs>
			<clipPath id="SVGID_18_">
				<use xlink:href="#SVGID_17_"  overflow="visible"/>
			</clipPath>
			<path clip-path="url(#SVGID_18_)" fill="#FCE263" d="M98.771,56.092c0,3.348-2.719,6.067-6.071,6.067s-6.068-2.72-6.068-6.067
				c0-3.354,2.716-6.068,6.068-6.068C96.051,50.021,98.771,52.738,98.771,56.092"/>
		</g>
	</g>
	<g>
		<g>
			<defs>
				<rect id="SVGID_19_" x="-13.406" y="-23.488" width="277.534" height="160.681"/>
			</defs>
			<clipPath id="SVGID_20_">
				<use xlink:href="#SVGID_19_"  overflow="visible"/>
			</clipPath>
			<path clip-path="url(#SVGID_20_)" fill="none" stroke="#FCE464" stroke-width="1.6554" stroke-miterlimit="10" d="M98.771,56.092
				c0,3.348-2.719,6.067-6.071,6.067s-6.068-2.72-6.068-6.067c0-3.354,2.716-6.068,6.068-6.068
				C96.051,50.021,98.771,52.738,98.771,56.092z"/>
		</g>
	</g>
	<g>
		<g>
			<defs>
				<rect id="SVGID_21_" x="-13.406" y="-23.488" width="277.534" height="160.681"/>
			</defs>
			<clipPath id="SVGID_22_">
				<use xlink:href="#SVGID_21_"  overflow="visible"/>
			</clipPath>
			<path clip-path="url(#SVGID_22_)" fill="#0E1A5A" d="M160.304,40.638c0,3.352-2.719,6.066-6.072,6.066
				c-3.354,0-6.074-2.714-6.074-6.066s2.719-6.066,6.074-6.066C157.585,34.572,160.304,37.287,160.304,40.638"/>
		</g>
	</g>
	<g>
		<g>
			<defs>
				<rect id="SVGID_23_" x="-13.406" y="-23.488" width="277.534" height="160.681"/>
			</defs>
			<clipPath id="SVGID_24_">
				<use xlink:href="#SVGID_23_"  overflow="visible"/>
			</clipPath>
			
				<circle clip-path="url(#SVGID_24_)" fill="none" stroke="#0F1A5D" stroke-width="1.6554" stroke-miterlimit="10" cx="154.231" cy="40.638" r="6.072"/>
		</g>
	</g>
	<g>
		<g>
			<defs>
				<rect id="SVGID_25_" x="-13.406" y="-23.488" width="277.534" height="160.681"/>
			</defs>
			<clipPath id="SVGID_26_">
				<use xlink:href="#SVGID_25_"  overflow="visible"/>
			</clipPath>
			<path clip-path="url(#SVGID_26_)" fill="#314A94" d="M175.767,40.638c0,3.352-2.723,6.066-6.078,6.066s-6.072-2.714-6.072-6.066
				s2.716-6.066,6.072-6.066C173.042,34.572,175.767,37.287,175.767,40.638"/>
		</g>
	</g>
	<g>
		<g>
			<defs>
				<rect id="SVGID_27_" x="-13.406" y="-23.488" width="277.534" height="160.681"/>
			</defs>
			<clipPath id="SVGID_28_">
				<use xlink:href="#SVGID_27_"  overflow="visible"/>
			</clipPath>
			
				<ellipse clip-path="url(#SVGID_28_)" fill="none" stroke="#314992" stroke-width="1.6554" stroke-miterlimit="10" cx="169.691" cy="40.638" rx="6.075" ry="6.066"/>
		</g>
	</g>
	<g>
		<g>
			<defs>
				<rect id="SVGID_29_" x="-13.406" y="-23.488" width="277.534" height="160.681"/>
			</defs>
			<clipPath id="SVGID_30_">
				<use xlink:href="#SVGID_29_"  overflow="visible"/>
			</clipPath>
			<path clip-path="url(#SVGID_30_)" fill="#7F96BA" d="M160.304,56.145c0,3.353-2.719,6.066-6.072,6.066
				c-3.357,0-6.074-2.715-6.074-6.066c0-3.354,2.717-6.068,6.074-6.068C157.585,50.074,160.304,52.79,160.304,56.145"/>
		</g>
	</g>
	<g>
		<g>
			<defs>
				<rect id="SVGID_31_" x="-13.406" y="-23.488" width="277.534" height="160.681"/>
			</defs>
			<clipPath id="SVGID_32_">
				<use xlink:href="#SVGID_31_"  overflow="visible"/>
			</clipPath>
			
				<circle clip-path="url(#SVGID_32_)" fill="none" stroke="#8197BB" stroke-width="1.6554" stroke-miterlimit="10" cx="154.231" cy="56.144" r="6.074"/>
		</g>
	</g>
	<g>
		<g>
			<defs>
				<rect id="SVGID_33_" x="-13.406" y="-23.488" width="277.534" height="160.681"/>
			</defs>
			<clipPath id="SVGID_34_">
				<use xlink:href="#SVGID_33_"  overflow="visible"/>
			</clipPath>
			<path clip-path="url(#SVGID_34_)" fill="#C3D9E8" d="M175.767,56.145c0,3.353-2.723,6.066-6.078,6.066s-6.072-2.715-6.072-6.066
				c0-3.354,2.716-6.068,6.072-6.068C173.042,50.074,175.767,52.79,175.767,56.145"/>
		</g>
	</g>
	<g>
		<g>
			<defs>
				<rect id="SVGID_35_" x="-13.406" y="-23.488" width="277.534" height="160.681"/>
			</defs>
			<clipPath id="SVGID_36_">
				<use xlink:href="#SVGID_35_"  overflow="visible"/>
			</clipPath>
			
				<ellipse clip-path="url(#SVGID_36_)" fill="none" stroke="#C3DAE9" stroke-width="1.6554" stroke-miterlimit="10" cx="169.691" cy="56.143" rx="6.075" ry="6.068"/>
		</g>
	</g>
</g>
<g enable-background="new    ">
	<path fill="#666666" d="M243.127,81.456c0-0.8,0.54-1.199,1.62-1.199h34.68c1.399,0,2.1,0.399,2.1,1.199s-0.561,1.2-1.68,1.2
		h-35.04C243.688,82.656,243.127,82.256,243.127,81.456z"/>
	<path fill="#666666" d="M288.607,66.816l16.065-42.18h4.695l15.992,42.18h-4.172l-4.777-12.6h-19.151l-4.795,12.6H288.607z
		 M298.468,51.036h16.735l-7.33-19.341l-1.021-2.692L298.468,51.036z"/>
	<path fill="#666666" d="M330.126,63.869l0.721-4.181c4.439,3.312,9.039,4.968,13.8,4.968c3.12,0,5.619-0.873,7.5-2.618
		c1.88-1.746,2.819-3.716,2.819-5.908c0-1.583-0.51-3.075-1.529-4.476c-1.021-1.4-2.451-2.467-4.29-3.198
		c-0.946-0.193-2.683-0.582-5.21-1.165s-4.741-1.316-6.641-2.199c-1.9-0.883-3.471-2.229-4.71-4.036c-1.2-1.686-1.8-3.553-1.8-5.601
		c0-2.909,1.3-5.519,3.9-7.831c2.6-2.312,6.039-3.468,10.319-3.468c3.96,0,7.801,0.926,11.521,2.775l-0.72,4.161
		c-1.161-0.808-2.062-1.403-2.7-1.788c-0.641-0.383-1.721-0.807-3.24-1.271c-1.521-0.464-3.141-0.697-4.86-0.697
		c-3.08,0-5.58,0.757-7.5,2.27s-2.88,3.297-2.88,5.354c0,1.412,0.359,2.734,1.078,3.964c0.72,1.23,1.739,2.188,3.062,2.874
		c0.698,0.18,2.358,0.607,4.981,1.282s4.303,1.108,5.042,1.297c3.362,1.096,5.872,2.708,7.53,4.836
		c1.657,2.129,2.487,4.309,2.487,6.538c0,3.2-1.341,6.015-4.021,8.443c-2.681,2.429-6.08,3.643-10.2,3.643
		C339.546,67.836,334.726,66.515,330.126,63.869z"/>
	<path fill="#666666" d="M365.105,63.869l0.721-4.181c4.439,3.312,9.039,4.968,13.8,4.968c3.12,0,5.619-0.873,7.5-2.618
		c1.88-1.746,2.819-3.716,2.819-5.908c0-1.583-0.51-3.075-1.529-4.476c-1.021-1.4-2.451-2.467-4.29-3.198
		c-0.946-0.193-2.683-0.582-5.21-1.165s-4.741-1.316-6.641-2.199c-1.9-0.883-3.471-2.229-4.71-4.036c-1.2-1.686-1.8-3.553-1.8-5.601
		c0-2.909,1.3-5.519,3.9-7.831c2.6-2.312,6.039-3.468,10.319-3.468c3.96,0,7.801,0.926,11.521,2.775l-0.72,4.161
		c-1.161-0.808-2.062-1.403-2.7-1.788c-0.641-0.383-1.721-0.807-3.24-1.271c-1.521-0.464-3.141-0.697-4.86-0.697
		c-3.08,0-5.58,0.757-7.5,2.27s-2.88,3.297-2.88,5.354c0,1.412,0.359,2.734,1.078,3.964c0.72,1.23,1.739,2.188,3.062,2.874
		c0.698,0.18,2.358,0.607,4.981,1.282s4.303,1.108,5.042,1.297c3.362,1.096,5.872,2.708,7.53,4.836
		c1.657,2.129,2.487,4.309,2.487,6.538c0,3.2-1.341,6.015-4.021,8.443c-2.681,2.429-6.08,3.643-10.2,3.643
		C374.525,67.836,369.705,66.515,365.105,63.869z"/>
	<path fill="#666666" d="M403.205,66.816v-41.58h28.08v3.18h-23.88v15.181h22.14v3.18h-22.14v16.86h24.78v3.18H403.205z"/>
	<path fill="#666666" d="M440.885,66.816v-41.7h5.521l12.048,29.828l2.832,7.012l0.84-2.399l13.92-34.44h5.58v41.7h-3.78v-37.8
		l-4.668,12l-10.115,24.78h-3.591l-12.518-31.264l-2.288-5.715v37.998H440.885z"/>
	<path fill="#666666" d="M493.745,66.816v-41.7h13.412c2.914,0,5.5,0.347,7.755,1.039c2.256,0.691,3.982,1.582,5.18,2.67
		s2.096,2.205,2.694,3.352c0.599,1.147,0.898,2.255,0.898,3.322c0,0.642-0.121,1.304-0.36,1.985
		c-0.24,0.681-0.691,1.513-1.353,2.494c-0.662,0.982-1.784,1.914-3.366,2.796c-1.583,0.882-3.536,1.604-5.859,2.164
		c3.469,0.485,6.438,1.696,8.911,3.634c2.471,1.938,3.707,4.26,3.707,6.964c0,2.88-1.314,5.37-3.944,7.471
		c-2.631,2.1-5.799,3.329-9.505,3.689c-0.717,0.081-1.772,0.12-3.168,0.12H493.745z M497.645,43.477h7.761
		c2.728-0.118,4.783-0.317,6.167-0.595s2.917-0.933,4.603-1.965c2.446-1.508,3.67-3.273,3.67-5.299c0-1.785-1.193-3.452-3.58-5
		s-5.967-2.321-10.738-2.321h-7.821l-0.061,2.143V43.477z M497.645,63.637h9.625c4.771,0,8.33-0.85,10.676-2.551
		c2.346-1.699,3.52-3.569,3.52-5.609c0-0.88-0.261-1.79-0.782-2.73c-0.521-0.939-1.323-1.879-2.406-2.819
		c-1.083-0.939-2.646-1.72-4.691-2.341c-2.046-0.619-4.392-0.93-7.038-0.93h-8.842l-0.061,2.34V63.637z"/>
	<path fill="#666666" d="M534.904,66.816v-41.7h4.2v38.521h21.3v3.18H534.904z"/>
	<path fill="#666666" d="M557.944,25.116h5.025l15.294,21.26l15.244-21.26h4.575l-17.938,25.021v16.68h-4.2V50.139L557.944,25.116z"
		/>
</g>
<g>
	<g enable-background="new    ">
		<path d="M8.319,12.138h9.328v60.656h34.547v8.203H8.319V12.138z"/>
	</g>
</g>
<g enable-background="new    ">
	<path d="M204.028,12.138h30.813c6.091,0,11.01,1.727,14.756,5.18c3.745,3.453,5.618,8.305,5.618,14.555
		c0,5.375-1.671,10.055-5.014,14.039c-3.343,3.984-8.457,5.977-15.345,5.977h-21.501v29.109h-9.328V12.138z M240.208,21.606
		c-2.048-0.969-4.855-1.453-8.423-1.453h-18.429v23.859h18.429c4.157,0,7.532-0.891,10.122-2.672s3.886-4.922,3.886-9.422
		C245.793,26.856,243.932,23.419,240.208,21.606z"/>
</g>
</svg>
