<?xml version="1.0" encoding="utf-8"?>
<!-- Generator: Adobe Illustrator 16.0.4, SVG Export Plug-In . SVG Version: 6.00 Build 0)  -->
<!DOCTYPE svg PUBLIC "-//W3C//DTD SVG 1.1//EN" "http://www.w3.org/Graphics/SVG/1.1/DTD/svg11.dtd">
<svg version="1.1" id="Layer_1" xmlns="http://www.w3.org/2000/svg" xmlns:xlink="http://www.w3.org/1999/xlink" x="0px" y="0px"
	 width="181.938px" height="105.333px" viewBox="0 0 181.938 105.333" enable-background="new 0 0 181.938 105.333"
	 xml:space="preserve">
<g>
	<defs>
		<rect id="SVGID_1_" width="181.363" height="105"/>
	</defs>
	<clipPath id="SVGID_2_">
		<use xlink:href="#SVGID_1_"  overflow="visible"/>
	</clipPath>
	<path clip-path="url(#SVGID_2_)" fill="#010102" d="M135.746,46.767c0,3.311-0.607,6.325-1.802,9.039
		c-1.198,2.716-2.765,5.039-4.697,6.969c-1.934,1.931-4.168,3.405-6.7,4.418c-2.534,1.013-5.18,1.519-7.942,1.519
		c-4.419,0-8.54-1.358-12.36-4.072c-3.82-2.716-8.172-6.831-13.053-12.354c-1.843,2.119-3.709,4.164-5.594,6.144
		c-1.889,1.978-3.89,3.726-6.008,5.245c-2.119,1.515-4.375,2.737-6.768,3.657c-2.394,0.92-5.02,1.38-7.872,1.38
		c-2.762,0-5.409-0.555-7.939-1.656c-2.535-1.105-4.744-2.624-6.631-4.554c-1.887-1.933-3.382-4.212-4.488-6.835
		c-1.104-2.624-1.658-5.449-1.658-8.484c0-3.128,0.554-6.026,1.658-8.696c1.106-2.667,2.623-4.99,4.558-6.971
		c1.933-1.977,4.212-3.519,6.836-4.622c2.625-1.105,5.501-1.658,8.63-1.658c2.577,0,5.02,0.463,7.321,1.379
		c2.3,0.923,4.509,2.14,6.63,3.659c2.115,1.517,4.143,3.267,6.076,5.246c1.934,1.979,3.819,4.071,5.662,6.277
		c1.749-2.021,3.544-4.021,5.39-6.002c1.839-1.979,3.797-3.748,5.869-5.313c2.069-1.564,4.301-2.831,6.697-3.796
		c2.393-0.967,5.062-1.449,8.01-1.449c3.038,0,5.776,0.53,8.217,1.586c2.438,1.06,4.557,2.511,6.353,4.35
		c1.796,1.841,3.184,4.095,4.148,6.763c0.966,2.67,1.457,5.568,1.457,8.694V46.767 M64.055,62.142c2.211,0,4.303-0.442,6.285-1.41
		c1.979-0.965,3.843-2.161,5.593-3.638c1.748-1.47,3.404-3.046,4.972-4.751c1.563-1.699,3.083-3.327,4.559-4.891
		c-1.568-1.934-3.13-3.841-4.695-5.728c-1.567-1.884-3.247-3.586-5.042-5.104c-1.794-1.52-3.729-2.736-5.8-3.656
		c-2.072-0.919-4.352-1.381-6.839-1.381c-2.207,0-4.189,0.415-5.937,1.244c-1.75,0.827-3.199,1.981-4.35,3.452
		c-1.154,1.473-2.051,3.151-2.693,5.038c-0.646,1.885-0.967,3.887-0.967,6.002c0.09,4.14,1.471,7.619,4.145,10.516
		c2.667,2.897,6.212,4.308,10.631,4.308H64.055z M114.741,31.563c-2.395,0-4.625,0.563-6.696,1.668
		c-2.072,1.104-4.005,2.467-5.801,4.075c-1.796,1.611-3.476,3.295-5.042,5.042c-1.564,1.748-2.945,3.223-4.142,4.418
		c4.602,5.149,8.493,9.013,11.669,11.588c3.178,2.578,6.649,3.868,10.427,3.868c2.211,0,4.145-0.437,5.803-1.312
		c1.656-0.874,3.081-2.022,4.278-3.45c1.196-1.427,2.096-3.037,2.694-4.832c0.598-1.793,0.897-3.608,0.897-5.447
		c0-4.97-1.291-8.82-3.866-11.536c-2.579-2.712-5.938-4.082-10.083-4.082H114.741z"/>
	<g clip-path="url(#SVGID_2_)">
		<text transform="matrix(1 0 0 1 4.882812e-04 68.2734)" font-family="'Helvetica'" font-size="76.3636">L</text>
	</g>
	<g clip-path="url(#SVGID_2_)">
		<text transform="matrix(1 0 0 1 137.8516 66.6855)" font-family="'Helvetica'" font-size="76.3636">p</text>
	</g>
	<path clip-path="url(#SVGID_2_)" fill="#F3323A" d="M63.202,41.937c0,2.188-1.777,3.963-3.967,3.963
		c-2.191,0-3.967-1.774-3.967-3.963c0-2.191,1.775-3.965,3.967-3.965C61.425,37.972,63.202,39.745,63.202,41.937"/>
	<path clip-path="url(#SVGID_2_)" fill="none" stroke="#F4333B" stroke-width="1.0818" stroke-miterlimit="10" d="M63.202,41.937
		c0,2.188-1.777,3.963-3.967,3.963c-2.191,0-3.967-1.774-3.967-3.963c0-2.191,1.775-3.965,3.967-3.965
		C61.425,37.972,63.202,39.745,63.202,41.937z"/>
	<path clip-path="url(#SVGID_2_)" fill="#FC7042" d="M73.308,41.937c0,2.188-1.777,3.963-3.968,3.963s-3.967-1.774-3.967-3.963
		c0-2.191,1.776-3.965,3.967-3.965S73.308,39.745,73.308,41.937"/>
	<path clip-path="url(#SVGID_2_)" fill="none" stroke="#FC7143" stroke-width="1.0818" stroke-miterlimit="10" d="M73.308,41.937
		c0,2.188-1.777,3.963-3.968,3.963s-3.967-1.774-3.967-3.963c0-2.191,1.776-3.965,3.967-3.965S73.308,39.745,73.308,41.937z"/>
	<path clip-path="url(#SVGID_2_)" fill="#FCB937" d="M63.202,51.999c0,2.188-1.777,3.964-3.967,3.964
		c-2.191,0-3.967-1.775-3.967-3.964c0-2.189,1.775-3.963,3.967-3.963C61.425,48.036,63.202,49.81,63.202,51.999"/>
	
		<circle clip-path="url(#SVGID_2_)" fill="none" stroke="#FDB938" stroke-width="1.0818" stroke-miterlimit="10" cx="59.235" cy="51.999" r="3.967"/>
	<path clip-path="url(#SVGID_2_)" fill="#FCE263" d="M73.308,51.999c0,2.188-1.777,3.964-3.968,3.964s-3.967-1.775-3.967-3.964
		c0-2.189,1.776-3.963,3.967-3.963S73.308,49.81,73.308,51.999"/>
	
		<circle clip-path="url(#SVGID_2_)" fill="none" stroke="#FCE464" stroke-width="1.0818" stroke-miterlimit="10" cx="69.34" cy="51.999" r="3.967"/>
	<path clip-path="url(#SVGID_2_)" fill="#0E1A5A" d="M113.521,41.902c0,2.191-1.777,3.967-3.969,3.967s-3.969-1.775-3.969-3.967
		c0-2.19,1.777-3.964,3.969-3.964S113.521,39.712,113.521,41.902"/>
	
		<circle clip-path="url(#SVGID_2_)" fill="none" stroke="#0F1A5D" stroke-width="1.0818" stroke-miterlimit="10" cx="109.552" cy="41.902" r="3.969"/>
	<path clip-path="url(#SVGID_2_)" fill="#314A94" d="M123.622,41.902c0,2.191-1.779,3.967-3.97,3.967
		c-2.192,0-3.968-1.775-3.968-3.967c0-2.19,1.775-3.964,3.968-3.964C121.843,37.938,123.622,39.712,123.622,41.902"/>
	
		<circle clip-path="url(#SVGID_2_)" fill="none" stroke="#314992" stroke-width="1.0818" stroke-miterlimit="10" cx="119.653" cy="41.902" r="3.969"/>
	<path clip-path="url(#SVGID_2_)" fill="#7F96BA" d="M113.521,52.032c0,2.19-1.777,3.967-3.969,3.967
		c-2.193,0-3.969-1.776-3.969-3.967c0-2.188,1.775-3.965,3.969-3.965C111.743,48.067,113.521,49.844,113.521,52.032"/>
	
		<circle clip-path="url(#SVGID_2_)" fill="none" stroke="#8197BB" stroke-width="1.0818" stroke-miterlimit="10" cx="109.552" cy="52.032" r="3.969"/>
	<path clip-path="url(#SVGID_2_)" fill="#C3D9E8" d="M123.622,52.032c0,2.19-1.779,3.967-3.97,3.967
		c-2.192,0-3.968-1.776-3.968-3.967c0-2.188,1.775-3.965,3.968-3.965C121.843,48.067,123.622,49.844,123.622,52.032"/>
	
		<circle clip-path="url(#SVGID_2_)" fill="none" stroke="#C3DAE9" stroke-width="1.0818" stroke-miterlimit="10" cx="119.653" cy="52.032" r="3.969"/>
</g>
</svg>
