<?xml version="1.0" encoding="utf-8"?>
<!-- Generator: Adobe Illustrator 16.0.4, SVG Export Plug-In . SVG Version: 6.00 Build 0)  -->
<!DOCTYPE svg PUBLIC "-//W3C//DTD SVG 1.1//EN" "http://www.w3.org/Graphics/SVG/1.1/DTD/svg11.dtd">
<svg version="1.1" id="Layer_1" xmlns="http://www.w3.org/2000/svg" xmlns:xlink="http://www.w3.org/1999/xlink" x="0px" y="0px"
	 width="50px" height="50px" viewBox="0 0 50 50" enable-background="new 0 0 50 50" xml:space="preserve">
<g>
	<g>
		<path fill="#FFFFFF" d="M18.547,3.521C8.283,7.117,1.591,17.519,3.076,28.728"/>
		<g>
			<path d="M17.879,1.098C6.39,5.518-0.691,16.355,0.563,28.728c0.324,3.191,5.352,3.224,5.025,0
				C4.574,18.724,9.693,9.607,19.215,5.944C22.207,4.793,20.908-0.067,17.879,1.098L17.879,1.098z"/>
		</g>
	</g>
	<g>
		<path fill="#FFFFFF" d="M47.089,29.196C49.294,18.11,43.281,7.297,33.271,3.048"/>
		<g>
			<path d="M49.512,29.864c2.029-12.143-3.66-23.774-14.973-28.985c-2.922-1.346-5.477,2.984-2.537,4.339
				c9.129,4.205,14.343,13.269,12.664,23.311C44.137,31.697,48.979,33.055,49.512,29.864L49.512,29.864z"/>
		</g>
	</g>
	<g>
		<path fill="#FFFFFF" d="M10.17,38.96c8.138,7.216,20.485,7.995,29.555,1.243"/>
		<g>
			<path d="M8.394,40.736c9.494,7.896,22.378,8.748,32.6,1.637c2.639-1.837,0.131-6.195-2.537-4.34
				c-8.264,5.75-18.673,5.667-26.51-0.85C9.475,35.128,5.899,38.662,8.394,40.736L8.394,40.736z"/>
		</g>
	</g>
	<circle stroke="#000000" stroke-width="1.1167" stroke-miterlimit="10" cx="24.946" cy="44.159" r="4.839"/>
	<circle stroke="#000000" stroke-width="1.1167" stroke-miterlimit="10" cx="44.661" cy="13.64" r="4.839"/>
	<circle stroke="#000000" stroke-width="1.1167" stroke-miterlimit="10" cx="6.709" cy="13.083" r="4.838"/>
</g>
</svg>
