<?xml version="1.0" encoding="utf-8"?>
<!-- Generator: Adobe Illustrator 16.0.4, SVG Export Plug-In . SVG Version: 6.00 Build 0)  -->
<!DOCTYPE svg PUBLIC "-//W3C//DTD SVG 1.1//EN" "http://www.w3.org/Graphics/SVG/1.1/DTD/svg11.dtd">
<svg version="1.1" id="Layer_1" xmlns="http://www.w3.org/2000/svg" xmlns:xlink="http://www.w3.org/1999/xlink" x="0px" y="0px"
	 width="114px" height="66px" viewBox="0 0 114 66" enable-background="new 0 0 114 66" xml:space="preserve">
<g>
	<defs>
		<rect id="SVGID_1_" width="114" height="66"/>
	</defs>
	<clipPath id="SVGID_2_">
		<use xlink:href="#SVGID_1_"  overflow="visible"/>
	</clipPath>
	<path clip-path="url(#SVGID_2_)" fill="#010102" d="M85.326,29.396c0,2.081-0.382,3.976-1.133,5.682
		c-0.753,1.707-1.737,3.167-2.952,4.38c-1.216,1.214-2.62,2.141-4.212,2.777c-1.593,0.637-3.256,0.954-4.992,0.954
		c-2.777,0-5.368-0.854-7.77-2.56c-2.401-1.707-5.137-4.294-8.205-7.765c-1.158,1.332-2.331,2.617-3.516,3.861
		c-1.187,1.243-2.445,2.342-3.776,3.297c-1.332,0.952-2.75,1.721-4.254,2.299c-1.505,0.578-3.155,0.867-4.948,0.867
		c-1.736,0-3.4-0.349-4.991-1.041c-1.593-0.694-2.982-1.649-4.168-2.862c-1.186-1.215-2.126-2.647-2.821-4.296
		c-0.694-1.649-1.042-3.425-1.042-5.333c0-1.966,0.348-3.788,1.042-5.466c0.695-1.677,1.649-3.137,2.865-4.382
		c1.215-1.242,2.648-2.212,4.297-2.905c1.65-0.695,3.458-1.042,5.425-1.042c1.62,0,3.155,0.291,4.602,0.867
		c1.445,0.58,2.834,1.345,4.167,2.3c1.33,0.953,2.604,2.053,3.819,3.297c1.216,1.244,2.401,2.559,3.559,3.946
		c1.1-1.27,2.228-2.528,3.388-3.773c1.156-1.244,2.387-2.356,3.689-3.34c1.301-0.983,2.703-1.779,4.21-2.386
		c1.504-0.608,3.182-0.911,5.034-0.911c1.91,0,3.631,0.333,5.165,0.997c1.532,0.666,2.864,1.578,3.993,2.734
		c1.129,1.157,2.001,2.574,2.607,4.251c0.607,1.678,0.916,3.5,0.916,5.465V29.396 M40.263,39.061c1.39,0,2.705-0.278,3.951-0.887
		c1.244-0.606,2.415-1.358,3.515-2.286c1.099-0.924,2.14-1.915,3.125-2.987c0.983-1.068,1.938-2.091,2.865-3.074
		c-0.985-1.215-1.967-2.414-2.951-3.6c-0.985-1.184-2.041-2.254-3.169-3.209s-2.344-1.719-3.646-2.298
		c-1.302-0.578-2.735-0.868-4.298-0.868c-1.388,0-2.634,0.261-3.732,0.782c-1.1,0.52-2.011,1.245-2.734,2.169
		c-0.725,0.926-1.289,1.981-1.693,3.167c-0.406,1.185-0.608,2.443-0.608,3.773c0.057,2.602,0.925,4.789,2.605,6.609
		c1.677,1.821,3.905,2.708,6.683,2.708H40.263z M72.123,19.84c-1.505,0-2.907,0.354-4.209,1.048
		c-1.303,0.694-2.518,1.551-3.646,2.562c-1.129,1.013-2.185,2.071-3.169,3.169c-0.983,1.099-1.852,2.026-2.604,2.777
		c2.893,3.237,5.339,5.666,7.335,7.284c1.997,1.621,4.18,2.432,6.554,2.432c1.39,0,2.605-0.274,3.647-0.824
		c1.041-0.55,1.937-1.271,2.689-2.169c0.752-0.896,1.317-1.909,1.693-3.037c0.376-1.127,0.564-2.268,0.564-3.424
		c0-3.124-0.812-5.544-2.431-7.251c-1.621-1.705-3.732-2.566-6.338-2.566H72.123z"/>
	<g clip-path="url(#SVGID_2_)">
		<text transform="matrix(1 0 0 1 0 42.9141)" font-family="'Helvetica'" font-size="48">L</text>
	</g>
	<g clip-path="url(#SVGID_2_)">
		<text transform="matrix(1 0 0 1 86.6494 41.916)" font-family="'Helvetica'" font-size="48">p</text>
	</g>
	<path clip-path="url(#SVGID_2_)" fill="#F3323A" d="M39.727,26.36c0,1.376-1.117,2.491-2.493,2.491
		c-1.378,0-2.494-1.115-2.494-2.491c0-1.377,1.116-2.492,2.494-2.492C38.61,23.868,39.727,24.983,39.727,26.36"/>
	
		<circle clip-path="url(#SVGID_2_)" fill="none" stroke="#F4333B" stroke-width="0.68" stroke-miterlimit="10" cx="37.234" cy="26.36" r="2.493"/>
	<path clip-path="url(#SVGID_2_)" fill="#FC7042" d="M46.079,26.36c0,1.376-1.117,2.491-2.494,2.491s-2.493-1.115-2.493-2.491
		c0-1.377,1.116-2.492,2.493-2.492S46.079,24.983,46.079,26.36"/>
	
		<circle clip-path="url(#SVGID_2_)" fill="none" stroke="#FC7143" stroke-width="0.68" stroke-miterlimit="10" cx="43.585" cy="26.36" r="2.494"/>
	<path clip-path="url(#SVGID_2_)" fill="#FCB937" d="M39.727,32.685c0,1.375-1.117,2.492-2.493,2.492
		c-1.378,0-2.494-1.116-2.494-2.492c0-1.376,1.116-2.491,2.494-2.491C38.61,30.194,39.727,31.309,39.727,32.685"/>
	
		<circle clip-path="url(#SVGID_2_)" fill="none" stroke="#FDB938" stroke-width="0.68" stroke-miterlimit="10" cx="37.234" cy="32.685" r="2.493"/>
	<path clip-path="url(#SVGID_2_)" fill="#FCE263" d="M46.079,32.685c0,1.375-1.117,2.492-2.494,2.492s-2.493-1.116-2.493-2.492
		c0-1.376,1.116-2.491,2.493-2.491S46.079,31.309,46.079,32.685"/>
	
		<circle clip-path="url(#SVGID_2_)" fill="none" stroke="#FCE464" stroke-width="0.68" stroke-miterlimit="10" cx="43.585" cy="32.685" r="2.494"/>
	<path clip-path="url(#SVGID_2_)" fill="#0E1A5A" d="M71.355,26.339c0,1.377-1.117,2.493-2.494,2.493
		c-1.378,0-2.495-1.116-2.495-2.493s1.117-2.492,2.495-2.492C70.238,23.847,71.355,24.962,71.355,26.339"/>
	
		<circle clip-path="url(#SVGID_2_)" fill="none" stroke="#0F1A5D" stroke-width="0.68" stroke-miterlimit="10" cx="68.861" cy="26.339" r="2.495"/>
	<path clip-path="url(#SVGID_2_)" fill="#314A94" d="M77.705,26.339c0,1.377-1.118,2.493-2.495,2.493
		c-1.378,0-2.494-1.116-2.494-2.493s1.116-2.492,2.494-2.492C76.587,23.847,77.705,24.962,77.705,26.339"/>
	
		<circle clip-path="url(#SVGID_2_)" fill="none" stroke="#314992" stroke-width="0.68" stroke-miterlimit="10" cx="75.21" cy="26.339" r="2.495"/>
	<path clip-path="url(#SVGID_2_)" fill="#7F96BA" d="M71.355,32.706c0,1.377-1.117,2.493-2.494,2.493
		c-1.379,0-2.495-1.116-2.495-2.493c0-1.376,1.116-2.492,2.495-2.492C70.238,30.214,71.355,31.33,71.355,32.706"/>
	
		<circle clip-path="url(#SVGID_2_)" fill="none" stroke="#8197BB" stroke-width="0.68" stroke-miterlimit="10" cx="68.861" cy="32.706" r="2.495"/>
	<path clip-path="url(#SVGID_2_)" fill="#C3D9E8" d="M77.705,32.706c0,1.377-1.118,2.493-2.495,2.493
		c-1.378,0-2.494-1.116-2.494-2.493c0-1.376,1.116-2.492,2.494-2.492C76.587,30.214,77.705,31.33,77.705,32.706"/>
	
		<circle clip-path="url(#SVGID_2_)" fill="none" stroke="#C3DAE9" stroke-width="0.68" stroke-miterlimit="10" cx="75.21" cy="32.706" r="2.495"/>
</g>
</svg>
